<svg xmlns="http://www.w3.org/2000/svg" viewBox="0 0 70.8661 70.8661"><g id="Third_Eye" data-name="Third Eye"><path d="M35.1093,69.6616A33.4617,33.4617,0,1,1,68.5712,36.2,33.4994,33.4994,0,0,1,35.1093,69.6616Zm0-66.4233A32.9617,32.9617,0,1,0,68.0712,36.2,32.9995,32.9995,0,0,0,35.1093,3.2383Zm.0655,55.53A34.49,34.49,0,0,1,3.208,36.7617l-.0323-.0845.0293-.0864A33.9785,33.9785,0,0,1,35.8466,13.64a33.7756,33.7756,0,0,1,31.169,23.2344l.0283.0859-.0332.0845a34.2306,34.2306,0,0,1-31.3535,21.72h0C35.496,58.7676,35.3359,58.7686,35.1748,58.7686ZM3.707,36.6655A33.9894,33.9894,0,0,0,35.1748,58.2686c.1591,0,.3154-.001.4746-.0035h0a33.7309,33.7309,0,0,0,30.8633-21.32A33.274,33.274,0,0,0,35.8349,14.14,33.4828,33.4828,0,0,0,3.707,36.6655Z" fill="#fbc926"/><path d="M35.1093,18.6582A17.5418,17.5418,0,1,0,52.6513,36.2,17.5616,17.5616,0,0,0,35.1093,18.6582Zm-5.96,33.3841c-5.9378-1.4417-10.3456-7.758-11.0024-14.0449a17.3245,17.3245,0,0,1,5.2577-14.0729,16.6321,16.6321,0,0,1,4.0571-2.7266c2.8419-1.35,6.3031-1.9868,6.5845-1.3369.2985.69-3.3849,1.9-6.7182,5.757-3.5774,4.1394-5.1075,9.425-3.992,10.2646.7764.5845,2.23-1.44,5.4538-1.5659a9.4159,9.4159,0,0,1,4.9548,1.3251c.7085.3861,5.2455,2.9613,5.7915,8.0393.0831.7721.485,4.5094-2.0625,6.92C34.5616,53.3564,30.0365,52.2577,29.1493,52.0423Zm17.7381-3.52a16.632,16.632,0,0,1-4.0537,2.7319c-2.84,1.3536-6.3,1.9948-6.5827,1.3452-.2994-.6892,3.3824-1.9043,6.7108-5.7655,3.5722-4.1441,5.0955-9.4316,3.979-10.27-.7773-.5835-2.2286,1.443-5.4519,1.5729a9.4163,9.4163,0,0,1-4.9565-1.3187c-.709-.3852-5.2492-2.9546-5.8019-8.0319-.0839-.772-.4906-4.5088,2.0538-6.9225,2.9085-2.7591,7.435-1.6662,8.3224-1.452,5.94,1.4342,10.3555,7.7448,11.02,14.0308A17.3248,17.3248,0,0,1,46.8874,48.5223Z" fill="#fbc926"/><ellipse cx="35.1093" cy="36.2742" rx="31.5192" ry="29.0844" fill="none" stroke="#fbc926" stroke-miterlimit="10" stroke-width="0.25"/></g></svg>