<svg id="Layer_1" data-name="Layer 1" xmlns="http://www.w3.org/2000/svg" viewBox="0 0 30 30"><path d="M16.39,19.0636c-.069-.0315-.1246-.0562-.1794-.0823-.3319-.1579-.6616-.3207-.9959-.4734A1.8069,1.8069,0,0,0,12.67,19.5646c-.1258.3341-.2477.67-.3589,1.0089-.0457.14-.0961.2157-.2665.2129-.6554-.011-1.3111-.0089-1.9666,0a.2452.2452,0,0,1-.2759-.2078c-.1086-.34-.2364-.6735-.3577-1.0092a1.8076,1.8076,0,0,0-2.4854-1.0875c-.3659.1562-.7226.3343-1.08.51-.11.0542-.18.0758-.2853-.0337-.4613-.48-.9346-.9485-1.41-1.4143a.23.23,0,0,1-.0467-.32c.16-.3082.3013-.6258.4489-.94A1.8219,1.8219,0,0,0,3.53,13.6685c-.3243-.1228-.6526-.2359-.9822-.3438a.2782.2782,0,0,1-.2254-.3085q.0146-.9525,0-1.9052a.2791.2791,0,0,1,.2274-.3068c.3576-.12.7153-.2424,1.0664-.38A1.8034,1.8034,0,0,0,4.6217,7.9276c-.152-.3348-.302-.6712-.4723-.9966a.2627.2627,0,0,1,.0579-.37c.4635-.4488.9184-.9068,1.3685-1.3692a.2223.2223,0,0,1,.3075-.0577A8.6429,8.6429,0,0,0,7.25,5.7473,1.7894,1.7894,0,0,0,9.411,4.6422c.14-.3611.2729-.7257.3918-1.0943a.2456.2456,0,0,1,.2776-.2056q.9833.0129,1.9666.0009a.2264.2264,0,0,1,.2573.1845c.1174.3585.24.7156.374,1.0683a1.8082,1.8082,0,0,0,2.5088,1.0348q.5306-.2389,1.0511-.5a.2032.2032,0,0,1,.2853.0505q.6846.7058,1.39,1.3914a.2433.2433,0,0,1,.0605.342c-.1716.325-.3222.6611-.4772.9945a1.81,1.81,0,0,0,1.0074,2.52c.3517.1366.7082.2615,1.0664.38a.2762.2762,0,0,1,.23.3036q-.0144.9523,0,1.9052a.2764.2764,0,0,1-.2312.3027c-.3678.1224-.7355.247-1.0954.3906a1.8117,1.8117,0,0,0-.99,2.4826c.1573.3437.3177.6863.49,1.0224a.23.23,0,0,1-.0389.32c-.4834.4727-.9583.9539-1.4368,1.4315C16.4632,19.0023,16.4246,19.0329,16.39,19.0636Z" fill="none" stroke="#fbc926" stroke-miterlimit="10" stroke-width="0.25"/><path d="M11.0566,16.2676a4.1944,4.1944,0,0,1-4.186-4.2056,4.187,4.187,0,1,1,4.1929,4.2056Z" fill="none" stroke="#fbc926" stroke-miterlimit="10" stroke-width="0.25"/><path d="M14.2447,12.0817a3.1872,3.1872,0,1,0-3.1826,3.186A3.2006,3.2006,0,0,0,14.2447,12.0817Z" fill="none" stroke="#fbc926" stroke-miterlimit="10" stroke-width="0.25"/><path d="M20.1376,15.7817c.2826.1313.4921.2368.7079.3275a.9569.9569,0,0,0,1.3088-.5446,1.976,1.976,0,0,0,.1231-.3457c.0519-.2473.1832-.3707.4434-.3314a.4841.4841,0,0,0,.0614,0,2.4487,2.4487,0,0,1,.792.0318c.2558.0975.2217.4465.33.6781a.9611.9611,0,0,0,1.3008.5135c.2242-.0918.4511-.3209.6626-.2581.2079.0617.3589.3178.5327.4907.3447.343.3441.3436.1373.781-.3813.8066-.173,1.3291.6862,1.6049a.55.55,0,0,1,.4522.6486c-.0317.7372-.009.7382-.6721,1.0076a.9741.9741,0,0,0-.5534,1.358c.28.6387.28.6387-.2066,1.1258-.3826.3826-.3826.3826-.8725.1443a.9935.9935,0,0,0-1.5313.6158c-.2.5385-.2.5385-.7835.5389-.6493,0-.6493,0-.8725-.5892a.9743.9743,0,0,0-1.4492-.5907c-.5568.253-.5568.253-.9978-.188l-.0216-.0218c-.5049-.5256-.4587-.3019-.17-.9388a.9911.9911,0,0,0-.6353-1.4986c-.5391-.1929-.5391-.1929-.5392-.7574,0-.672,0-.672.63-.9116a.9609.9609,0,0,0,.5835-1.3826c-.2714-.6221-.2693-.62.2106-1.107C19.9226,16.0532,20.032,15.9062,20.1376,15.7817Z" fill="none" stroke="#fbc926" stroke-miterlimit="10" stroke-width="0.25"/><path d="M23.0273,21.9678a2.4175,2.4175,0,1,1,.0186,0Z" fill="none" stroke="#fbc926" stroke-miterlimit="10" stroke-width="0.25"/><path d="M24.7037,19.5357A1.6844,1.6844,0,1,0,23.04,21.2173,1.67,1.67,0,0,0,24.7037,19.5357Z" fill="none" stroke="#fbc926" stroke-miterlimit="10" stroke-width="0.25"/><path d="M17.7576,21.6817c.2539-.1332.3821.0487.5062.2854a.3277.3277,0,0,1-.036.4287c-.2673.3182-.2139.538.1812.6673a.3646.3646,0,0,1,.27.4084c-.0009.1844-.0234.3573-.27.4363-.4251.1363-.49.3882-.1712.6962.2081.2009.0492.3212-.0246.4645-.08.1558-.1426.3168-.4056.2318-.3878-.1252-.612.0988-.497.4873.0605.2044.0179.3144-.1648.3727-.1682.0537-.2844.33-.5321.0642-.2925-.3139-.5813-.2366-.7016.1719-.0705.2395-.2369.2631-.409.2612-.1676-.0018-.3423.0012-.4168-.25-.1225-.4124-.3532-.4773-.6811-.1825-.2705.2433-.4069-.02-.6011-.0831s-.1446-.184-.1161-.3346c.082-.4319-.0929-.6014-.5231-.495-.2177.0539-.3-.0574-.37-.2086-.0739-.1582-.2528-.2841-.0449-.5048.3246-.3446.2577-.5482-.2007-.711-.16-.0569-.2525-.1218-.2028-.2988.0491-.1749-.1427-.4116.2-.5132.4855-.1438.5282-.3722.1783-.75a.197.197,0,0,1-.0319-.2845c.1343-.2421.227-.4547.5995-.3755.3319.0706.5058-.1664.3847-.53-.1079-.3241.1655-.2891.2862-.39s.2313-.19.4095-.01c.3231.3274.5678.2636.7148-.1881.0912-.28.2793-.206.46-.2216a.2859.2859,0,0,1,.3554.2321c.1347.4319.367.5022.6933.1891.2611-.2506.3945.0051.58.071.1956.0693.1715.1947.1243.3647C17.21,21.5127,17.3727,21.6966,17.7576,21.6817Z" fill="none" stroke="#fbc926" stroke-miterlimit="10" stroke-width="0.25"/><path d="M15.5044,25.1924a1.7809,1.7809,0,0,1-1.2417-.54,1.64,1.64,0,0,1-.4956-1.1611,1.7621,1.7621,0,0,1,1.748-1.7109,1.7061,1.7061,0,0,1,.002,3.4121Z" fill="none" stroke="#fbc926" stroke-miterlimit="10" stroke-width="0.25"/><path d="M15.5081,24.6927a1.2065,1.2065,0,0,0,.0125-2.4129,1.2533,1.2533,0,0,0-1.2535,1.2149A1.2727,1.2727,0,0,0,15.5081,24.6927Z" fill="none" stroke="#fbc926" stroke-miterlimit="10" stroke-width="0.25"/></svg>