<svg xmlns="http://www.w3.org/2000/svg" viewBox="0 0 70.8661 70.8661"><g id="Third_Eye" data-name="Third Eye"><polygon points="16.277 68.687 16.266 68.68 16.262 68.677 16.262 68.677 16.277 68.687" fill="none" stroke="#000" stroke-linecap="round" stroke-linejoin="round" stroke-width="0.5"/><path d="M16.2734,68.4031l0,.1427c-.0576-.0046-.1407.0206-.14-.0727S16.2144,68.4035,16.2734,68.4031Z" fill="none" stroke="#000" stroke-linecap="round" stroke-linejoin="round" stroke-width="0.5"/><path d="M33.2336,22.7681a.6369.6369,0,0,1-.1142-.0113c-.7452-.1342-1.49-.2675-2.2364-.3945a.4491.4491,0,0,1-.31-.1748.4572.4572,0,0,1-.0508-.3594c.0537-.2646.1-.5312.1455-.7973.0352-.2.0694-.399.1065-.5977-.2891-.1338-.5723-.2656-.8536-.4175-.1806.1944-.3437.3872-.5078.5806-.1425.1689-.2861.3379-.4248.51a.4763.4763,0,0,1-.3164.1992.4547.4547,0,0,1-.34-.1319q-.86-.74-1.7373-1.4594a.4.4,0,0,1-.0489-.6377c.167-.1909.3291-.3858.4922-.5811.1465-.1748.292-.35.4405-.522a5.4643,5.4643,0,0,1-.5489-.79c-.2148.0791-.4.147-.5869.2144-.2451.0888-.49.1772-.7334.2724a.4336.4336,0,0,1-.6377-.2876q-.36-1.0371-.75-2.0634a.4923.4923,0,0,1-.0127-.397.4854.4854,0,0,1,.3067-.2354c.2129-.07.4238-.1484.6347-.226.2188-.0811.4375-.1617.6592-.2344.0391-.002.043-.02.0342-.0737a4.9789,4.9789,0,0,1-.0762-.8438.3084.3084,0,0,0-.0039-.0586c-.01.0073-.0293-.0058-.083-.0141-.2324-.0352-.4639-.0782-.6953-.1207-.2109-.039-.4219-.0776-.6338-.1108a.4215.4215,0,0,1-.3828-.5474c.1328-.72.2617-1.4409.38-2.164a.4452.4452,0,0,1,.5967-.4053c.26.0542.52.0986.7822.1431.1963.0332.3926.0669.5879.104a8.3039,8.3039,0,0,1,.4033-.875c-.3145-.2554-.6152-.51-.9238-.7705l-.5313-.4483,2.0332-2.4258,1.2324,1.0318a1.6711,1.6711,0,0,0,.2413.1846,1.2936,1.2936,0,0,1,.1943-.1753,3.4075,3.4075,0,0,1,.5752-.3716c-.0879-.2373-.1641-.4458-.2393-.6548-.083-.2305-.167-.4609-.2549-.69a.4705.4705,0,0,1-.0127-.3746.4678.4678,0,0,1,.2823-.2275q1.059-.3706,2.1084-.7661a.485.485,0,0,1,.375-.0068.4912.4912,0,0,1,.2373.3085c.0693.2032.1445.4063.2187.6089.0869.2349.1739.4693.2539.7066.34-.0337.6436-.06.9434-.0664.07-.2867.1162-.541.1611-.795.0371-.2128.0752-.4257.1094-.6386a.4487.4487,0,0,1,.168-.3106.4394.4394,0,0,1,.3388-.0581q1.1295.2066,2.2588.397a.44.44,0,0,1,.3008.1709.4979.4979,0,0,1,.0518.396l-.0674.3852c-.0586.3326-.1162.6651-.1836.9957.3271.1357.61.268.8721.4072.165-.1983.3105-.3711.456-.544.1621-.1914.3233-.3833.4815-.5781a.4368.4368,0,0,1,.2949-.18.4505.4505,0,0,1,.3262.1255q.873.7449,1.7578,1.4751a.4508.4508,0,0,1,.1777.2988.445.445,0,0,1-.126.3248q-.2285.2658-.4521.5346c-.1621.1934-.3233.3863-.4883.5767a5.3609,5.3609,0,0,1,.5478.791c.2452-.0913.4512-.1655.6582-.24.2276-.0815.4551-.1635.68-.2509a.4788.4788,0,0,1,.377-.0127.4886.4886,0,0,1,.24.3027q.3663,1.0474.7588,2.0869a.4712.4712,0,0,1,.0078.374.4625.4625,0,0,1-.29.2286c-.2442.0835-.4873.1728-.73.2622-.2051.0757-.4111.1513-.6172.2231a4.6119,4.6119,0,0,1,.0772.9566c.4062.0708.7959.1435,1.1865.2158l.667.123-.0107.3272a7.0358,7.0358,0,0,0-.1846.9038c-.0293.1787-.0576.3579-.0938.5356-.0566.2808-.1054.5645-.1445.8482a.51.51,0,0,1-.1855.36.4957.4957,0,0,1-.3877.0537c-.2422-.0517-.4854-.0927-.73-.1342-.2061-.0347-.4131-.07-.6182-.1109-.1562.3028-.2852.5772-.4453.87.2041.168.376.313.5478.4581.1817.1528.3623.3056.5479.4545a.48.48,0,0,1,.2.3189.4663.4663,0,0,1-.13.3384c-.498.5805-.9873,1.1679-1.4746,1.7573a.4268.4268,0,0,1-.2852.1694.4416.4416,0,0,1-.3164-.123c-.1718-.147-.3457-.292-.52-.437-.2031-.169-.4053-.3374-.6045-.51a5.8349,5.8349,0,0,1-.791.5479c.0908.2431.1689.4589.2461.6743.08.2241.16.4482.2461.67a.4716.4716,0,0,1,.01.373.4764.4764,0,0,1-.2871.2325c-.705.25-1.4082.5039-2.1074.7685a.4143.4143,0,0,1-.5967-.2891c-.0732-.2094-.1494-.4189-.2265-.6279-.086-.2358-.1729-.4717-.2539-.7095a6.721,6.721,0,0,1-.9649.0791c-.041.2417-.0791.4571-.1181.6719-.044.2466-.0889.4932-.127.7407a.4709.4709,0,0,1-.1738.3194A.41.41,0,0,1,33.2336,22.7681Zm-2.2119-.8911c.73.1264,1.4346.2524,2.1367.3789.041-.2515.0821-.48.1231-.7071.04-.2241.08-.4482.1162-.6728a.4475.4475,0,0,1,.4765-.4112h.01a4.6016,4.6016,0,0,0,.8643-.0825.4686.4686,0,0,1,.581.3418c.08.2339.166.4663.251.6988.0732.2011.1475.4018.2178.604.6963-.2608,1.3672-.503,2.039-.7417-.0869-.2339-.1611-.441-.2353-.6485-.0811-.2256-.1621-.4512-.2481-.6748a.4376.4376,0,0,1,.208-.5928,5.2387,5.2387,0,0,0,.76-.5288.4244.4244,0,0,1,.6045.0113c.2031.1762.4092.3476.6152.5195.1573.13.3135.2607.4688.3926.4687-.5659.9287-1.1172,1.3955-1.6621-.1953-.1617-.3613-.3023-.5283-.4424-.1778-.15-.3565-.3008-.5381-.4473a.4455.4455,0,0,1-.1289-.6269,6.4167,6.4167,0,0,0,.3672-.7832.4939.4939,0,0,1,.6181-.3428c.1993.04.4014.0742.6036.1084.2412.0405.4824.0815.7216.1318.0489-.3218.0967-.5952.1514-.8662.0352-.1714.0625-.3437.09-.5161.0391-.2441.08-.4946.14-.7441l-.209-.0386c-.3877-.0718-.7744-.1441-1.1641-.21a.4628.4628,0,0,1-.4306-.521,3.9086,3.9086,0,0,0-.0742-.8642.4419.4419,0,0,1,.3232-.5381c.207-.0723.4131-.148.6182-.2237.2343-.0859.4677-.1714.7021-.2524-.2607-.7022-.5039-1.3706-.7392-2.041-.2413.09-.4522.1665-.6641.2427-.2148.0771-.4287.1542-.6416.2363a.4451.4451,0,0,1-.6152-.2105,4.6625,4.6625,0,0,0-.5118-.7363.4415.4415,0,0,1,.0059-.6279c.167-.1919.33-.3863.4922-.5811.1377-.1645.2754-.3286.415-.4917-.5683-.4717-1.1181-.9331-1.6631-1.3979-.1552.1889-.3007.3608-.4453.5322-.1523.1807-.3047.3608-.4541.5439a.4385.4385,0,0,1-.6064.126c-.251-.1338-.5244-.2617-.835-.3911a.4572.4572,0,0,1-.3056-.563c.0664-.3271.124-.6548.1806-.9829l.0674-.3818c-.7236-.1226-1.4316-.2481-2.14-.377-.0352.2119-.0694.4009-.1026.59-.0449.25-.0889.5009-.1279.7519a.4832.4832,0,0,1-.5137.4556,6.5729,6.5729,0,0,0-.8408.0722.4788.4788,0,0,1-.5889-.3471c-.0781-.232-.1631-.4619-.248-.6919-.0733-.2-.1475-.4-.2168-.6016-.6992.2608-1.3692.5039-2.042.7393.0908.2431.167.4546.2432.6665.08.2192.1591.4384.2421.6562a.439.439,0,0,1-.2138.5967,3.05,3.05,0,0,0-.5157.3281c-.4638.3843-.6025.3824-1.0722-.0083l-.8516-.7138L25.966,7.98l.1514.1274c.3057.2588.6045.5118.9072.7593a.46.46,0,0,1,.1358.6265c-.1387.2612-.27.5425-.3936.8369a.449.449,0,0,1-.5459.2959c-.1924-.0366-.3847-.0693-.5771-.1021-.2676-.0454-.5342-.0908-.7989-.146-.1269.7471-.2509,1.4429-.3789,2.1368.22.0371.4141.0732.6084.1088.2266.042.4532.0835.6807.1182a.5283.5283,0,0,1,.5117.5737,4.421,4.421,0,0,0,.07.7583.5075.5075,0,0,1-.372.627c-.2159.0713-.4287.15-.6426.2285-.208.0772-.416.1538-.626.2236.2656.712.5078,1.377.74,2.0445.2715-.1026.503-.1861.7354-.27.1963-.0713.3936-.1426.5889-.2168a.4374.4374,0,0,1,.5937.2089,4.7873,4.7873,0,0,0,.5274.7559.4268.4268,0,0,1-.0108.6074c-.1523.1768-.3008.355-.45.5332-.1533.1836-.3066.3672-.4629.5484.5733.4731,1.1211.9331,1.6621,1.3984.15-.1816.28-.3354.41-.4893.1611-.1894.3213-.3789.4766-.5732a.4618.4618,0,0,1,.65-.124,7.2348,7.2348,0,0,0,.7862.3662.4714.4714,0,0,1,.3213.585c-.0362.1953-.07.392-.1045.5893C31.1164,21.37,31.0725,21.6245,31.0217,21.877Zm2.6914-2.48H33.678a6.3567,6.3567,0,0,1-.001-12.7134h.0351a6.346,6.346,0,0,1,4.4317,10.8682A6.2728,6.2728,0,0,1,33.7131,19.3965ZM33.678,7.1831A5.8567,5.8567,0,0,0,33.68,18.8965a5.8834,5.8834,0,0,0,5.8574-5.7949A5.8752,5.8752,0,0,0,33.71,7.1831Z" fill="#fbc926"/><path d="M33.7033,18.0347a4.9961,4.9961,0,1,1,4.9961-4.9961A5.0017,5.0017,0,0,1,33.7033,18.0347Zm0-9.4922a4.4961,4.4961,0,1,0,4.4961,4.4961A4.5011,4.5011,0,0,0,33.7033,8.5425Z" fill="#fbc926"/><path d="M55.0344,41.84a.7994.7994,0,0,1-.1436-.0141c-1.0654-.1919-2.13-.3824-3.1953-.5645a.54.54,0,0,1-.373-.2041.5578.5578,0,0,1-.0557-.4321c.0752-.3731.14-.7485.2051-1.124.05-.2906.1-.5806.1543-.87a.2289.2289,0,0,0,.0068-.1069h0a.2228.2228,0,0,0-.0888-.0488,10.7716,10.7716,0,0,1-1.1924-.5552.3245.3245,0,0,0-.1045-.043.6561.6561,0,0,0-.0615.0664c-.2276.2847-.4629.563-.6983.8409-.2021.2387-.4052.4775-.6015.7207a.5662.5662,0,0,1-.3789.2451.5584.5584,0,0,1-.4053-.1626q-1.2291-1.0576-2.4834-2.0864a.466.466,0,0,1-.0576-.7569c.24-.2763.4756-.5576.71-.8393.2129-.2549.4268-.51.6436-.7622a.2339.2339,0,0,0,.0439-.0611,6.7733,6.7733,0,0,1-.8525-1.1953.2888.2888,0,0,0-.0332-.05c-.0049.0039-.0283.0088-.0674.024-.2842.1079-.57.2114-.8555.3149-.35.1269-.7.2534-1.0468.3887a.6052.6052,0,0,1-.48.0254.5977.5977,0,0,1-.2891-.3721c-.332-.9541-.6924-1.9468-1.0722-2.9507a.5988.5988,0,0,1-.0225-.4824.5866.5866,0,0,1,.375-.2808c.31-.1015.6143-.2148.92-.3276.3076-.1138.6162-.2276.9278-.33.1377-.0454.15-.0547.122-.2231a6.9244,6.9244,0,0,1-.1074-1.188c.002-.1543.002-.1783-.2139-.211-.3349-.05-.667-.1118-1-.1733-.3-.0552-.6-.11-.9013-.1577a.5627.5627,0,0,1-.3907-.208.5819.5819,0,0,1-.0664-.4478c.19-1.03.375-2.061.544-3.0942a.5322.5322,0,0,1,.7246-.4917c.3711.0776.7451.1411,1.12.2051.28.0473.56.0952.8389.1484a.2915.2915,0,0,0,.0732.0068c0-.0029.0137-.0215.0332-.0678.1905-.4561.3819-.8633.584-1.2442a.2109.2109,0,0,0,.0293-.0752h0a.525.525,0,0,0-.07-.0664c-.4209-.3447-.8359-.6953-1.2607-1.0547l-.7207-.6079,2.7675-3.3022,1.6787,1.4057a1.8117,1.8117,0,0,0,.3858.2852,1.7443,1.7443,0,0,0,.373-.2715,4.9265,4.9265,0,0,1,.84-.5371.3215.3215,0,0,0,.0468-.03c-.0039-.0053-.0087-.0283-.0244-.07-.12-.3149-.2353-.6323-.3506-.95-.1191-.33-.2392-.6587-.3642-.9858a.5721.5721,0,0,1-.0215-.4507.5558.5558,0,0,1,.3438-.27q1.5117-.53,3.0146-1.0952a.5675.5675,0,0,1,.4482-.0136.5926.5926,0,0,1,.2852.3769c.1.2915.2061.58.3135.8691.124.336.247.6719.3613,1.0118a.2278.2278,0,0,0,.0459.0942h0a.3062.3062,0,0,0,.1279-.0059,10.0982,10.0982,0,0,1,1.2784-.1108c.1279-.0024.1279-.0024.1484-.1362.0547-.3545.1172-.7085.1807-1.0625.0546-.313.11-.6255.16-.94a.5424.5424,0,0,1,.1973-.3735.53.53,0,0,1,.4033-.064q1.6113.2945,3.2275.5669a.5213.5213,0,0,1,.3594.2012.6131.6131,0,0,1,.0557.4853l-.1016.5787c-.081.4643-.1611.9282-.2549,1.39a.2643.2643,0,0,0-.0088.085h0c.0039,0,.0245.0161.0821.0405.46.1909.8672.3818,1.2451.5835a.323.323,0,0,0,.0635.0273c.0019-.0049.0185-.02.0468-.0551.211-.2579.4248-.5113.6387-.7652.2363-.2807.4736-.561.7041-.8467a.5259.5259,0,0,1,.35-.2187.5037.5037,0,0,1,.3858.1538q1.248,1.0643,2.5117,2.1084a.462.462,0,0,1,.0605.7388c-.2187.2539-.4336.5112-.6494.7685-.2334.2793-.4668.5586-.706.8335a.2892.2892,0,0,0-.042.06c.0039.0024.0136.0205.0381.05a7.2339,7.2339,0,0,1,.8,1.1494.247.247,0,0,0,.039.0571c.002-.0039.03-.0083.0889-.0312.3047-.1172.6123-.2281.9209-.3389.3281-.1177.6572-.2358.9824-.3628a.5805.5805,0,0,1,.4551-.0205.588.588,0,0,1,.2861.37q.5259,1.4985,1.085,2.9844a.491.491,0,0,1-.335.7212c-.3545.1211-.7051.25-1.0566.3794-.294.1079-.5879.2158-.8838.3188a.3393.3393,0,0,0-.0723.0327c.002.0044.002.024.0078.0577a6.2226,6.2226,0,0,1,.1153,1.3671.2377.2377,0,0,0,.0068.09h0a.3756.3756,0,0,0,.1035.0288c.5742.0967,1.1475.2031,1.7207.31l.8164.1508-.0107.3477a10.2128,10.2128,0,0,0-.2676,1.3052c-.04.2539-.081.5083-.1318.7607q-.1232.6057-.209,1.2183a.6073.6073,0,0,1-.2188.4419.5944.5944,0,0,1-.4707.0591c-.3457-.0738-.6943-.1329-1.0429-.1919-.2949-.05-.5908-.1-.8838-.1587-.1406-.0269-.1426-.0279-.1963.1118a9.4356,9.4356,0,0,1-.5606,1.1938.3061.3061,0,0,0-.0322.0738c.0039,0,.0215.02.0674.0571.2647.2139.5254.4336.7852.6528.2578.2173.5146.4341.7773.6455a.57.57,0,0,1,.2471.3819.5519.5519,0,0,1-.1592.4038Q66.15,36.8668,65.11,38.1333a.495.495,0,0,1-.335.2031.5294.5294,0,0,1-.373-.1489c-.2451-.21-.4942-.418-.7422-.625-.2978-.2485-.5957-.4971-.8887-.7505a.2563.2563,0,0,0-.06-.0439,7.03,7.03,0,0,1-1.1914.8515.3065.3065,0,0,0-.0547.0366c.0039.0049.0088.0269.0234.0645.1289.333.25.67.37,1.0068.1123.3106.2237.6216.3418.93a.5747.5747,0,0,1,.0176.4487.5645.5645,0,0,1-.3476.2759c-1.0088.3574-2.0147.7212-3.0157,1.0991a.5547.5547,0,0,1-.4375.0132.5765.5765,0,0,1-.2754-.3593c-.1054-.3072-.2177-.6124-.3291-.917-.121-.3306-.2431-.6617-.3564-.9947a.2512.2512,0,0,0-.0469-.0942h0a.2854.2854,0,0,0-.0957.0063,7.1288,7.1288,0,0,1-1.3437.1285h-.0166a.2392.2392,0,0,0-.0674.0068c.001.0034-.0078.0239-.0147.07-.0517.3228-.11.6441-.1679.9658-.0635.355-.128.71-.1836,1.0664a.567.567,0,0,1-.2041.3853A.4787.4787,0,0,1,55.0344,41.84ZM51.75,40.7632l.0293.0054q1.6011.2747,3.1992.5654c.0166.0029.0293.0044.0391.0054.001-.0093.0039-.024.0068-.043.0567-.3609.1211-.72.1856-1.0781.0576-.3189.1152-.6372.166-.9566a.53.53,0,0,1,.5762-.4975h.0166a6.633,6.633,0,0,0,1.25-.12.5654.5654,0,0,1,.709.417c.1132.33.2334.6573.3525.9849.1133.3076.2266.6152.333.9253.0088.0259.0166.0439.0225.0571.0088-.0039.0234-.0083.042-.0151,1.0029-.3789,2.0127-.7437,3.0234-1.1026a.4957.4957,0,0,0,.0518-.02c-.0049-.01-.0108-.0288-.0206-.0542-.1191-.3115-.2324-.626-.3447-.94-.12-.333-.2392-.666-.3672-.9956a.5189.5189,0,0,1,.25-.7158,7.4933,7.4933,0,0,0,1.1006-.7666.5013.5013,0,0,1,.7266.0156c.291.2514.5869.498.8818.7446.25.208.5.4165.7471.6284.7187-.8652,1.41-1.6924,2.1113-2.5107.0108-.0132.02-.0239.0254-.0327-.0107-.0069-.0254-.021-.0478-.0386-.2647-.2134-.5254-.4331-.7852-.6523-.2578-.2173-.5147-.4341-.7773-.6456a.539.539,0,0,1-.1583-.7617,9.3,9.3,0,0,0,.5313-1.1313.5985.5985,0,0,1,.7607-.4234c.2891.0577.5791.1065.8692.1558.3564.0605.7119.1206,1.0644.1958a.4755.4755,0,0,0,.0762.0112c-.001-.0127.0059-.042.0127-.0918q.0879-.6276.2148-1.249c.05-.2451.0889-.4927.129-.74.0615-.3828.124-.7774.2255-1.166l-.3623-.0669c-.57-.106-1.1406-.2119-1.7119-.3081a.56.56,0,0,1-.5273-.6338A5.7278,5.7278,0,0,0,66.27,26.46a.5276.5276,0,0,1,.3925-.649c.293-.1025.584-.2094.875-.3168.3555-.13.71-.26,1.0674-.3829a.3372.3372,0,0,0,.0479-.0185c-.0039-.0108-.01-.0293-.02-.0542q-.558-1.4919-1.0879-2.9942a.5006.5006,0,0,0-.0293-.0717c-.0107.0053-.03.0117-.0585.0224-.3291.1284-.6622.2481-.9952.3677-.3047.1094-.6084.2188-.91.335a.5389.5389,0,0,1-.7451-.2515,6.7379,6.7379,0,0,0-.7452-1.07.5278.5278,0,0,1,.0088-.7578c.2373-.273.4688-.55.7012-.8272.2168-.2593.4336-.5185.6543-.7744l.0127-.0151L65.425,18.99q-1.267-1.0466-2.5176-2.1132l-.0136-.0118-.0088.0108c-.2324.2876-.4717.5708-.7109.854-.212.2519-.4239.5034-.6329.7588a.527.527,0,0,1-.7324.1533c-.3642-.1943-.7578-.3784-1.2031-.5635a.546.546,0,0,1-.3711-.6865c.0928-.4566.1728-.916.252-1.3755l.1025-.582a.6932.6932,0,0,0,.0166-.1333c-1.1025-.1519-2.1807-.3428-3.2568-.5391l-.0118-.0039-.0048.0278c-.0508.3169-.1065.6324-.1622.9483-.0625.35-.124.7007-.1787,1.0517a.5824.5824,0,0,1-.6318.56,9.5209,9.5209,0,0,0-1.2139.105.58.58,0,0,1-.7236-.4238c-.1113-.335-.2344-.6661-.3564-.9976-.1075-.2925-.2159-.5845-.3165-.8794a.6973.6973,0,0,0-.0312-.0776c-.01.0044-.0283.01-.0527.0195q-1.5089.5684-3.0264,1.0991a.3252.3252,0,0,0-.041.0161c.0049.0108.0117.0293.02.0537.126.33.2471.6622.3672.9942.1142.3149.2285.6294.3476.9424a.5192.5192,0,0,1-.2539.7187,4.44,4.44,0,0,0-.7568.481c-.624.5171-.7676.5127-1.3955-.0127l-1.2979-1.0874L44.5022,20.834l.3408.2871c.4228.3574.835.7065,1.2539,1.0493a.55.55,0,0,1,.166.7632c-.1943.3672-.3789.7607-.5644,1.2036a.537.537,0,0,1-.6612.3584c-.2754-.0527-.5527-.1-.8291-.147-.3808-.0644-.7617-.1294-1.1386-.2085a.5617.5617,0,0,0-.1094-.0136c.001.01-.01.0405-.02.0976-.17,1.0357-.3555,2.07-.545,3.103a.4717.4717,0,0,0-.0088.063c.0108.001.0274.0049.0518.0083.3047.0479.6094.104.9141.16.3271.0605.6552.1211.9834.1709a.6418.6418,0,0,1,.64.7119,6.4334,6.4334,0,0,0,.1016,1.1011.6187.6187,0,0,1-.46.7778c-.3057.1011-.6084.2129-.9111.3247-.3106.1148-.6221.23-.9365.333a.5.5,0,0,0-.0723.0288c.0058.0118.0146.04.03.0826.3818,1.0083.7441,2.0053,1.0781,2.9638a.4979.4979,0,0,0,.0322.0767c.01-.0064.0381-.0142.083-.0318.3506-.1367.7041-.2646,1.0576-.393.2832-.1026.5664-.2051.8487-.3125a.524.524,0,0,1,.7158.251,6.9592,6.9592,0,0,0,.7656,1.0971.5061.5061,0,0,1-.0166.73c-.2148.249-.4258.502-.6377.7554-.2373.2837-.4736.5678-.7168.8467l-.0215.0253.02.0171q1.2569,1.0335,2.4913,2.0938l.0312.0254c.01-.01.0225-.0244.0381-.044.1992-.2456.4033-.4873.6084-.7285.2324-.2749.4648-.5493.6894-.83a.5587.5587,0,0,1,.795-.1513,10.1191,10.1191,0,0,0,1.1357.5293.5709.5709,0,0,1,.3916.7148c-.0537.2866-.1035.5742-.1533.8618-.0654.38-.1309.76-.207,1.1382Zm3.9688-3.7393h-.0479a8.9739,8.9739,0,0,1-.0019-17.9477h.0488a9,9,0,0,1,8.9307,9.0654A9.0528,9.0528,0,0,1,55.719,37.0239Zm-.0459-.5h.0459a8.4627,8.4627,0,0,0,5.9775-14.42,8.4012,8.4012,0,0,0-5.98-2.5273H55.67a8.4739,8.4739,0,0,0,.003,16.9477Z" fill="#fbc926"/><path d="M55.7063,35.5708a7.5225,7.5225,0,1,1,7.5224-7.5225A7.5315,7.5315,0,0,1,55.7063,35.5708Zm0-14.5449a7.0225,7.0225,0,1,0,7.0224,7.0224A7.0308,7.0308,0,0,0,55.7063,21.0259Z" fill="#fbc926"/><path d="M22.2444,66.6992a.4567.4567,0,0,1-.1856-.0386c-.0967-.0151-.25-.0415-.3984-.0668l-.0635-.0113c-1.5664-.3144-3.168-.61-4.9033-.9028a.587.587,0,0,1-.4112-.2207.5758.5758,0,0,1-.0527-.45c.1065-.5733.208-1.1538.31-1.7349.0957-.5513.1924-1.1035.2939-1.6562.045-.2168.0381-.23-.1377-.2945a11.2964,11.2964,0,0,1-2.0927-.9741.3579.3579,0,0,0-.1055-.0478.5275.5275,0,0,0-.0752.0791c-.4365.5361-.8818,1.0649-1.3281,1.5932q-.4776.5647-.95,1.1328a.5761.5761,0,0,1-.3848.251.5677.5677,0,0,1-.418-.1684c-1.36-1.1612-2.7627-2.3379-4.17-3.4976a.5172.5172,0,0,1-.0605-.84c.3467-.4048.6885-.8135,1.03-1.2222.41-.4907.82-.9819,1.2393-1.4663a.2979.2979,0,0,0,.0713-.1011h0a.4282.4282,0,0,0-.0723-.1035,13.1226,13.1226,0,0,1-1.3408-1.9268.2972.2972,0,0,0-.0762-.1015v.0005a.2872.2872,0,0,0-.124.0317c-.4756.1768-.95.35-1.4258.5225-.6357.2314-1.2724.4629-1.9043.7021a.59.59,0,0,1-.4589.0161.5839.5839,0,0,1-.2764-.3706c-.6113-1.69-1.2227-3.3838-1.85-5.0771a.6086.6086,0,0,1-.0254-.4834.62.62,0,0,1,.3857-.2949c.6338-.2212,1.2666-.4517,1.8994-.6822.4795-.1748.958-.3491,1.4366-.519a.3032.3032,0,0,0,.0947-.0469.5786.5786,0,0,0-.0108-.0894,12.8979,12.8979,0,0,1-.1757-1.4829l-.0284-.3559a1.849,1.849,0,0,1,.0059-.3345c.0068-.0908.0215-.2793-.0117-.3061a.99.99,0,0,0-.4522-.1075c-.0937-.0092-.1884-.019-.2773-.0351L1.34,44.3745v-.3418c.1455-.6015.2392-1.1636.33-1.7065.0459-.2774.0928-.5552.1446-.833.1865-1.0054.3652-2.0108.5293-3.024a.5714.5714,0,0,1,.2031-.3989A.5854.5854,0,0,1,3.01,38.01c.5576.1064,1.1152.2036,1.6709.3.5771.101,1.1523.2016,1.7265.3115.2012.0395.2256.0283.292-.16a12.013,12.013,0,0,1,.96-2.0566.3425.3425,0,0,0,.0557-.1265h0a.3878.3878,0,0,0-.084-.082c-.542-.44-1.0742-.8882-1.6065-1.3364-.3662-.3086-.7314-.6167-1.1-.9214a.5875.5875,0,0,1-.2558-.3931.5985.5985,0,0,1,.1806-.4326q1.0429-1.23,2.083-2.4741l1.4-1.6665a2.2449,2.2449,0,0,1,.1758-.2022l.2158-.2329.1826.1484c.2393.1953.4717.39.7042.585l.9628.8091c.45.3769.9.7534,1.3448,1.1323a.2481.2481,0,0,0,.0576.0405,9.3375,9.3375,0,0,1,2.083-1.4751.2672.2672,0,0,0,.0439-.0273c-.0039-.0059-.0107-.0293-.0263-.0693l-.4366-1.1993c-.2636-.7241-.5273-1.45-.7968-2.1718a.509.509,0,0,1,.3457-.7564q2.5488-.906,5.0859-1.85a.6062.6062,0,0,1,.4746-.021.623.623,0,0,1,.2959.396c.1963.5635.4,1.12.6035,1.6758.2.5444.3995,1.0889.5918,1.6391a.3062.3062,0,0,0,.0469.1011l.0137-.0005a.5627.5627,0,0,0,.1-.01,12.5555,12.5555,0,0,1,2.3672-.2129c.0986.0034.1172-.0127.1181-.0127a.3188.3188,0,0,0,.0362-.1328c.081-.482.164-.958.248-1.4336.1162-.6685.2334-1.336.3418-2.0034a.5253.5253,0,0,1,.7-.5039c1.7656.3271,3.5576.6435,5.3281.94a.5955.5955,0,0,1,.4161.2178.6022.6022,0,0,1,.0566.4717c-.11.5747-.2129,1.1518-.3154,1.73-.1.5547-.1983,1.11-.3047,1.666-.0352.1949-.0313.2022.1377.2627a13.0249,13.0249,0,0,1,2.122.9883.46.46,0,0,0,.0928.0454c.002-.0048.0235-.0219.06-.0669.4082-.5019.8252-.9961,1.2422-1.4907.3535-.42.708-.8408,1.0576-1.2656a.5517.5517,0,0,1,.3652-.2393.5711.5711,0,0,1,.4073.1617c1.4033,1.187,2.8134,2.373,4.2246,3.5449a.5413.5413,0,0,1,.2246.3618.53.53,0,0,1-.1582.3892q-.4908.5793-.9785,1.1621c-.4522.5366-.9024,1.0727-1.3575,1.6064a.43.43,0,0,0-.0556.0786c.0048.003.0156.0225.0429.0542A14.5793,14.5793,0,0,1,38.24,35.83a.4008.4008,0,0,0,.0371.0566c.0058-.0039.0264-.0088.06-.022.5537-.2065,1.1075-.4067,1.66-.6074.57-.2065,1.1406-.4131,1.708-.6255a.5053.5053,0,0,1,.7578.34q.9273,2.58,1.8789,5.145a.4786.4786,0,0,1-.3271.687c-.7608.27-1.5186.5464-2.2764.8223l-1.1289.41a.419.419,0,0,0-.0859.0367c.0019.0044.0009.0293.0087.0781a15.2173,15.2173,0,0,1,.2276,2.4248.2933.2933,0,0,0,.0088.0889v0c.0049,0,.0283.0093.08.018.5576.0948,1.1142.1949,1.6709.295.5859.1049,1.1728.21,1.7607.3095a.6727.6727,0,0,1,.4853.2359.66.66,0,0,1,.0645.5219c-.3379,1.7813-.6475,3.5821-.9473,5.3238a.4691.4691,0,0,1-.6172.435c-.4931-.09-.9843-.1762-1.4746-.2627-.6884-.1206-1.375-.2417-2.06-.372a.33.33,0,0,0-.1114-.0093h0c.0039,0-.0146.022-.05.11A14.284,14.284,0,0,1,38.57,53.42a.3619.3619,0,0,0-.0489.1079h0a.8355.8355,0,0,0,.0713.0664c.419.3438.8321.691,1.2451,1.0381.4864.4087.9717.8169,1.4639,1.2168a.62.62,0,0,1,.2715.4087.6094.6094,0,0,1-.1758.438c-1.2324,1.4346-2.4541,2.9023-3.4863,4.1494a.6086.6086,0,0,1-.4043.2525.5988.5988,0,0,1-.4278-.1773c-.5-.43-1.0029-.85-1.5058-1.27-.4151-.3467-.8291-.6929-1.2412-1.0435a.5055.5055,0,0,0-.0537-.0415c-.0059.0059-.02.0161-.0381.0327a14.59,14.59,0,0,1-2.041,1.4165.3257.3257,0,0,0-.0655.0445c.0039.0019.0078.0288.0284.0869.208.5508.4111,1.1094.6132,1.668.2.5537.4,1.1069.6084,1.6572a.6185.6185,0,0,1,.03.4961.6053.6053,0,0,1-.3838.2915q-2.5473.9053-5.0771,1.8491a.5948.5948,0,0,1-.4658.023.6035.6035,0,0,1-.29-.3736c-.1953-.5625-.3984-1.12-.6025-1.6767-.1953-.5347-.3907-1.0689-.5772-1.6031-.0644-.18-.0635-.1811-.2246-.15a15.4158,15.4158,0,0,1-2.3613.2134.4422.4422,0,0,0-.1065.0064c-.1259.8672-.2753,1.7177-.4248,2.5683l-.208,1.1895a.4428.4428,0,0,1-.2324.3408A.4539.4539,0,0,1,22.2444,66.6992Zm-5.5352-1.5249c.0137.001.0371.0069.0713.0127,1.7363.294,3.3437.59,4.9082.9043l.0566.01c.1553.0268.3155.0542.47.0879l.1923-1.1607c.1495-.8491.2989-1.6982.4415-2.5478a.5033.5033,0,0,1,.5752-.44,15.0061,15.0061,0,0,0,2.2753-.2046.6136.6136,0,0,1,.7891.4737c.1865.5351.3809,1.0669.5752,1.6.2041.5591.4092,1.1186.6045,1.6806a.6031.6031,0,0,0,.0332.0787c.0107-.0064.0361-.0137.0752-.0284q2.5341-.9426,5.0879-1.853a.5767.5767,0,0,0,.0908-.0381.836.836,0,0,1-.0391-.1c-.2089-.5537-.4111-1.1094-.6123-1.6655s-.4023-1.1123-.6113-1.6651a.5373.5373,0,0,1,.2617-.74,13.85,13.85,0,0,0,1.9619-1.3628.5038.5038,0,0,1,.74.0113c.4092.3491.8232.6943,1.2363,1.0395.5049.4214,1.01.8433,1.5107,1.2744a.5653.5653,0,0,0,.0664.05c.0059-.01.0264-.0307.0577-.0674,1.0312-1.2461,2.2548-2.7158,3.4873-4.1508a.62.62,0,0,0,.0517-.07.7141.7141,0,0,1-.081-.0659c-.4942-.4009-.9815-.811-1.4707-1.2217-.4112-.3452-.8223-.6914-1.2383-1.0327a.5588.5588,0,0,1-.1406-.8105,13.911,13.911,0,0,0,.9677-2.0811.5683.5683,0,0,1,.7227-.4135c.6816.13,1.3652.25,2.0518.3711.4912.0859.9834.1723,1.4755.2626l.03.0049.0068-.0322c.3-1.7441.6094-3.5469.9483-5.334a.4562.4562,0,0,0,.0137-.1445,1.2028,1.2028,0,0,1-.1485-.0244l-.0049,0c-.5908-.1-1.18-.2056-1.7675-.3115-.5557-.1-1.11-.1993-1.6661-.2935a.5415.5415,0,0,1-.5058-.5972,14.6508,14.6508,0,0,0-.2207-2.3466.5369.5369,0,0,1,.4062-.667l1.1211-.4078c.76-.2763,1.5186-.5527,2.2774-.8222l.0381-.0152c-.003-.0092-.0059-.0205-.0108-.0341q-.9492-2.5562-1.88-5.147a.5848.5848,0,0,0-.0283-.0693.841.841,0,0,1-.08.0312c-.5722.2139-1.1435.4209-1.7158.6279-.5508.2-1.1025.4-1.6533.605a.5136.5136,0,0,1-.708-.2544,14.0335,14.0335,0,0,0-1.3692-1.9536.5378.5378,0,0,1,.0127-.7759c.458-.5356.9073-1.0708,1.3584-1.6064q.4878-.5823.9815-1.1651l.0176-.0209-.0235-.0206c-1.4121-1.1728-2.8242-2.36-4.2275-3.5473l-.0322-.0254-.0293.0351c-.3526.43-.709.8516-1.0645,1.2735-.415.4922-.83.9844-1.2353,1.4829a.54.54,0,0,1-.792.1392,12.5886,12.5886,0,0,0-2.0381-.9493.6376.6376,0,0,1-.4619-.8256c.1064-.5557.205-1.1094.3037-1.6622.1025-.58.206-1.1591.3174-1.7368a.7162.7162,0,0,0,.0117-.0884c-.0127,0-.0381-.0068-.0772-.0131-1.7734-.2974-3.5683-.6138-5.334-.9414a.4541.4541,0,0,0-.1-.01.67.67,0,0,1-.0176.105c-.1084.667-.2256,1.3359-.3428,2.0068q-.1245.7111-.2471,1.4258a.5779.5779,0,0,1-.6269.5674c-.04,0-.08-.001-.1221-.001a12.6364,12.6364,0,0,0-2.1787.2056.5613.5613,0,0,1-.72-.419c-.1914-.5464-.39-1.0888-.5879-1.6308-.2051-.5586-.4092-1.1172-.6065-1.6817a.7231.7231,0,0,0-.042-.1025c-.0117.0063-.039.0136-.081.03q-2.5459.9418-5.0947,1.8525a.5108.5108,0,0,0-.0733.0313c.0059.0107.0137.0376.0293.0786q.4044,1.0862.7979,2.1767l.4336,1.1914a.51.51,0,0,1-.2539.7188,9.4,9.4,0,0,0-1.962,1.3667.5013.5013,0,0,1-.7334.0049c-.4433-.3785-.8925-.7539-1.3417-1.13l-.9639-.81c-.1709-.1435-.3418-.2871-.5166-.4306-.0166.019-.0313.0385-.0459.0581l-1.4111,1.68Q6.2741,32.2025,5.23,33.438c-.0244.0293-.04.05-.05.0644.0117.0074.0313.0254.0615.05.3711.3072.7383.6163,1.1055.9258.5293.4463,1.06.8926,1.5967,1.3286a.5774.5774,0,0,1,.1474.85,11.5643,11.5643,0,0,0-.92,1.9722.6651.6651,0,0,1-.8574.4839c-.5723-.11-1.1445-.21-1.7188-.31-.5585-.0976-1.1181-.1953-1.6777-.3017-.0312-.0059-.0547-.0088-.07-.01-.001.0117-.0049.03-.0088.0537-.166,1.022-.3447,2.0313-.5312,3.0406-.0518.2754-.0977.55-.1436.8237-.0859.51-.1738,1.0371-.2988,1.5557l2.9892.5615c.0752.0132.1563.0215.2383.0293a1.3119,1.3119,0,0,1,.7168.2168.784.784,0,0,1,.1944.7329,1.4111,1.4111,0,0,0-.0069.2471l.03.3657a12.2442,12.2442,0,0,0,.168,1.4267.5553.5553,0,0,1-.4053.7017q-.7192.2556-1.4346.5185c-.6357.2315-1.2705.4625-1.9062.6841a.6059.6059,0,0,0-.0918.04c.0068.0107.0156.041.0341.0913.628,1.6973,1.2413,3.3921,1.8536,5.0869.0117.0347.0214.0581.0283.0737.0117-.0053.0322-.0117.0615-.0219.6309-.2388,1.2695-.4712,1.9072-.7032.4746-.1728.9483-.3452,1.42-.52a.5828.5828,0,0,1,.8115.2886,12.6109,12.6109,0,0,0,1.2881,1.853.5708.5708,0,0,1-.0049.857c-.4151.48-.8233.9682-1.2315,1.4565-.3437.4107-.6865.8208-1.0341,1.2266a.7928.7928,0,0,0-.06.0786c.0107.0068.0293.0263.0625.0542,1.4053,1.1587,2.81,2.3374,4.1719,3.5005.0205.0166.0361.0283.0468.0366.0069-.0112.0235-.0288.044-.0552.3174-.3838.6367-.7617.956-1.14.4434-.5259.8877-1.0523,1.3213-1.586a.5621.5621,0,0,1,.82-.1479,10.7292,10.7292,0,0,0,2.0059.9341.6528.6528,0,0,1,.4648.8623c-.1005.5459-.1972,1.0966-.2929,1.6465-.1016.583-.2032,1.165-.3106,1.7451C16.7141,65.1362,16.7112,65.1587,16.7092,65.1743Zm6.4522-6.2466h-.0137a14.0358,14.0358,0,0,1-9.9346-4.0957,13.7587,13.7587,0,0,1-4.1172-9.8442A14.0923,14.0923,0,0,1,23.1028,30.877h.0146a14.0254,14.0254,0,0,1,.044,28.0507ZM23.1037,31.377A13.5911,13.5911,0,0,0,9.5959,44.9888a13.2655,13.2655,0,0,0,3.9688,9.4883,13.5421,13.5421,0,0,0,9.583,3.9506h.0137a13.5254,13.5254,0,0,0-.044-27.0507Z" fill="#fbc926"/><path d="M23.0969,57.0981a12.1653,12.1653,0,1,1,12.166-12.165A12.1785,12.1785,0,0,1,23.0969,57.0981Zm0-23.83a11.6653,11.6653,0,1,0,11.666,11.6655A11.6786,11.6786,0,0,0,23.0969,33.2676Z" fill="#fbc926"/></g></svg>