<svg id="Layer_1" data-name="Layer 1" xmlns="http://www.w3.org/2000/svg" viewBox="0 0 45 15"><path d="M13.6653,10.6533a4.9133,4.9133,0,0,1-.6249.0417A4.6841,4.6841,0,0,1,8.3748,6.4667h-1.75A4.6841,4.6841,0,0,1,1.96,10.695a4.9133,4.9133,0,0,1-.6249-.0417A4.687,4.687,0,0,0,5.3755,6.4667H3.5686V5.6128H5.3807a4.6876,4.6876,0,0,0-4.046-4.2595A4.9135,4.9135,0,0,1,1.96,1.3117,4.683,4.683,0,0,1,6.63,5.6128H8.37A4.6831,4.6831,0,0,1,13.04,1.3117a4.9135,4.9135,0,0,1,.6249.0416,4.6877,4.6877,0,0,0-4.046,4.26h1.8642v.8539H9.6245A4.687,4.687,0,0,0,13.6653,10.6533Z" fill="#fbc926"/><path d="M38.1145,9.9278a7.3959,7.3959,0,0,1-3.9221-1.0687,1.9835,1.9835,0,0,0,.4133.0392,2.5524,2.5524,0,1,0-2.5115-2.96l-.0106.0392v.0036a.1713.1713,0,0,0-.0036.0427.8323.8323,0,0,0-.0142.1,1.1159,1.1159,0,0,0-.0072.1567.4389.4389,0,0,0-.0035.0677v.0214a1.2,1.2,0,0,0,.0107.16v.0071c0,.0249.0035.0534.0035.0784.15,2.3724,2.7964,4.264,6.0452,4.264A7.17,7.17,0,0,0,42.56,9.4433V8.4922A7.1558,7.1558,0,0,1,38.1145,9.9278Zm-5.347-3.58a1.8382,1.8382,0,1,1,1.8382,1.8381A1.8411,1.8411,0,0,1,32.7675,6.3477Z" fill="#fbc926"/><path d="M37.5671,2.0788a7.3957,7.3957,0,0,1,3.9221,1.0687,1.9825,1.9825,0,0,0-.4132-.0392,2.5524,2.5524,0,1,0,2.5114,2.96l.0107-.0392V6.0259a.1725.1725,0,0,0,.0036-.0428.8335.8335,0,0,0,.0142-.1,1.1329,1.1329,0,0,0,.0071-.1568.4269.4269,0,0,0,.0036-.0677V5.6376a1.2173,1.2173,0,0,0-.0107-.16V5.47c0-.0249-.0035-.0534-.0035-.0783-.15-2.3725-2.7965-4.2641-6.0453-4.2641a7.17,7.17,0,0,0-4.4457,1.4356v.9511A7.1557,7.1557,0,0,1,37.5671,2.0788Zm5.347,3.58A1.8382,1.8382,0,1,1,41.076,3.8208,1.8411,1.8411,0,0,1,42.9141,5.6589Z" fill="#fbc926"/><path d="M25.3507,6.5229a2.2362,2.2362,0,0,0-.5485.0712,1.3915,1.3915,0,0,0-.553.3621c.0136-1.406-.03-2.51-.0773-3.2847a3.1555,3.1555,0,0,0-.1045-.73A2.7346,2.7346,0,0,0,21.9493.867a2.7164,2.7164,0,0,0-1.8227.7576,3.4876,3.4876,0,0,0-.53.5469,6.3689,6.3689,0,0,0-2.08-1.0772V2.2109a5.31,5.31,0,0,1,1.62.9485V9.4228h.9535l.2859-6.5361-.0061-.0076c-.0106-.0121,1.0485-1.4363,1.72-.9348a2.1119,2.1119,0,0,1,.694.8408,1.95,1.95,0,0,1,.15.5728c.0666.5939.1742,2.5.2757,5.1.003.0924.0076.1864.0106.28l.0015.0182a.3.3,0,0,0,.0031.0364,3.1592,3.1592,0,0,1-.2476.7589,3.2855,3.2855,0,0,1-.5262.7821c-.2905.3358-.4357.5036-.6586.55a.9676.9676,0,0,1-.7491-.2233l-.8959.4408a2.17,2.17,0,0,0,1.75.7086,2.1452,2.1452,0,0,0,.9228-.4242,2.2818,2.2818,0,0,0,.5413-.6l.4264-.6779.0182.0182a2.133,2.133,0,1,0,1.5454-3.603Zm0,3.2045a1.0719,1.0719,0,0,1-.0561-2.1424c.0182-.0015.0379-.0015.0561-.0015a1.072,1.072,0,1,1,0,2.1439Z" fill="#fbc926"/><path d="M5.3887,12.5137l-.0274.0068a1.1042,1.1042,0,0,0-.8232-.2617c-.2949,0-.7129.0664-.7129.3369,0,.5342,1.6626.0684,1.6626.916,0,.56-.7066.6231-1.064.6231a1.9594,1.9594,0,0,1-.9018-.1836l-.0782-.2832.0269-.0088a1.2692,1.2692,0,0,0,.9561.3369c.3335,0,.7841-.0781.7841-.4092,0-.6035-1.6621-.12-1.6621-.92,0-.4951.6162-.5469.9951-.5469a1.6618,1.6618,0,0,1,.7935.1719Z" fill="#fbc926"/><path d="M7.9785,12.19a.7005.7005,0,0,0,.12-.0088c-.03.3066-.03.6191-.03.9287a1.0081,1.0081,0,0,1-1.1123,1.0254.9786.9786,0,0,1-1.0879-1.0254,8.6814,8.6814,0,0,0-.0332-.9287,1.78,1.78,0,0,0,.1923.0088,1.8749,1.8749,0,0,0,.1954-.0088,8.7867,8.7867,0,0,0-.0328.9287.7924.7924,0,0,0,.8233.8623.8145.8145,0,0,0,.8779-.8623c0-.31,0-.6221-.0268-.9287A.5785.5785,0,0,0,7.9785,12.19Z" fill="#fbc926"/><path d="M8.5864,12.126c.1411.1142.7241.5771,1.2383.9385.3008.2128.562.4209.7544.5585.0063-.2548.0122-.48.0122-.7148,0-.22-.0059-.4512-.0239-.7275a.61.61,0,0,0,.1113.0088.6434.6434,0,0,0,.1138-.0088c-.0239.3213-.0327.6552-.0327,1.01,0,.2979.0058.61.021.9444h-.0332c-.1382-.1055-.6495-.5118-1.0581-.8028-.3755-.2646-.7066-.5234-.9317-.6855-.0029.1592-.0063.3183-.0063.4805,0,.3095.0092.623.03.9472a.7024.7024,0,0,0-.1142-.0088.6167.6167,0,0,0-.1113.0088c.0151-.2226.0209-.49.0209-.7754,0-.3906-.0117-.8115-.0268-1.1787h.0361Z" fill="#fbc926"/><path d="M17.54,14.1309c-.3247-.5342-.5952-.9522-.8955-1.4336-.1113.3818-.2315.8359-.3731,1.3769a.63.63,0,0,0-.1108-.0088.5551.5551,0,0,0-.1084.0088c.1895-.6279.3755-1.2568.55-1.8935h.0244c.3667.5976.6792,1.07,1.0191,1.5927.3515-.5293.6489-.9853.998-1.5927H18.67c.1772.664.3486,1.2744.5381,1.8935a1.4115,1.4115,0,0,0-.18-.0088,1.4657,1.4657,0,0,0-.1836.0088c-.1231-.5078-.2466-.9531-.3516-1.3828-.31.4815-.5835.8809-.9258,1.44Z" fill="#fbc926"/><path d="M20.8186,12.12c.7876,0,1.4131.3643,1.4131.9863,0,.6045-.5923,1.0284-1.437,1.0284-.7876,0-1.4131-.3672-1.4131-.9922C19.3816,12.5381,19.9709,12.12,20.8186,12.12Zm-1.064,1.001c0,.5537.4419.8809,1.0518.8809.5864,0,1.0522-.2979,1.0522-.8653,0-.5566-.4448-.8838-1.0551-.8838C20.2205,12.2529,19.7546,12.5469,19.7546,13.1211Z" fill="#fbc926"/><path d="M24.0222,12.12c.7881,0,1.4131.3643,1.4131.9863,0,.6045-.5918,1.0284-1.4365,1.0284-.7881,0-1.4131-.3672-1.4131-.9922C22.5857,12.5381,23.1746,12.12,24.0222,12.12Zm-1.0635,1.001c0,.5537.4414.8809,1.0518.8809.5859,0,1.0518-.2979,1.0518-.8653,0-.5566-.4444-.8838-1.0547-.8838C23.4246,12.2529,22.9587,12.5469,22.9587,13.1211Z" fill="#fbc926"/><path d="M25.9128,12.126c.1416.1142.7247.5771,1.2383.9385.3008.2128.5625.4209.7549.5585.0059-.2548.0117-.48.0117-.7148,0-.22-.0058-.4512-.0244-.7275a.6175.6175,0,0,0,.1113.0088.6534.6534,0,0,0,.1143-.0088c-.0234.3213-.0332.6552-.0332,1.01,0,.2979.0068.61.0215.9444H28.074c-.1387-.1055-.6494-.5118-1.0576-.8028-.376-.2646-.7071-.5234-.9317-.6855-.0029.1592-.0068.3183-.0068.4805,0,.3095.01.623.03.9472a.7028.7028,0,0,0-.1143-.0088.6167.6167,0,0,0-.1113.0088c.0156-.2226.0215-.49.0215-.7754,0-.3906-.0118-.8115-.0274-1.1787h.0361Z" fill="#fbc926"/><path d="M31.7852,14.0625c-.06,0-.1231.0088-.1827.0117.0118-.1767.0293-.4443.0293-.959a8.718,8.718,0,0,0-.0293-.9345c.0987.0029.2159.0117.3155.0117.0957,0,.61-.0117.7968-.0117.6729,0,.9825.1318.9825.5625,0,.33-.1836.4863-.5743.541a.7269.7269,0,0,1,.1866.2217c.1445.2441.2373.5263.4961.5293a.5.5,0,0,0,.2793-.084l.0185.0273a.7381.7381,0,0,1-.4365.126c-.7568,0-.5137-.8-1.0791-.8h-.6524c.0069.3906.0215.6074.03.7695C31.9062,14.0713,31.8428,14.0625,31.7852,14.0625Zm.163-1.7256c-.0058.1358-.0127.3067-.0127.8115h.7793c.502,0,.64-.1562.64-.4052s-.1377-.4063-.64-.4063Z" fill="#fbc926"/><path d="M34.4912,14.0625c-.06,0-.123.0088-.1826.0117.0117-.1767.0293-.4443.0293-.959a8.7481,8.7481,0,0,0-.0293-.9345c.06.0029.123.0117.1826.0117.0576,0,.1211-.0088.1807-.0117a8.5751,8.5751,0,0,0-.03.9345c0,.5147.0186.7823.03.959C34.6123,14.0713,34.5488,14.0625,34.4912,14.0625Z" fill="#fbc926"/><path d="M36.9912,12.5146l-.0273.0059a1.1052,1.1052,0,0,0-.8233-.2617c-.2949,0-.7129.0664-.7129.3369,0,.5352,1.6621.0693,1.6621.917,0,.5586-.706.6221-1.0634.6221a1.9606,1.9606,0,0,1-.9024-.1836l-.0781-.2823.0273-.01a1.2692,1.2692,0,0,0,.9561.3369c.333,0,.7842-.0781.7842-.4082,0-.6045-1.6621-.1211-1.6621-.92,0-.4961.6162-.5479.9951-.5479a1.6584,1.6584,0,0,1,.793.1719Z" fill="#fbc926"/><path d="M37.6924,14.0625c-.06,0-.1231.0088-.1826.0117.0117-.1767.0293-.4443.0293-.959a8.7481,8.7481,0,0,0-.0293-.9345c.0595.0029.123.0117.1826.0117.0576,0,.1211-.0088.1806-.0117a8.6184,8.6184,0,0,0-.03.9345c0,.5147.0185.7823.03.959C37.8135,14.0713,37.75,14.0625,37.6924,14.0625Z" fill="#fbc926"/><path d="M38.4424,12.127c.1416.1142.7246.5771,1.2383.9375.3007.2138.5625.4209.7548.5595.0059-.2558.0118-.4814.0118-.7158,0-.22-.0059-.4512-.0235-.7275a.6032.6032,0,0,0,.1114.0088.633.633,0,0,0,.1132-.0088c-.0234.3213-.0322.6552-.0322,1.01,0,.2979.0059.61.02.9444h-.0332c-.1377-.1055-.6494-.5108-1.0576-.8028-.376-.2646-.707-.5234-.9316-.6855-.003.1592-.0069.3183-.0069.4814,0,.31.01.6221.03.9463a.7028.7028,0,0,0-.1143-.0088.6175.6175,0,0,0-.1113.0088c.0156-.2226.0215-.4892.0215-.7754,0-.3906-.0117-.8115-.0274-1.1787h.0362Z" fill="#fbc926"/><path d="M41.4609,13.0977c0,.541.4571.9013,1.1182.9013a1.6739,1.6739,0,0,0,.6709-.123,6.6665,6.6665,0,0,0-.0332-.709c.06.0029.123.0088.1826.0088s.124-.0059.1836-.0088a5.9015,5.9015,0,0,0-.0332.7871c-.0986.0332-.21.0693-.3242.1a2.8174,2.8174,0,0,1-.6524.0811c-.8173,0-1.4726-.3643-1.4726-1.0313,0-.6279.5859-.9834,1.4726-.9834a2.3212,2.3212,0,0,1,.878.1533.12.12,0,0,1,.0722.0635l.0362.2735-.03.0087a1.15,1.15,0,0,0-.9619-.3632C41.9512,12.2559,41.4609,12.5322,41.4609,13.0977Z" fill="#fbc926"/></svg>