<svg id="Layer_1" data-name="Layer 1" xmlns="http://www.w3.org/2000/svg" viewBox="0 0 300 52.18"><path d="M179.29,52.21c-.01.04-.02.07-.03.11a.7844.7844,0,0,0,.02-.14A.0367.0367,0,0,0,179.29,52.21Z" fill="#231f20" stroke="#fbc926" stroke-miterlimit="10"/><path d="M21.7709,44.5482A67.819,67.819,0,0,0,46.83,41.1014a81.4556,81.4556,0,0,0,11.4747-4.8706,69.6467,69.6467,0,0,0,8.9163-5.1447c4.95-3.5777,9.8913-9.7835,7.6744-16.32-1.0892-3.2117-3.6573-7.0319-6.9361-8.27a42.7674,42.7674,0,0,0-9.6644-2.4422c-6.6875-.8548-13.88-.1156-19.66,3.6023A15.85,15.85,0,0,0,31.8725,15.67a12.9362,12.9362,0,0,0,.801,9.4449A37.0828,37.0828,0,0,0,38.51,33.72c1.1287,1.3237,2.2977,2.6119,3.4523,3.9128A7.1134,7.1134,0,0,0,43.4155,39.21c.8.4337,2.277-.1152,3.1095-.2192,9.6614-1.2068,19.293,1.2646,28.7226,3.0427a54.1207,54.1207,0,0,0,9.6161.6931A56.0905,56.0905,0,0,0,94.33,42.076c6.0564-.9963,12.0663-3.3251,16.1634-8.073a20.235,20.235,0,0,0,2.7073-4.0712c.3126-.6144-.2684-.8188-.7921-.8768-3.1514-.3494-5.6161,2.9291-5.4217,5.8835.1052,1.5995,1.9449,1.45,3.0189.7423,1.7924-1.18,2.5852-4.1043,3.2934-5.9655.1308-.3437-.31-.5747-.5662-.6228-5.0462-.9466-10.7818-1.897-15.42.9682-3.3931,2.096-6.1454,6.9173-3.9471,10.7622,2.4716,4.3229,7.84,2.8368,11.5243,1.2208,2.41-1.057,4.7109-2.1046,7.3886-2.224,2.69-.12,5.2971.5,7.9575.7423a15.5382,15.5382,0,0,0,14.0949-6.1757l-2.6957.5321,8.8528,6.6572c.6465.4861,2.6607.2642,2.7943-.7487.5371-4.0729,3.9344-6.6754,7.895-7.0558a14.269,14.269,0,0,1,5.8167.9555c2.2164.7037,4.4595,1.3264,6.7279,1.84,8.3737,1.8952,17.5451,2.4392,25.62-.9628a26.4518,26.4518,0,0,0,11.4074-9.3277c.6258-.895-1.11-.9294-1.55-.7823a8.2905,8.2905,0,0,0-3.7082,2.452,4.8034,4.8034,0,0,0-1.41,2.5093c-.0269,1.4246,2.1364.7816,2.8334.3366,1.6125-1.0294,2.7767-2.9884,3.8357-4.5156.6219-.8968-1.1076-.93-1.55-.7823-2.4386.8115-5.1828,2.5136-5.24,5.3985-.0607,3.0677,3.05,4.97,5.5724,5.9259a51.1324,51.1324,0,0,0,10.8213,2.37,121.9588,121.9588,0,0,0,12.5149,1.1055c4.7943.1891,9.5937.1445,14.3886.0058.5935-.0171,1.6159-.182,1.911-.7976.2745-.5727-.2335-.893-.7921-.8769-9.31.2693-18.694.2-27.9107-1.2882-3.78-.61-8.35-1.082-11.5113-3.4379a4.4156,4.4156,0,0,1-2.0765-3.7588,3.8254,3.8254,0,0,1,2.72-3.1609l-1.55-.7824a23.7272,23.7272,0,0,1-2.6284,3.4005,2.8376,2.8376,0,0,0-.4267.391c.3368-.5586,2.1691-.2358,1.9939-.0108-.0962.1236.0665-.236.1127-.3472a5.08,5.08,0,0,1,2.499-2.6511l-1.55-.7824a22.9836,22.9836,0,0,1-10.1571,8.3046,30.0353,30.0353,0,0,1-12.6158,1.8509,59.9437,59.9437,0,0,1-13.3452-2.2831,62.6175,62.6175,0,0,0-6.2677-1.81,15.84,15.84,0,0,0-6.3231.2606c-4.29,1.04-8.3464,4.0478-8.9549,8.6613l2.7943-.7487-8.8529-6.6572a2.1566,2.1566,0,0,0-2.6957.5322,10.96,10.96,0,0,1-10.0892,4.5972c-2.2018-.185-4.3616-.6684-6.5775-.754a20.3308,20.3308,0,0,0-6.269.7027,48.4433,48.4433,0,0,0-5.58,2.2333c-1.5027.6291-3.3082,1.3471-4.9149.6734-3.9154-1.6416-2.921-6.8711-.69-9.421,3.3279-3.8027,9.1278-2.459,13.4577-1.6467l-.5663-.6228a24.7032,24.7032,0,0,1-2.1883,4.6283c-.1842.2873-.1334.096-.0817.14.1646.1412,1.8972-.3584,1.8379-.1355a6.7632,6.7632,0,0,0-.0656-.7421,5.8019,5.8019,0,0,1,.6575-2.2843,10.8809,10.8809,0,0,1,.6309-.8962c.0423-.0641.2744-.2577.054-.1028-.1709.12-.3818.0052.0459.0527l-.792-.8769a18.383,18.383,0,0,1-7.86,8.0689,29.169,29.169,0,0,1-10.7734,2.8867,69.8636,69.8636,0,0,1-11.5022.0236c-5.4623-.3667-10.8536-1.9621-16.26-2.8142a58.8353,58.8353,0,0,0-19.3427-.337l1.151.2476a117.7858,117.7858,0,0,1-8.064-9.648c-2.2494-3.2595-4.1872-7.2424-3.4916-11.3107,1.5213-8.897,11.9726-11.9283,19.72-11.5281a35.0889,35.0889,0,0,1,11.8879,2.591c2.0518.89,3.7607,3.0683,4.8614,4.9655A10.8166,10.8166,0,0,1,72.38,19.5411c-.7677,8.3807-9.7123,12.7031-16.3216,16.02A66.1155,66.1155,0,0,1,22.89,42.8737c-.5805-.03-1.63.2118-1.911.7977-.2893.6034.2477.8486.7921.8768Z" fill="#fbc926"/><path d="M50.42,27.4643l12.5176-6.1594c1.12-.5511.2616-.9786-.5932-.8295A119.8363,119.8363,0,0,0,31.2363,30.408c-.2722.13-.9775.6392-.3348.83L60.3679,39.97l1.4377-1.18a249.4305,249.4305,0,0,1-38.8184,4.526c-.5163.02-1.6493.2086-1.9339.7122-.2944.5211.2533.5681.7048.551A254.1558,254.1558,0,0,0,61.296,39.97c.2688-.053,2.46-.8766,1.4376-1.18L33.2672,30.0579l-.3348.83a111.332,111.332,0,0,1,28.9022-9.2326l-.5932-.8294L48.7238,26.9849c-.3964.195-.8438.5329-.3349.83.4891.2851,1.5907-.1336,2.0309-.35Z" fill="#fbc926"/></svg>