<svg id="Layer_1" data-name="Layer 1" xmlns="http://www.w3.org/2000/svg" viewBox="0 0 300 100"><path d="M179.29,52.21c-.01.04-.02.07-.03.11a.7844.7844,0,0,0,.02-.14A.0367.0367,0,0,0,179.29,52.21Z" fill="#231f20" stroke="#fbc926" stroke-miterlimit="10"/><path d="M179.21,53.87c-.01-.11-.03-.24-.03-.35v-.1A3.4013,3.4013,0,0,0,179.21,53.87Z" fill="#231f20" stroke="#fbc926" stroke-miterlimit="10"/><path d="M63.6992,49.09l12.5176-6.1594c1.6067-.7907.495-2.2146-.9392-1.9644a117.2869,117.2869,0,0,0-30.38,9.7234c-.7531.36-1.2633,1.606-.168,1.9306l29.4664,8.7321.5431-2.0714a247.9471,247.9471,0,0,1-66.3,3.9772l-.9755,2.21C31.2867,66.542,57.5785,67.44,78.3573,53.7435c4.5339-2.9886,8.8661-7.0991,10.0906-12.59,1.1044-4.9518-.6733-10.3713-5.3538-12.7481-2.6789-1.36-5.764-1.7026-8.6984-2.1286a67.7651,67.7651,0,0,0-9.9111-.8643c-5.8316.0161-11.6709,1.5758-15.9288,5.7328-4.2182,4.1183-5.7171,9.9314-3.0127,15.3144,2.5986,5.1723,7.5831,8.6194,10.6981,13.441a1.5136,1.5136,0,0,0,1.6042.3984c11.7483-3.49,23.8021,1.4382,35.3505,3.46,8.11,1.42,17.3607,1.0214,24.7113-3.0233a19.0423,19.0423,0,0,0,8.8055-9.6944c.2687-.69-.2541-1.1827-.9056-1.3008-5.1713-.9376-11.44-1.8517-15.9578,1.5723-3.0392,2.3037-4.8977,7.0588-2.95,10.6015,2.2693,4.1267,7.4422,3.2442,11.0008,1.672a58.1138,58.1138,0,0,1,6.271-2.8091c2.8935-.887,5.4068.1809,8.2261.8275a14.869,14.869,0,0,0,15.276-5.8352l-2.3327.3967,8.8528,6.6572a1.7439,1.7439,0,0,0,2.5809-.9611c.7884-3.8741,4.7889-5.9471,8.4512-6.2278,5.0485-.387,9.9644,1.9462,14.7668,3.138a35.2255,35.2255,0,0,0,23.8249-2.421A27.2138,27.2138,0,0,0,214.0917,47.66c.7325-1.0469-.5024-1.8486-1.506-1.5223a8.3142,8.3142,0,0,0-5.0672,4.2876,4.9858,4.9858,0,0,0-.6418,2.8028c.2609.9014,1.6152,1.8638,2.3222,2.4194,3.6981,2.9064,8.5749,3.8848,13.1407,4.393a226.3656,226.3656,0,0,0,36.5576.8022q10.6695-.5508,21.262-2.0184c.6421-.0883,1.5329-.4461,1.5853-1.2127.0482-.7041-.736-1.1094-1.3589-1.0237A250.06,250.06,0,0,1,247.379,58.934q-8.359.0357-16.7057-.5021c-4.6122-.2981-9.4411-.4659-13.8894-1.8371a15.7838,15.7838,0,0,1-5.971-3.1855c-.39-.3494-.9057-.7232-.9461-1.2377a3.8175,3.8175,0,0,1,.6143-1.6972,4.8459,4.8459,0,0,1,2.6687-2.2318l-1.506-1.5224c-4.8593,6.9453-13.0347,10.49-21.3548,10.8277a39.6634,39.6634,0,0,1-13.26-2.1254c-4.5795-1.3871-9.3678-2.7594-14.154-1.6151-4.2093,1.0064-8.1441,3.8193-9.0447,8.2446l2.5808-.961-8.8528-6.6571a1.8324,1.8324,0,0,0-2.3327.3967,11.1651,11.1651,0,0,1-10.8949,4.7614c-2.5424-.4248-4.9024-1.5362-7.5263-1.4766a14.9772,14.9772,0,0,0-5.4781,1.4112c-1.7723.7587-3.4549,1.7135-5.2363,2.4515-1.4751.611-3.1548,1.11-4.6855.401-3.28-1.518-2.6558-5.9937-.8259-8.4015,3.1947-4.2036,9.8275-2.8293,14.2529-2.0269l-.9057-1.3008c-2.9873,7.6709-11.0514,10.7956-18.7271,11.4339-9.9955.8311-19.4934-2.7288-29.22-4.3841-6.215-1.0577-12.5951-1.3184-18.698.4946l1.6042.3984c-4.4838-6.94-15.789-13.7357-10.4434-23.2868,2.6007-4.6468,7.7111-7.015,12.8308-7.5137a42.0407,42.0407,0,0,1,9.142.2876,56.3508,56.3508,0,0,1,8.5616,1.4054,8.85,8.85,0,0,1,5.7513,4.3135,10.9734,10.9734,0,0,1,.9483,6.6229c-.7615,5.1142-4.8256,8.91-8.9127,11.6592-9.08,6.1084-19.9563,9.194-30.7139,10.5806-12.4672,1.607-25.0889,1.1614-37.6107.5968a1.8523,1.8523,0,0,0-1.8812.9088.9693.9693,0,0,0,.9057,1.3009A251.9127,251.9127,0,0,0,60.517,63.8644q7.4274-1.0218,14.786-2.4782c.9131-.18,1.8337-1.689.5431-2.0714L46.38,50.5826l-.168,1.9306a114.2406,114.2406,0,0,1,29.63-9.4417l-.9392-1.9644L62.3849,47.2665c-1.7684.87-.1962,2.5669,1.3143,1.8236Z" fill="#fbc926"/></svg>