<svg xmlns="http://www.w3.org/2000/svg" viewBox="0 0 70.8661 70.8661"><g id="Third_Eye" data-name="Third Eye"><path d="M58.82,11.8266,11.5431,59.1038A33.43,33.43,0,0,0,58.82,11.8266ZM56.0693,42.7624l.0009.0244,0,1.2959q-.0008,1.8339.0029,3.6689a1.1733,1.1733,0,0,1-.439,1.0313,17.6505,17.6505,0,0,0-4.71,5.6894,27.42,27.42,0,0,1-3.4883,4.9854,4.2451,4.2451,0,0,0-.9121,2.4609c-.1,1.0752-.8262,1.2539-1.4995,1.3369a2.5933,2.5933,0,0,1-.3067.02A1.47,1.47,0,0,1,43.21,62.1442a6.6653,6.6653,0,0,1,.6929-5.1855c.1152-.2334.2387-.462.3623-.6905a5.3205,5.3205,0,0,0,.8867-2.6953c-.0318-1.1377-.4209-1.5517-1.4868-1.583-.9053-.0264-1.8277-.02-2.7193-.0137-.6958.0069-1.393.0108-2.0908.001a3.1284,3.1284,0,0,1-2.5576-1.0879,2.2646,2.2646,0,0,1-.6333-1.5927,1.6261,1.6261,0,0,1,.4717-1.0352,1.2689,1.2689,0,0,0,.3715-.7363,1.489,1.489,0,0,0-.3071-.98,1.5134,1.5134,0,0,1-.2969-1.2373,1.3628,1.3628,0,0,1,.5728-.77c.19-.1465.3-.2383.34-.4356.07-.3486-.1787-.6484-.4668-.997a1.7528,1.7528,0,0,1-.582-1.3965,1.3728,1.3728,0,0,1,.66-.8838c.268-.1973.4345-.332.4746-.5947a1.11,1.11,0,0,0-.3389-.8272,1.402,1.402,0,0,1-.4023-1.0976c.1172-.6934.9175-1.0313,2.0249-1.4981a14.5281,14.5281,0,0,1,2.0464-.623c.5966-.1446,1.1728-.2657,3.0112-.5967l.8945-.1621c.605-.1094.8189-.1485.9014-.1553a25.5082,25.5082,0,0,1,7.8066.959q.5912.1362,1.1836.2685c.979.2178,1.4634.3252,1.7461.6778a2.26,2.26,0,0,1,.291,1.75l-.0112.1074A18.7388,18.7388,0,0,0,56.0693,42.7624Zm6.2046,6.6445c-.0533,0-.1084-.002-.1665-.0068-.5015-.0342-1.021-.0244-1.5249-.0186-.2266.0039-.4532.0078-.68.0078h-.25v-.081l-.459-.002c-.5518-.0049-1.104-.0068-1.6548.0088a.7376.7376,0,0,1-.86-.8564q.0221-5.9283.0078-11.8565a.7767.7767,0,0,1,.8584-.8779q1.3308-.0249,2.6622-.0713a.8663.8663,0,0,1,.8681.5586c1.5249,3.6631,2.8721,7.6465,2.4033,11.9619C63.412,48.7878,63.2128,49.4069,62.2739,49.4069Z" fill="#fbc926" opacity="0.65"/><path d="M35.4331,69.1124a33.68,33.68,0,1,1,33.68-33.68A33.7178,33.7178,0,0,1,35.4331,69.1124Zm0-66.8594a33.18,33.18,0,1,0,33.18,33.18A33.2175,33.2175,0,0,0,35.4331,2.253Z" fill="#fbc926" opacity="0.65"/><g opacity="0.65"><path d="M23.4478,34.77c-.81,0-1.2813-.0322-1.3326-.0361a49.5194,49.5194,0,0,1-5.5693-1.458l-.3325-.1016a1.2339,1.2339,0,0,1-.9727-1.3222c.0166-2.8994.0171-6.0557.0025-9.9317a1.4575,1.4575,0,0,1,.6425-1.2773,17.429,17.429,0,0,0,4.9551-5.7119,23.8751,23.8751,0,0,1,3.3775-4.6045,3.9623,3.9623,0,0,0,.896-2.36c.1381-1.3007,1.1425-1.41,1.7426-1.4746l.127-.0146a1.7157,1.7157,0,0,1,1.9287,1.334,7.3908,7.3908,0,0,1-.958,5.7021l-.1978.3447a5.0439,5.0439,0,0,0-.9116,2.4834c-.001,1.1153.2534,1.3965,1.36,1.503.0566.0048.1157.0078.1743.0078l2.335.001c.2983.0166.5932.0126.896.0078a9.481,9.481,0,0,1,1.9707.1064,3.1441,3.1441,0,0,1,2.2905,1.669A2.5543,2.5543,0,0,1,36,21.0294a2.0027,2.0027,0,0,1-.5474,1.0449.7278.7278,0,0,0-.229.3721c-.0468.2275.044.3857.2359.6934a2.02,2.02,0,0,1,.4028,1.47,1.62,1.62,0,0,1-.4746.9228.5536.5536,0,0,0-.2007.36c-.0293.2617.0933.4424.312.7392a1.8061,1.8061,0,0,1,.4727,1.3653,1.8607,1.8607,0,0,1-.6646,1.1221c-.2089.2011-.2583.2656-.2509.3271.0063.0566.0415.1006.1967.2461a1.4283,1.4283,0,0,1,.5235.8945,1.91,1.91,0,0,1-.7832,1.5889,7.2018,7.2018,0,0,1-3.2759,1.7129A41.8608,41.8608,0,0,1,23.4478,34.77Z" fill="#fbc926"/><path d="M27.2275,6.962a1.7407,1.7407,0,0,0-.1865.0108l-.1289.0146c-.706.0772-1.2119.1963-1.3008,1.0313A4.4189,4.4189,0,0,1,24.5825,10.67a23.2827,23.2827,0,0,0-3.3061,4.5069,17.9174,17.9174,0,0,1-5.0972,5.87.96.96,0,0,0-.436.8711c.0146,3.8779.0141,7.0351-.0025,9.9355a.7477.7477,0,0,0,.6187.8418l.33.1006a49.365,49.365,0,0,0,5.4887,1.4424c.0225,0,.4776.0312,1.27.0312a41.3733,41.3733,0,0,0,8.1665-.87,6.6719,6.6719,0,0,0,3.0317-1.583c.48-.4619.6748-.8232.6338-1.1709a.9467.9467,0,0,0-.3682-.5869.894.894,0,0,1-.353-.5557c-.0371-.3222.166-.5175.4014-.7441a1.3982,1.3982,0,0,0,.5151-.8271,1.343,1.343,0,0,0-.3784-1.003A1.4833,1.4833,0,0,1,34.69,25.837a1.029,1.029,0,0,1,.3286-.6416,1.1448,1.1448,0,0,0,.35-.6621,1.5581,1.5581,0,0,0-.3325-1.1279,1.3668,1.3668,0,0,1-.3023-1.0586,1.2031,1.2031,0,0,1,.3438-.6025,1.5291,1.5291,0,0,0,.4316-.8086,2.03,2.03,0,0,0-.1-1.11,2.64,2.64,0,0,0-1.9209-1.3672,8.8344,8.8344,0,0,0-1.8257-.0986c-.3594.0068-.666.01-.9624-.0068l-2.32-.001c-.0732,0-.148-.003-.2207-.01-1.3574-.1318-1.8145-.6367-1.8135-2.001a5.4057,5.4057,0,0,1,.9785-2.7324l.1963-.3428a6.9169,6.9169,0,0,0,.9092-5.3281A1.2,1.2,0,0,0,27.2275,6.962Z" fill="#fbc926"/><path d="M11.9985,34.338c-2.0761,0-2.3232-.3193-3.0888-2.543a23.21,23.21,0,0,1-1.5655-9.8545,2.2192,2.2192,0,0,1,.6416-1.6015A1.8558,1.8558,0,0,1,9.44,20.0519a28.8248,28.8248,0,0,0,3.2481.1631l.69.0087a1.0586,1.0586,0,0,1,1.1665,1.212c-.0146,1.4257-.0122,2.8486-.01,4.2714l.0014,2.08h-.0161l-.001,1.0869c-.0024,1.4209-.0049,2.8418.0108,4.2627a1.2215,1.2215,0,0,1-.3242.9463,1.1366,1.1366,0,0,1-.9014.2451,4.0089,4.0089,0,0,0-.5083-.0009l-.251.0068C12.3472,34.337,12.166,34.338,11.9985,34.338Z" fill="#fbc926"/><path d="M9.0181,20.5235a1.1088,1.1088,0,0,0-.72.2061,1.83,1.83,0,0,0-.4561,1.26,22.76,22.76,0,0,0,1.5405,9.6435c.7061,2.05.8028,2.2051,2.6162,2.2051.1656,0,.3438-.001.5362-.0039l.2441-.0068a4.4238,4.4238,0,0,1,.57.0029.6585.6585,0,0,0,.5191-.1152.7787.7787,0,0,0,.1626-.5723c-.0157-1.4229-.0132-2.8457-.0108-4.2686l.0171-1.5869-.0014-1.58c-.0025-1.4248-.0049-2.85.01-4.2763.0049-.5137-.1714-.6983-.6743-.7071l-.6772-.0087a29.378,29.378,0,0,1-3.3164-.167A2.8427,2.8427,0,0,0,9.0181,20.5235Z" fill="#fbc926"/></g></g></svg>