<svg id="Chakra" xmlns="http://www.w3.org/2000/svg" viewBox="0 0 70.8661 70.8661"><path d="M2.2336,36.1029a50.3192,50.3192,0,0,1,.27-5.3664A26.3931,26.3931,0,0,1,3.4754,26.08a28.4595,28.4595,0,0,1,2.96-6.82c.5554-.8764,1.03-1.8063,1.6159-2.6605a34.7256,34.7256,0,0,1,2.3179-3.0062c.6275-.7289,1.2886-1.4261,1.9652-2.1062a21.8663,21.8663,0,0,1,2.4226-2.13,31.7065,31.7065,0,0,1,3.7159-2.4543c1.3472-.7367,2.7122-1.4282,4.1284-2.0393a32.7488,32.7488,0,0,1,6.0427-1.8982c1.1122-.2421,2.2532-.3575,3.3843-.5065a33.1153,33.1153,0,0,1,4.92-.236,30.0433,30.0433,0,0,1,5.2608.6268,28.868,28.868,0,0,1,6.418,2.095,47.0174,47.0174,0,0,1,4.6354,2.42,28.4267,28.4267,0,0,1,2.7238,1.9409,20.9168,20.9168,0,0,1,1.8453,1.5672,31.2763,31.2763,0,0,1,2.4512,2.589c.6394.783,1.285,1.5612,1.8844,2.3741.6067.823,1.2352,1.6274,1.7789,2.5016a26.1422,26.1422,0,0,1,1.8219,3.4252,29.228,29.228,0,0,1,1.9169,5.99c.2319,1.1829.472,2.3646.6524,3.5551a22.297,22.297,0,0,1,.2819,4.6c-.064,1.14-.0238,2.2834-.1574,3.4232a39.3114,39.3114,0,0,1-1.251,5.9011c-.2121.7665-.4937,1.508-.7105,2.2719a10.8487,10.8487,0,0,1-.6175,1.2767,25.3452,25.3452,0,0,1-1.675,3.5027,41.3048,41.3048,0,0,1-3.1634,4.3981,25.1552,25.1552,0,0,1-2.4892,2.6632c-.693.6213-1.38,1.2537-2.1276,1.82-1.195.905-2.3793,1.8262-3.6134,2.6751a11.2372,11.2372,0,0,1-2.4559,1.3334c-.7913.2928-1.55.6742-2.318,1.0292a29.8,29.8,0,0,1-6.15,1.9254,27.4275,27.4275,0,0,1-5.7355.5215,32.7245,32.7245,0,0,1-6.2416-.4887A42.8284,42.8284,0,0,1,25.0739,67.07a29.2935,29.2935,0,0,1-3.6924-1.4067,31.6693,31.6693,0,0,1-2.9657-1.5352c-1.214-.7264-2.3689-1.5323-3.5083-2.3646a25.26,25.26,0,0,1-3.8461-3.5265c-.7224-.8011-1.4153-1.63-2.067-2.4806a27.1894,27.1894,0,0,1-2.9656-4.44c-.4759-.966-1.0016-1.908-1.42-2.9019A26.8958,26.8958,0,0,1,3.64,45.6608a40.5717,40.5717,0,0,1-1.2316-5.896A21.79,21.79,0,0,1,2.2336,36.1029Zm.3526-.1472a25.62,25.62,0,0,0,.1013,3.13,47.3253,47.3253,0,0,0,1.0688,5.6283,20.1372,20.1372,0,0,0,.8846,2.7822,26.8612,26.8612,0,0,0,1.3837,3.038c.3952.7051.7944,1.4132,1.1941,2.118a33.5071,33.5071,0,0,0,2.6359,3.5995,32.5072,32.5072,0,0,0,2.7313,3.07,23.084,23.084,0,0,0,2.56,2.1546,38.1823,38.1823,0,0,0,3.5289,2.4077A31.1183,31.1183,0,0,0,21.62,65.3755c1.1439.528,2.3314.9313,3.5085,1.3629a22.69,22.69,0,0,0,4.1122.9788,34.4462,34.4462,0,0,0,7.0042.6037,37.5758,37.5758,0,0,0,4.1021-.3024A28.51,28.51,0,0,0,46.7749,66.34c.4653-.1863.9016-.43,1.3738-.6a30.02,30.02,0,0,0,3.05-1.34,22.1751,22.1751,0,0,0,3.3763-2.2814c1.0875-.8146,2.1447-1.6658,3.1608-2.5733a28.1087,28.1087,0,0,0,2.6793-2.701,33.6562,33.6562,0,0,0,3.1628-4.2544,18.1546,18.1546,0,0,0,1.3034-2.3947c.2793-.6616.5178-1.3434.8334-1.9849a10.449,10.449,0,0,0,.7462-1.6809c.3985-1.38.8283-2.7526,1.1135-4.162a22.1361,22.1361,0,0,0,.6085-4.5688c-.0053-.6669-.0126-1.3345.0477-2.0024a13.0518,13.0518,0,0,0-.0212-2.88c-.2053-1.5646-.4245-3.126-.7769-4.6661A29.2692,29.2692,0,0,0,66.42,24.346a35.32,35.32,0,0,0-2.0813-4.67,34.0237,34.0237,0,0,0-2.5738-3.7736c-.6284-.8425-1.2986-1.652-1.9882-2.4488a27.6562,27.6562,0,0,0-3.1085-3.1184,33.8878,33.8878,0,0,0-3.0126-2.2614,31.9638,31.9638,0,0,0-3.7978-2.182,31.9811,31.9811,0,0,0-5.1334-2.06A28.0888,28.0888,0,0,0,40.53,2.8862a28.8907,28.8907,0,0,0-6.45-.25c-1.0339.103-2.0786.1311-3.1027.2923a36.113,36.113,0,0,0-4.959,1.0656,33.7944,33.7944,0,0,0-5.0408,1.9673,33.1041,33.1041,0,0,0-3.913,2.21c-.9363.63-1.8753,1.2585-2.743,1.9775a31.4877,31.4877,0,0,0-3.7894,3.8212A37.6,37.6,0,0,0,6.238,20.34a27.4742,27.4742,0,0,0-1.9519,4.4733A27.3184,27.3184,0,0,0,3.07,29.26,36.6437,36.6437,0,0,0,2.5862,35.9557Z" fill="#fbc926"/><path d="M4.0828,35.2342A29.9254,29.9254,0,0,1,4.37,30.7414a27.1874,27.1874,0,0,1,.8044-3.9043,29.4569,29.4569,0,0,1,1.5768-4.4456,16.4821,16.4821,0,0,1,1.3047-2.3082c.4457-.6744.8095-1.3973,1.2718-2.0628.5329-.767,1.0464-1.5462,1.6235-2.2827a28.3184,28.3184,0,0,1,2.9928-3.2512c.6618-.6166,1.3558-1.2022,2.0607-1.7744.5777-.4689,1.1659-.9134,1.7862-1.3221a23.9563,23.9563,0,0,1,3.0952-1.6894c.9658-.4494,1.92-.9255,2.9177-1.2993.9489-.3556,1.9464-.5615,2.9109-.8671a24.8519,24.8519,0,0,1,5.1122-.8592,15.1981,15.1981,0,0,1,2.1861-.14,44.82,44.82,0,0,1,9.5,1.0859,29.9969,29.9969,0,0,1,5.4946,1.9548,32.2806,32.2806,0,0,1,3.8273,2.0582,22.6623,22.6623,0,0,1,3.4152,2.7353,39.7228,39.7228,0,0,1,2.7928,2.9685,40.6629,40.6629,0,0,1,2.973,4.1415A27.1719,27.1719,0,0,1,64.23,23.9587a30.0464,30.0464,0,0,1,1.5429,5.3024,37.3683,37.3683,0,0,1,.5626,5.5065,18.8574,18.8574,0,0,1-.1328,3.1434c-.1343,1.12-.2307,2.2439-.44,3.3562-.2439,1.2988-.508,2.5893-.8352,3.8718a18.94,18.94,0,0,1-2.5809,5.5977c-1.1,1.7-2.3038,3.3315-3.5175,4.9536a12.2269,12.2269,0,0,1-1.5789,1.6217c-.6872.6327-1.3467,1.2962-2.0464,1.9165-.7965.706-1.6506,1.3367-2.5056,1.97-.6714.497-1.39.9147-2.0944,1.3537-.5967.3717-1.2522.6475-1.8684.99a20.1581,20.1581,0,0,1-3.157,1.31,19.5261,19.5261,0,0,1-4.2167,1.02c-.98.1132-1.9477.3182-2.9334.3856a25.1683,25.1683,0,0,1-4.1952.0006c-1.8343-.1823-3.6789-.291-5.5015-.5716a21.5415,21.5415,0,0,1-3.9709-1.02A35.32,35.32,0,0,1,21.34,63.192c-1.1323-.5445-2.2259-1.1633-3.3151-1.7918a17.6357,17.6357,0,0,1-2.7935-2.0135A32.8419,32.8419,0,0,1,12.3535,56.5a42.9958,42.9958,0,0,1-2.95-3.7418A26.9253,26.9253,0,0,1,7.256,49.255a19.518,19.518,0,0,1-1.1745-2.8372c-.21-.66-.4413-1.3131-.6516-1.9729a27.5976,27.5976,0,0,1-.68-2.9565c-.2559-1.27-.48-2.5408-.6193-3.8287C4.043,36.8505,4.1187,36.0418,4.0828,35.2342Zm3.8924-6.3905a.1864.1864,0,0,0-.1585.12,19.5262,19.5262,0,0,1-1.0761,1.6846,6.3845,6.3845,0,0,0-1.0949,2.2727,22.2711,22.2711,0,0,0-.546,3.022,1.053,1.053,0,0,0,.2073.8216A10.7944,10.7944,0,0,1,6.8,39.119,12.7716,12.7716,0,0,1,7.909,44.1156a1.0987,1.0987,0,0,0,.1869.5768,19.9174,19.9174,0,0,0,2.755,3.3923,15.1241,15.1241,0,0,0,4.9224,3.2271,17.185,17.185,0,0,0,5.4869,1.42,19.55,19.55,0,0,0,2.498.0259.9439.9439,0,0,0,.943-.8608,3.0706,3.0706,0,0,1,.7106-1.35,8.0337,8.0337,0,0,1,1.897-1.4908,32.1341,32.1341,0,0,0,3.941-2.3028,11.5535,11.5535,0,0,0,3.0485-3.5088c.0965-.1744.0987-.533.37-.4467.3017.0961.1573.4258.1015.6458a10.071,10.071,0,0,1-1.717,3.66c-.1347.1777-.1111.2855.0738.4006a5.2526,5.2526,0,0,1,1.3957,1.467.2453.2453,0,0,1,.0169.3422c-.1949.2533-.3544.53-.5725.7706-.227.2509-.5285.4065-.749.6586-.1131.1293-.2349.1895.02.36a8.9291,8.9291,0,0,1,1.3222,1.04.4108.4108,0,0,1,.0723.6278,5.4732,5.4732,0,0,1-1.3891,1.3179c-.2574.1749-.28.2765-.0435.5142a4.8452,4.8452,0,0,1,1.2925,1.4552.4653.4653,0,0,1-.1081.6138A5.6974,5.6974,0,0,1,32.91,57.7042c-.2473.104-.2355.2127-.0958.3945A10.3313,10.3313,0,0,1,34.45,61.3034a15.4077,15.4077,0,0,1,.5216,2.2483c.0215.1352.0522.3186-.1137.37-.1722.0538-.1941-.1439-.2349-.2464a9.3575,9.3575,0,0,0-1.31-2.1222,11.422,11.422,0,0,0-3.1349-2.6819c-.7763-.4941-1.6028-.9106-2.4163-1.3441a7.64,7.64,0,0,1-2.9737-2.4936.3223.3223,0,0,0-.33-.1526,20.4812,20.4812,0,0,1-5.3055-.5459,9.4417,9.4417,0,0,1-3.3907-1.2045A29.3092,29.3092,0,0,1,11.53,50.1979a37.1813,37.1813,0,0,1-2.71-2.5681c-.1106-.1137-.2065-.2641-.4217-.2851a1.7976,1.7976,0,0,0,.31,1.0518c.833,1.0248,1.6172,2.0888,2.4882,3.0832a17.9136,17.9136,0,0,0,3.2312,2.8343A30.6172,30.6172,0,0,0,17.6192,56.07a3.7675,3.7675,0,0,0,2.6739.4324,1.045,1.045,0,0,1,1.2794.5308.275.275,0,0,0,.3616.135,5.8827,5.8827,0,0,1,2.63-.0658,7.6176,7.6176,0,0,1,3.0376,1.0161,20.9807,20.9807,0,0,1,2.1325,1.6379,9.0708,9.0708,0,0,1,1.9575,2.35c.361.5927.6511,1.2219,1.0162,1.81.0742.1194.2148.2179.1074.3677-.1017.1421-.2552.073-.3916.0419a9.063,9.063,0,0,0-1.31-.306c-1.3674-.106-2.746-.1381-4.0992-.34a11.652,11.652,0,0,1-5.9492-2.2979,2.3609,2.3609,0,0,1-1.0223-1.881c.0013-.127.0113-.3295-.1324-.3216a1.3249,1.3249,0,0,1-1.244-.7847c-.0183-.03-.0625-.0437-.0957-.0634a25.5519,25.5519,0,0,0-2.664-1.4244,11.35,11.35,0,0,1-3.4215-2.3189c-.93-.9224-1.8306-1.8735-2.745-2.8113a1.2217,1.2217,0,0,0-.4522-.3508c-.0927-.032-.2072-.1134-.2865-.0222-.0844.0971.0189.1952.0778.27.8754,1.1043,1.5892,2.324,2.5113,3.399A37.3361,37.3361,0,0,0,16.09,59.5857a27.036,27.036,0,0,0,4.9925,3.0889,32.6657,32.6657,0,0,0,3.0821,1.3924,21.6532,21.6532,0,0,0,4.083,1.2079,59.2116,59.2116,0,0,0,6.045.578c.5771.0422,1.1515-.0355,1.7253.0489a12.1166,12.1166,0,0,0,2.6835-.0625,33.4171,33.4171,0,0,0,4.6362-.6958,29.8533,29.8533,0,0,0,4.0446-1.3329,16.2917,16.2917,0,0,0,1.9867-1.012,29.1455,29.1455,0,0,0,3.3418-2.0557,31.6553,31.6553,0,0,0,2.942-2.4123c.7237-.6733,1.4606-1.3323,2.1793-2.0091A17.2886,17.2886,0,0,0,59.7968,53.81c.7029-.9633,1.3812-1.9445,2.0678-2.92.0609-.0864.1984-.2095.0693-.2863a.2966.2966,0,0,0-.3971.1259,15.0892,15.0892,0,0,1-1.8921,2.2175,27.1112,27.1112,0,0,1-3.8759,3.1484c-1.1252.76-2.2731,1.4867-3.4291,2.1987a20,20,0,0,1-3.0789,1.5691,2.9774,2.9774,0,0,0-1.2275.7874.8985.8985,0,0,1-1.2954.24c-.1842-.1347-.2186.0234-.2509.1467a3.07,3.07,0,0,1-.4557,1.0134A7.28,7.28,0,0,1,40.7672,65.01c-.3791.05-.77-.001-1.1542.0231a9.7217,9.7217,0,0,1-3.3158-.2761c-.1189-.034-.28-.0263-.31-.1833a.3775.3775,0,0,1,.1891-.356,8.4,8.4,0,0,0,.918-.9809c.372-.4138.5691-.9448.9423-1.3536.8027-.8794,1.4876-1.8548,2.363-2.6811a5.1578,5.1578,0,0,1,2.9123-1.5137c1.1764-.1523,2.2749-.0365,2.9174,1.1762.0908.1712.18.1858.2921-.0067a1.0606,1.0606,0,0,1,.9554-.6212,2.178,2.178,0,0,0,1.2405-.4058c.1134-.06.2366-.1011.351-.1592.742-.3767,1.4911-.74,2.222-1.1378.9683-.5264,1.9229-1.078,2.8819-1.6216.8929-.5062,1.8307-.95,2.6648-1.5391a15.4723,15.4723,0,0,0,3.7055-3.5494,4.3081,4.3081,0,0,0,.6709-.9841c-.5836.5347-1.0863,1.0663-1.6593,1.5062a19.1411,19.1411,0,0,1-4.7168,2.3844c-1.3836.5515-2.8047.9889-4.2257,1.4287a30.73,30.73,0,0,1-3.5075,1.0024,2.8821,2.8821,0,0,1-1.26.0369c-.1825-.0474-.2519.0423-.3344.1709a3.99,3.99,0,0,1-1.9679,1.5351,13.3755,13.3755,0,0,0-3.0009,1.625,16.7486,16.7486,0,0,0-2.222,2.0674,17.9293,17.9293,0,0,0-2.1632,2.9355c-.0619.101-.0992.2285-.2416.2-.18-.0353-.147-.1973-.1285-.3146a7.8625,7.8625,0,0,1,.4473-1.7083A10.1539,10.1539,0,0,1,38.13,58.9758c.2982-.3485.2916-.3891-.1588-.5306a5.3,5.3,0,0,1-2.2025-1.1331.4081.4081,0,0,1-.03-.6585,6.5647,6.5647,0,0,1,1.9851-1.73c.2262-.1112.2438-.2909.0037-.3888a13.7242,13.7242,0,0,1-1.5259-.9572c-.4512-.2561-.45-.56-.0053-.8356.3485-.2162.6918-.4453,1.0583-.6265.3238-.16.2514-.2489-.0015-.3933a5.26,5.26,0,0,1-1.7041-1.5812c-.2846-.406-.2706-.4978.105-.7872a5.3207,5.3207,0,0,1,1.5933-.9892c.1395-.0441.2381-.0835.11-.2615a10.9409,10.9409,0,0,1-1.08-2.2035,6.157,6.157,0,0,1-.2733-1.47c-.0189-.118-.0074-.2528.1445-.2685s.1284.1265.1506.22a3.24,3.24,0,0,0,.1718.5066,5.5268,5.5268,0,0,0,1.4983,1.8307c.46.43.9854.7769,1.4736,1.1711a14.3291,14.3291,0,0,0,2.3956,1.5984c.6947.3607,1.4387.6321,2.1022,1.0351a3.786,3.786,0,0,1,1.83,2.3784c.0577.2429.1926.3211.42.2488a8.91,8.91,0,0,1,2.0912-.2607,21.4153,21.4153,0,0,0,4.7081-.926,21.9311,21.9311,0,0,0,2.6934-1.0237,16.732,16.732,0,0,0,2.6132-1.3723,12.361,12.361,0,0,0,2.41-2.1343c.3355-.3913.7805-.7426.7985-1.3208a6.3574,6.3574,0,0,1,.2968-1.3065c.0994-.411.3125-.7808.4115-1.1977-.4005.1949-.7584.4174-1.1232.628a.5972.5972,0,0,0-.3319.6888,1.8888,1.8888,0,0,1-.8467,2.0037,1.9088,1.9088,0,0,1-1.2608.212c-.1737-.02-.4078-.1133-.4951.0815-.2381.5313-.7554.9244-.7592,1.5733-.0017.2965-.21.3974-.45.2627a4.1618,4.1618,0,0,0-1.6107-.3115.426.426,0,0,0-.5236.33,1.4732,1.4732,0,0,1-.2572.5135,1.6758,1.6758,0,0,1-2.2086.2556.46.46,0,0,0-.64.0789c-.3977.4375-.9111.7526-1.2782,1.2232a.3822.3822,0,0,1-.5982.1024c-.4884-.377-1.0249-.6812-1.543-1.0135a.3229.3229,0,0,0-.4631.0169,1.739,1.739,0,0,1-2.66-.71c-.0851-.2476-.2631-.29-.4891-.2562a6.7155,6.7155,0,0,0-1.6193.3237c-.1989.0821-.3451.0329-.3732-.1794a5.0352,5.0352,0,0,0-.7719-1.6645.685.685,0,0,0-.697-.4112,1.2733,1.2733,0,0,1-1.4325-1.23.5639.5639,0,0,0-.4545-.5048,8.7148,8.7148,0,0,0-1.314-.293c-.2274-.024-.366-.1173-.3159-.3731.1411-.7206.124-1.4563.2092-2.182.0668-.5678.0637-.5771-.4991-.6454a1.2955,1.2955,0,0,1-.1915-.02,1.9563,1.9563,0,0,1-1.1271-.5257c-.4953-.6022-.63-2.2955.1372-2.8009a.1976.1976,0,0,0,.0683-.32c-.2313-.3384-.4352-.6953-.6589-1.039-.2051-.3153-.2727-.3084-.4536.039a1.7932,1.7932,0,0,1-.62.7668c-.1644.1005-.1746.2285-.069.39a6.9411,6.9411,0,0,1,.5186,1.0694c.1318.3034.1324.5008-.2151.6291a2.081,2.081,0,0,0-.7038.4634c-.3162.3007-.6086.6313-.95.899-.27.2117-.2831.3771-.0817.6329a1.2367,1.2367,0,0,1,.005,1.399,1.51,1.51,0,0,1-1.8579.6922c-.1778-.0427-.3764-.1251-.4309.1418a2.8648,2.8648,0,0,0-.1,1.0289c.0592.373-.0631.5083-.4186.4025a5.7513,5.7513,0,0,0-1.4543-.0938c-.2277-.0092-.3251.0978-.323.3246a2.6866,2.6866,0,0,1-.2122,1.0888,1.3145,1.3145,0,0,1-1.9877.776c-.7049-.489-1.0254-.1094-1.4573.258-.0489.0416-.0911.0916-.1421.13a2.024,2.024,0,0,0-.8306,1.0718c-.0767.276-.2852.2264-.4263.0252a2.4332,2.4332,0,0,0-.6925-.659c-.21-.1343-.4014-.1582-.5331.116a2.0155,2.0155,0,0,1-.5649.6763,1.4338,1.4338,0,0,1-1.5071.4286,3.5057,3.5057,0,0,1-1.6182-1.2566c-.0575-.0842-.1033-.2043-.2266-.1749a9.9516,9.9516,0,0,0-2.144.41c-.3558.171-.4442.1265-.4888-.2763a3.0311,3.0311,0,0,0-.36-1.09c-.1422-.2688-.29-.3436-.5761-.1577a1.853,1.853,0,0,1-1.7711.1532,2.02,2.02,0,0,1-1.0509-1.948c.0171-.3358-.1042-.4717-.4163-.5026a4.32,4.32,0,0,1-.8609-.2008,5.7956,5.7956,0,0,0-1.9993-.5112c-.2714.0123-.3622-.1723-.2891-.4172a3.3154,3.3154,0,0,0,.0868-.7624,16.4205,16.4205,0,0,1-.0039-1.7666c.0351-.208-.0744-.3158-.2461-.4263a1.67,1.67,0,0,1-.7276-2.2385.3606.3606,0,0,0-.0825-.4725,3.7029,3.7029,0,0,1-.4991-.5694,3.1793,3.1793,0,0,0-1.3953-1.3314.2807.2807,0,0,1-.0984-.5,15.3853,15.3853,0,0,0,1.6494-2.4038.3521.3521,0,0,0,.0013-.4784A1.5894,1.5894,0,0,1,7.04,31.0624a2.5928,2.5928,0,0,1,.8307-.67c.1388-.083.2668-.1546.2565-.3436A5.7969,5.7969,0,0,0,7.9752,28.8437Zm1.006-8.6677c.1122-.0051.1517-.0907.2057-.1609A14.4151,14.4151,0,0,1,11.35,17.6789c.8268-.6887,1.6858-1.34,2.5444-1.9892,1.104-.8353,2.1871-1.7051,3.3418-2.4649a42.5158,42.5158,0,0,1,4.8278-2.773,3.1239,3.1239,0,0,1,1.4922-.57c.1321.006.1594-.1144.1905-.21a4.765,4.765,0,0,1,.9955-1.6277A7.1712,7.1712,0,0,1,28.85,5.6733,19.5574,19.5574,0,0,1,34.41,5.4661c.1021.0079.2234.0046.2614.12.0414.1255-.0808.17-.1578.2341a10.1519,10.1519,0,0,0-1.9067,2.25,25.6179,25.6179,0,0,1-1.586,2.21,7.797,7.797,0,0,1-3.9732,2.5691,2.4827,2.4827,0,0,1-2.2337-.31,3.6876,3.6876,0,0,1-.5971-.4836c-.1744-.1857-.26-.1635-.3987.0341a.8675.8675,0,0,1-.4634.3877,22.8876,22.8876,0,0,0-2.79.9588,16.2205,16.2205,0,0,0-2.4523,1.1905c-1.4695.9379-2.9409,1.8731-4.36,2.8913a22.9435,22.9435,0,0,0-3.8207,3.4936,1.4485,1.4485,0,0,0-.4507.6519c.0547-.0041.0868.0035.1008-.0091.124-.1115.2524-.22.3652-.3417a10.1245,10.1245,0,0,1,2.4686-1.8851,30.1856,30.1856,0,0,1,4.466-1.96,19.0622,19.0622,0,0,1,3.3-1.0133c1.412-.25,2.81-.59,4.24-.7367a.49.49,0,0,0,.4424-.2554,4.1954,4.1954,0,0,1,2.5179-1.8836,8.3658,8.3658,0,0,0,1.8-.9259,18.374,18.374,0,0,0,4.3093-4.5546A11.3858,11.3858,0,0,0,34.5583,6.41c.0469-.1.1064-.2491.237-.2123.1638.0462.0943.2106.0892.3322a.6349.6349,0,0,1-.0246.1127,14.162,14.162,0,0,1-2.3974,5.0821c-.2063.2867-.1344.3526.1527.42a6.6732,6.6732,0,0,1,1.9137.8877c.4317.2615.4746.5126.1619.9176A4.895,4.895,0,0,1,32.9824,15.47c-.3715.1793-.367.2458-.0295.5076A9.4384,9.4384,0,0,1,34.7,17.6468c.1233.16.2634.3962-.0073.462-.4625.1125-.7854.4671-1.2333.5982-.34.1-.3381.2263-.0529.4656.0684.0574.1483.1008.2212.1531a5.221,5.221,0,0,1,1.46,1.5662.4421.4421,0,0,1-.1067.6634,10.7159,10.7159,0,0,1-1.2956.8967c-.262.1614-.27.3127-.1217.5621a8.1591,8.1591,0,0,1,.9365,2.7546,2.1942,2.1942,0,0,1-.0162.8812c-.0241.105-.05.2459-.1938.2571-.1215.0094-.1752-.1-.2134-.1942A9.6539,9.6539,0,0,0,32.6791,24.6a9.1539,9.1539,0,0,0-2.8369-2.49,27.5318,27.5318,0,0,1-3.7391-2.1208,3.2451,3.2451,0,0,1-1.2741-1.8567c-.1038-.4713-.1376-.5512-.6147-.5315-.95.0392-1.8834.2228-2.8236.3507a18.7607,18.7607,0,0,0-4.6316,1.0912c-1.0989.4506-2.2068.8942-3.2614,1.4541A9.1591,9.1591,0,0,0,9.99,23.238a4.1266,4.1266,0,0,0-.8559,1.7761,8.9078,8.9078,0,0,1-.607,2.222c-.0283.0675-.1024.1412-.0214.2059.0719.0576.148-.0022.2061-.0488.3007-.2405.591-.4946.8989-.7251a.6846.6846,0,0,0,.26-.9107c-.3134-.8968-.173-1.551.4821-1.9434a1.8247,1.8247,0,0,1,1.6275-.1623c.182.0662.356.1274.4616-.0949a4.0376,4.0376,0,0,0,.607-1.6435c.0032-.17.0725-.3315.28-.2641a9.4686,9.4686,0,0,0,2.101.1434.619.619,0,0,0,.7836-.5547,1.028,1.028,0,0,1,.9411-.8368,1.6974,1.6974,0,0,1,1.4863.4669.2657.2657,0,0,0,.431.0034,8.0212,8.0212,0,0,0,1.4153-1.4029c.1149-.1921.2214-.2.3949-.0562.5642.4684,1.2317.7848,1.8228,1.2149a.2625.2625,0,0,0,.348-.0047,1.3845,1.3845,0,0,1,2.2391.7154c.0579.1824.1444.2612.3364.1564a5.5766,5.5766,0,0,1,1.6917-.3072c.1821-.0369.26.0873.311.2233a10.0078,10.0078,0,0,0,1.006,1.8106c.1256.1976.2223.2691.4559.1564a1.0362,1.0362,0,0,1,.963.0062,1.4467,1.4467,0,0,1,.8355,1.5459c-.0169.1974-.0382.3971.21.4741a7.8844,7.8844,0,0,0,1.2526.3657c.3525.0472.3783.1918.2916.4522a5.43,5.43,0,0,0-.1974,1.559c-.0291.8776-.0119.8855.8472.9455a1.5622,1.5622,0,0,1,1.55,1.3511,1.8755,1.8755,0,0,1-.3748,1.74c-.1019.1282-.2908.2907-.109.4688.3928.3847.8042.7508,1.2187,1.1123.0751.0655.2527.197.2925.09a4.0747,4.0747,0,0,1,.5611-.9934.1136.1136,0,0,0-.0164-.1072c-.3824-.3785-.3941-.9831-.817-1.3358-.2221-.1854-.1863-.3527.052-.48a2.147,2.147,0,0,0,.5536-.4667,5.5311,5.5311,0,0,1,1.1329-1.1312.343.343,0,0,0,.1537-.5322,1.4069,1.4069,0,0,1-.153-1.115,1.3088,1.3088,0,0,1,1.6107-.9635c.3393.0573.4174-.0588.3892-.351q-.039-.4028-.0785-.8052c-.02-.2038.0648-.3453.2756-.3224a11.0607,11.0607,0,0,0,1.724-.14c.547-.0251.5447-.02.6021-.5552.1488-1.3883,1.1712-1.8741,2.4387-1.3845a.3138.3138,0,0,0,.4246-.0887,4.4883,4.4883,0,0,1,.6625-.6428A3.1008,3.1008,0,0,0,46.4563,20.89c.13-.2889.2976-.3055.4857-.0562a3.926,3.926,0,0,0,1.2909,1.0741c.2271.1243.3356.12.4934-.0942a1.9,1.9,0,0,1,2.8758-.2783c.3987.3749.71.5645,1.2.2514a.6284.6284,0,0,1,.2628-.0522,2.1428,2.1428,0,0,0,1.0362-.38c.2715-.1912.4822-.1284.5457.1891a4.4112,4.4112,0,0,0,.6183,1.3158.5857.5857,0,0,0,.7883.3145,1.9743,1.9743,0,0,1,1.5679.0769,1.8218,1.8218,0,0,1,.9476,1.6894c.0146.3239.1269.4683.45.4822a3.6666,3.6666,0,0,1,.8251.1766,9.2841,9.2841,0,0,0,2.06.6074c.21.01.2409.2092.197.3889a10.5378,10.5378,0,0,0-.1309,2.34.417.417,0,0,0,.2522.4292,1.4605,1.4605,0,0,1,.8439,1.7132,1.1984,1.1984,0,0,0,.3417,1.4279.5737.5737,0,0,1,.0789.1317,6.8119,6.8119,0,0,0,1.2031,1.8647.2688.2688,0,0,1,.01.4386,9.967,9.967,0,0,0-1.2108,1.4866.4711.4711,0,0,0,.0141.7019,2.4184,2.4184,0,0,1,.4789,1.955,1.97,1.97,0,0,1-1.1629,1.4348c-.1638.095-.3149.1758-.29.4011.0462.421.0848.8428.1331,1.2636.0143.1244.0224.2881.1726.3091.1331.0185.1728-.14.2214-.2366.4207-.8339.8972-1.6358,1.2743-2.4966a9.8913,9.8913,0,0,0,.9708-3.539,4.0079,4.0079,0,0,0-.08-1.6781,9.7094,9.7094,0,0,0-.6933-1.2867,14.5375,14.5375,0,0,1-1.2327-2.6,10.6636,10.6636,0,0,1-.5058-3.4885,1.0117,1.0117,0,0,0-.1769-.6072c-.3-.4426-.6675-.8265-.989-1.2469a10.8225,10.8225,0,0,0-1.1155-1.2693C59.2355,22.83,57.827,21.78,56.456,20.6835a12.2193,12.2193,0,0,0-5.0774-2.3782,20.3145,20.3145,0,0,0-5.3368-.0783.3633.3633,0,0,0-.3482.2534,6.6581,6.6581,0,0,1-2.5331,3.06c-1.6576,1.1669-3.4183,2.1809-5.0481,3.39a6.8627,6.8627,0,0,0-2.0114,2.3812c-.1152.2211-.1359.66-.4283.56-.2629-.09-.142-.5016-.0637-.7676a10.5345,10.5345,0,0,1,1.877-3.6292c.2557-.3208.249-.3342-.1291-.4985a4.316,4.316,0,0,1-1.5005-1.0406.566.566,0,0,1-.0675-.7588,3.292,3.292,0,0,1,1.5982-1.4929c.075-.0323.1892-.0546.1763-.1735-.0093-.0856-.0909-.1179-.1631-.146a5.2144,5.2144,0,0,1-1.6836-1.1809c-.33-.3159-.3431-.3726-.015-.69a7.7131,7.7131,0,0,1,1.4535-1.1839c.1444-.0841.3735-.22.0414-.3636a4.5455,4.5455,0,0,1-1.6225-1.4392c-.2353-.2838-.2091-.5159.0966-.7013a4.5917,4.5917,0,0,1,1.6664-.758c.1641-.0249.3842-.0681.1484-.2985a6.2735,6.2735,0,0,1-1.3623-2.2978,7.5648,7.5648,0,0,1-.5721-3.0059c.0032-.1074-.0508-.2654.0956-.3.1672-.0394.2033.1288.2429.2432a4.7258,4.7258,0,0,0,.9108,1.42,14.0944,14.0944,0,0,0,4.174,3.41,23.4208,23.4208,0,0,1,3.3344,2.0333,3.5172,3.5172,0,0,1,1.4024,1.5886c.06.1824.2125.1557.3538.1409a8.8889,8.8889,0,0,1,1.842.0093,24.3,24.3,0,0,1,5.6438,1.11,10.4506,10.4506,0,0,1,2.543,1.1682,23.3,23.3,0,0,1,2.736,2.1133,21.2126,21.2126,0,0,1,3.2645,3.7715c.08.1214.1645.3542.3135.2653.1641-.0979-.02-.2734-.0854-.3985-.4038-.773-.9254-1.4744-1.3475-2.2391a14.5166,14.5166,0,0,0-2.2934-3.0754,18.1548,18.1548,0,0,0-5.2633-3.624,4.7882,4.7882,0,0,0-3.4376-.7468.978.978,0,0,1-1.0871-.5c-.1247-.2071-.2588-.1952-.4472-.0826a2.5988,2.5988,0,0,1-1.7455.3069,10.7465,10.7465,0,0,1-3.9267-1.51,16.8111,16.8111,0,0,1-3.7863-3.2418,6.787,6.787,0,0,1-1.47-2.55c-.1358-.4183-.0312-.54.3918-.424a4.0918,4.0918,0,0,0,1.1835.1231,21.7124,21.7124,0,0,1,4.4085.3346,10.7654,10.7654,0,0,1,5.2476,2.3093,3.5844,3.5844,0,0,1,1.2953,2.1689c.0477.3038.1519.37.4254.3425a.9586.9586,0,0,1,.94.409,1.7791,1.7791,0,0,0,.8875.6444c.5763.2166,1.1441.4557,1.72.6736a11.5367,11.5367,0,0,1,3.8892,2.7076c.6607.6417,1.28,1.3287,1.8986,2.0146a15.2415,15.2415,0,0,1,1.7421,2.1834A6.5886,6.5886,0,0,0,62.4,21.4765c.0692.07.1484.1788.2553.09.0854-.0709.0044-.1612-.0324-.2419a24.525,24.525,0,0,0-1.5874-2.72,25.4658,25.4658,0,0,0-1.9761-2.6894,31.8305,31.8305,0,0,0-4.8413-4.8165,23.2691,23.2691,0,0,0-3.8849-2.4778,29.4279,29.4279,0,0,0-6.0924-2.4364c-1.3184-.3343-2.6445-.6128-3.9753-.877a20.66,20.66,0,0,0-3.0671-.2262c-1.0369-.0491-2.0746-.2117-3.1076-.1808-1.3315.04-2.6652.1122-3.9937.2686a34.92,34.92,0,0,0-5.2732,1.26,20.2358,20.2358,0,0,0-3.1258,1.2833,28.879,28.879,0,0,0-3.9852,2.1564c-.858.5826-1.6289,1.2773-2.4284,1.9364a29.4356,29.4356,0,0,0-3.2011,3.1568,27.68,27.68,0,0,0-2.516,3.3435C9.2082,18.8555,8.7052,19.3939,8.9812,20.176ZM34.34,44.0119l-.1058-.0581c-.3416.4268-.6772.8587-1.0261,1.2795a12.1194,12.1194,0,0,1-2.7246,2.3546c-.9554.6284-1.9977,1.1028-3,1.6483A5.2348,5.2348,0,0,0,25.02,51.7815a3.428,3.428,0,0,0-.2977,2.3116,4.51,4.51,0,0,0,1.9988,2.5537c.909.5735,1.8453,1.1114,2.8053,1.5942a17.0848,17.0848,0,0,1,2.9887,2.09,4.098,4.098,0,0,1,.7408.77c.4109.5636.8544,1.1042,1.2621,1.7294a8.3735,8.3735,0,0,0-.9039-2.9286,11.04,11.04,0,0,0-1.56-2.312,6.5227,6.5227,0,0,0-2.9379-2.0581c-.1284-.0391-.3338-.019-.2986-.2145.032-.178.2286-.1185.3621-.1235a3.7342,3.7342,0,0,0,.9187-.072,10.8185,10.8185,0,0,0,2.2034-.78,6.0344,6.0344,0,0,0,1.9165-1.5158.3861.3861,0,0,0-.0511-.6244,6.9987,6.9987,0,0,0-.9391-.7259,6.8994,6.8994,0,0,0-3.7663-1.273c-.1177.0039-.2062-.03-.2317-.1517-.0331-.1578.089-.185.199-.23A6.58,6.58,0,0,0,31.43,48.5657a12.0475,12.0475,0,0,0,2.1768-2.7664A10.05,10.05,0,0,0,34.34,44.0119Zm1.58-35.9856c-.04.09-.0609.1128-.0585.1332A7.5908,7.5908,0,0,0,37.4993,12.26a9.7763,9.7763,0,0,0,3.4152,2.6759c.1148.0539.2577.0941.231.2628-.0283.1784-.183.1513-.3057.1584a7.3251,7.3251,0,0,0-2.5073.683,6.9718,6.9718,0,0,0-2.28,1.5339c-.2148.2231-.2412.3312-.03.5054a6.42,6.42,0,0,0,1.4519,1.0025A18.5966,18.5966,0,0,0,40.89,20.2377c.127.0285.3218.0211.3487.1866.03.1843-.1613.2414-.2871.32a10.1391,10.1391,0,0,0-2.0054,1.5429,12.7917,12.7917,0,0,0-2.1713,2.73c-.2739.5123-.4893,1.056-.7312,1.5854l.0845.0517A5.7461,5.7461,0,0,1,37.7,24.8962a36.2375,36.2375,0,0,1,3.3572-2.3094,13.4749,13.4749,0,0,0,3.4087-2.6456,4.046,4.046,0,0,0,1.1814-3.0281,2.5476,2.5476,0,0,0-.7279-1.8A14.5345,14.5345,0,0,0,42.1012,13.13a18.1965,18.1965,0,0,1-3.1975-1.9107A12.0962,12.0962,0,0,1,35.9194,8.0263ZM34.2743,26.2714c0-.1251.0055-.1724-.0007-.2182a8.8427,8.8427,0,0,0-1.837-4.2553A6.7027,6.7027,0,0,0,30.25,19.7458c-.2968-.1512-.6081-.274-.9121-.4112-.0839-.0378-.174-.0841-.1421-.1964.0381-.1338.135-.1124.2474-.0872a5.78,5.78,0,0,0,3.241-.2938c.5156-.1808.948-.5112,1.457-.6936.2644-.0947.2624-.278.1106-.4854a5.1872,5.1872,0,0,0-.8187-.8106A5.49,5.49,0,0,0,29.0977,15.09c-.1031.0118-.2218.0073-.276-.0938-.0615-.1149.0449-.1864.1138-.2582a9.2,9.2,0,0,1,.8321-.6805,13.7654,13.7654,0,0,0,3.8151-4.7133c.2533-.5355.4768-1.0851.7139-1.6283a.8064.8064,0,0,0-.4721.4017c-.4848.6615-.9564,1.3342-1.472,1.9711a12.2143,12.2143,0,0,1-1.59,1.6536,11.1693,11.1693,0,0,1-1.7617,1.3583,18.86,18.86,0,0,1-2.3041,1.06,2.2164,2.2164,0,0,0-1.5493,1.5367,6.6894,6.6894,0,0,0,.0445,2.5584,1.8424,1.8424,0,0,0,.5147.9693,9.5642,9.5642,0,0,0,3.0206,1.9865,10.966,10.966,0,0,1,4.6943,3.9031C33.6738,25.492,33.96,25.8468,34.2743,26.2714ZM36.2379,62.739c.2712-.0986.2246-.36.3536-.5156a28.6308,28.6308,0,0,1,2.7306-3.057,12.7562,12.7562,0,0,1,3.0926-2.0448,15.4943,15.4943,0,0,0,1.8768-.8905,1.84,1.84,0,0,0,1.0429-1.8971.67.67,0,0,1,.101-.4807,1.0737,1.0737,0,0,0,.0841-.9643,3.8459,3.8459,0,0,0-1.5025-1.9913,17.6078,17.6078,0,0,0-2.0521-1.0445,22.2072,22.2072,0,0,1-3.7258-2.56c-.6393-.5092-1.1731-1.1276-1.7649-1.6937a9.6126,9.6126,0,0,0,2.1685,3.829A6.26,6.26,0,0,0,40.6263,51.04c.1188.0518.326.0611.2912.245-.0311.1642-.2222.1454-.358.1533a8.62,8.62,0,0,0-4.1127,1.4775c-.3052.1919-.245.309.0043.4982a15.881,15.881,0,0,0,2.3043,1.3887,5.55,5.55,0,0,0,2.8239.7721c.11-.0049.2586-.0606.3184.0611.0776.158-.0913.2185-.1833.2928A26.1245,26.1245,0,0,0,37.4776,60.2,5.871,5.871,0,0,0,36.2379,62.739Zm10.31-49.01c1.4367-.0007,2.2783-.2078,2.6254-1.2677a.4551.4551,0,0,1,.13-.2327c.6962-.4644.4794-1.0622.2264-1.6405A5.0876,5.0876,0,0,0,47.51,8.531,9.1766,9.1766,0,0,0,45.275,7.5175a13.1576,13.1576,0,0,0-3.2623-.712c-1.3152-.0986-2.64.0614-3.9523-.1441-.1679-.0263-.25.0268-.1813.2146a6.6,6.6,0,0,0,1.2514,2.1431,18.6674,18.6674,0,0,0,2.021,1.9433A11.2885,11.2885,0,0,0,43.4635,12.6,7.72,7.72,0,0,0,46.5474,13.7288ZM23.3617,57.2266c-.2311,0-.4636-.0162-.693.0034a1.3487,1.3487,0,0,0-1.1638.5712,3.4947,3.4947,0,0,1-.9194,1.0138.859.859,0,0,0-.2847.9358,2.9138,2.9138,0,0,0,1.1367,1.5977,9.0443,9.0443,0,0,0,2.8391,1.4126,12.6029,12.6029,0,0,0,4.0591.7689c.4726.002.9453.0671,1.4172.1119a22.7577,22.7577,0,0,1,2.2845.3189c.1373.0273.4008.1039.2592-.2173a13.3436,13.3436,0,0,0-1.0563-1.961,12.2729,12.2729,0,0,0-2.3616-2.4533A8.4989,8.4989,0,0,0,23.3617,57.2266Zm15.8937,7.5872a7.8918,7.8918,0,0,0,4.9915-1.3815,4.5276,4.5276,0,0,0,1.9712-2.4239,2.3178,2.3178,0,0,0-1.6155-3.0523,3.8779,3.8779,0,0,0-2.8852.5717A10.8761,10.8761,0,0,0,39.48,60.5744c-.9957,1.1378-1.7729,2.4458-2.7874,3.5688-.1744.1931-.156.3033.1282.3926A9.2,9.2,0,0,0,39.2554,64.8138ZM26.1106,12.7085a6.2477,6.2477,0,0,0,3.0265-1.11,9.7184,9.7184,0,0,0,2.6368-2.8069A16.304,16.304,0,0,1,33.76,6.1037c.0739-.0715.215-.168.15-.2838s-.2253-.1021-.3536-.1055a22.6323,22.6323,0,0,0-4.1418.13,7.1874,7.1874,0,0,0-5.1137,3.2634,2.4525,2.4525,0,0,0-.0083,2.5289A2.0284,2.0284,0,0,0,26.1106,12.7085ZM58.0074,31.7357a1.051,1.051,0,0,0,.6733-.2523,3.3414,3.3414,0,0,1,1.4558-.566,1.4887,1.4887,0,0,0,1.4085-1.5262,15.8,15.8,0,0,1,.103-2.5657c.0323-.1584-.0334-.2309-.18-.2811-.5695-.1947-1.1328-.4075-1.7032-.5993a3.66,3.66,0,0,0-3.4793.3887,7.0172,7.0172,0,0,0-1.3551,1.45.79.79,0,0,0-.1729.746,7.2447,7.2447,0,0,1,.3755,1.6836c.0009.19.1078.2632.31.2067a2.1649,2.1649,0,0,1,1.0971.0752c.44.1023.7481.4811,1.1606.5641C58.1678,31.1535,58.3492,31.2781,58.0074,31.7357ZM10.3507,39.275c-.0111.0025.0875-.0248.1877-.0427a6.7122,6.7122,0,0,0,1.4652-.5618A.6.6,0,0,0,12.42,38.11a2.0574,2.0574,0,0,1,.308-1.1693c.145-.1748.1257-.2527-.0972-.339a2.802,2.802,0,0,1-1.27-.8959c-.208-.2717-.2721-.6341-.5856-.8432-.1221-.0814-.03-.2488.0984-.31a2.121,2.121,0,0,0,.7124-.7366c.2586-.3386.1974-.4814-.2184-.589a5.688,5.688,0,0,1-1.5862-.5717.809.809,0,0,0-.56-.0685,2.78,2.78,0,0,0-1.8071,1.1291c-.5852.745-.8482,1.69-1.51,2.385a.1728.1728,0,0,0,.0425.292,5.3617,5.3617,0,0,1,1.2458,1.3492A3.8944,3.8944,0,0,0,10.3507,39.275Zm47.8658-1.8481a8.71,8.71,0,0,1,2.1128.3724,1.8054,1.8054,0,0,0,1.48-.1918,4.4572,4.4572,0,0,0,1.25-1.2162,9.1666,9.1666,0,0,1,1.1-1.4756c.1009-.0934.1757-.2388.053-.3361-.491-.39-.6106-.9987-.9114-1.4988a3.4749,3.4749,0,0,0-2.32-1.7943,2.5682,2.5682,0,0,0-1.9061.3926c-.6069.3675-1.318.6059-1.404,1.465a.5253.5253,0,0,1-.0931.21c-.1872.2969-.0735.5076.2239.5813a1.88,1.88,0,0,1,1.047.9008,3.7939,3.7939,0,0,0,.8081,1.0159c.2.1413.1825.3444-.0718.4825A7.5242,7.5242,0,0,0,58.2165,37.4269ZM14.9748,39.9624a3.6163,3.6163,0,0,1-2.3045-.0947,1.12,1.12,0,0,0-.34-.0433c-.1119.0025-.2366.0713-.3132-.0582-.0818-.1381.0338-.2373.0892-.35.0531-.1077.2118-.225.0968-.3359-.1048-.1012-.2684-.0344-.3923.0453a2.8475,2.8475,0,0,1-1.3715.4559,1.2056,1.2056,0,0,0-.8437.41,3.0943,3.0943,0,0,0-.856,2.1586,8.175,8.175,0,0,1,.0292,1.69c-.0292.1537.0124.2908.2.3085a4.0418,4.0418,0,0,1,1.123.3915,3.968,3.968,0,0,0,4.7242-1.0316,1.2873,1.2873,0,0,0,.3392-1.1589C15.0438,41.5787,14.5957,40.8392,14.9748,39.9624ZM44.3129,24.8943a6.6212,6.6212,0,0,0,.0621.9462,3.0423,3.0423,0,0,0,2.0913,2.3057c.1438.0452.2382.09.2864-.0984a1.0975,1.0975,0,0,1,.0967-.2093c.2559-.5119.7724-.86.8877-1.47.0355-.1875.2408-.1008.2782.0262a3.3205,3.3205,0,0,0,.8659,1.1556c.1575.1847.2548.28.4012-.01a1.8734,1.8734,0,0,1,.5454-.6419,1.3957,1.3957,0,0,0,.5093-1.44,2.117,2.117,0,0,1-.0595-.7246,1.4343,1.4343,0,0,0-.32-1.18,3.2222,3.2222,0,0,0-1.0884-.8934,6.9451,6.9451,0,0,1-1.9054-1.2073c-.1538-.1759-.3161-.1388-.447.0442a8.9977,8.9977,0,0,1-1.0864,1.0266A2.6357,2.6357,0,0,0,44.3129,24.8943Zm2.7265,22.6333a2.8042,2.8042,0,0,0,1.3878,2.3473q.7032.4317,1.3954.8811c.1325.0863.234.1319.372.0067.5022-.4557,1.0265-.888,1.5134-1.3591a2.6151,2.6151,0,0,0,.6682-.9325,6.8157,6.8157,0,0,0-.012-4.3422c-.0346-.121-.1166-.217-.1962-.06-.2528.4985-.7219.8325-.98,1.3235-.1386.2641-.3307.2958-.4758.0488a10.61,10.61,0,0,0-1.2472-1.35c-.143-.17-.2327-.1311-.3538.0221a2.5075,2.5075,0,0,1-.61.581A3.245,3.245,0,0,0,47.0394,47.5276ZM18,24.3376c0,.09.0024.18,0,.27a5.48,5.48,0,0,0,.3356,1.9225c.0307.0915.0848.33.24.1189.2947-.4017.7843-.6333.9659-1.13.0769-.21.2206-.2163.3443-.0571.3987.5132.9916.8067,1.4233,1.28.1186.13.2018.1306.2975-.0193a2.874,2.874,0,0,1,.8947-.8293.5152.5152,0,0,0,.2556-.36,4.928,4.928,0,0,1,.5207-1.676,1.805,1.805,0,0,0-.1494-2.2467,9.3523,9.3523,0,0,0-2.1771-1.6746.2609.2609,0,0,0-.3732.0593,7.4394,7.4394,0,0,1-.8982.8338A3.8737,3.8737,0,0,0,18,24.3376ZM14.9213,22.144v-.011c-.3338,0-.6682.0124-1.0012-.004a.4346.4346,0,0,0-.52.3286,8.0362,8.0362,0,0,1-.3619.7642,4.1258,4.1258,0,0,0-.66,2.1365,4.393,4.393,0,0,0,.5692,1.7745A8.1912,8.1912,0,0,0,14.43,28.9361a.6357.6357,0,0,0,.6607.0477c.1849-.0575.0919-.267.1-.412a3.8358,3.8358,0,0,1,.2212-1.05,2.7366,2.7366,0,0,0,.19-.7427c.0062-.1038.0377-.2048-.0785-.2708-.1863-.1059-.2243-.2967-.2852-.481a7.3792,7.3792,0,0,0-.7259-1.7738c-.0757-.1162-.14-.2924.0394-.3625.1578-.0616.1878.1174.2532.2244a6.353,6.353,0,0,1,.6039,1.5353,1.0683,1.0683,0,0,0,.8138.87,6.39,6.39,0,0,0,1.4521.1277c.2517-.0047.2515-.1964.2009-.3622a7.3537,7.3537,0,0,1-.22-2.6673,1.2111,1.2111,0,0,0-.6691-1.1977,2.1349,2.1349,0,0,0-1.0646-.274C15.59,22.1328,15.2552,22.144,14.9213,22.144ZM58.3764,45.3367a1.9076,1.9076,0,0,0-.1073-.5763,5.8413,5.8413,0,0,0-.9415-1.7962,14.3417,14.3417,0,0,0-1.0386-1.3778.7216.7216,0,0,0-.753-.1408c-.2574.0592-.039.3016-.05.4619a2.789,2.789,0,0,1-.0453.6111,5.3161,5.3161,0,0,0-.213,1.4777c-.0063.333-.2486.47-.563.3342a2.6843,2.6843,0,0,0-.89-.22,3.0132,3.0132,0,0,1-.7915-.15c-.1-.0351-.2011-.1826-.3036-.07-.0884.097.0318.2136.0651.3189a6.2632,6.2632,0,0,1,.2908,2.5762,1.15,1.15,0,0,0,.3224.9468,2.1863,2.1863,0,0,0,1.2611.59,20.272,20.272,0,0,1,2.1709.2533c.1267.0413.1861-.02.2274-.1349a9.66,9.66,0,0,1,.8083-1.4244A3.115,3.115,0,0,0,58.3764,45.3367Zm.7588-.7811a2.0026,2.0026,0,0,0,1.0744-.2029c.7032-.4208,1.3913-.8668,2.09-1.296A.2727.2727,0,0,0,62.434,42.7a9.2769,9.2769,0,0,1-.2978-1.8961,3.1462,3.1462,0,0,0-2.0333-2.6718,5.2706,5.2706,0,0,0-2.5341-.2714c-.2445.0207-.1919.1406-.1062.2831a2.9966,2.9966,0,0,1,.4941,1.1586,3.6593,3.6593,0,0,0,.3842,1.2009c.1734.35.1217.4792-.2832.513a4.7822,4.7822,0,0,0-1.0071.2357c-.2773.0849-.38.1709-.164.4706a13.3857,13.3857,0,0,1,1.5227,2.3425C58.5753,44.4409,58.7961,44.6215,59.1352,44.5556ZM11.6562,26.0025a1.8047,1.8047,0,0,0-1.2542.4708,10.9605,10.9605,0,0,1-1.8965,1.4985.3312.3312,0,0,0-.181.4139,6.657,6.657,0,0,1,.1343,1.4926,2.0977,2.0977,0,0,0,.168.8235,3.11,3.11,0,0,0,1.7388,1.8041c.7119.278,1.4674.8262,2.2772.1644a.8176.8176,0,0,1,.3244-.116c.2318-.0554.3282-.1294.115-.3458a1.8037,1.8037,0,0,1-.264-.4215,7.8873,7.8873,0,0,1-.4195-1.8262c-.0435-.1623.0866-.2729.257-.252.4387.0536.7793-.2292,1.173-.3286.224-.0565.2267-.2174.0822-.3808-.0936-.1058-.1922-.2071-.2864-.3124a6.548,6.548,0,0,1-1.4436-2.2954A.5239.5239,0,0,0,11.6562,26.0025Zm39.07-.4863a5.2768,5.2768,0,0,1-.007.7412.6812.6812,0,0,0,.3669.7288,2.4955,2.4955,0,0,1,.9947,1.0959c.08.1873.1932.1786.3341.0863a2.5754,2.5754,0,0,1,1.244-.3567,1.5943,1.5943,0,0,0,1.3462-.6855,3.8254,3.8254,0,0,1,1.0353-1.072.5709.5709,0,0,0,.2231-.6125,3.3765,3.3765,0,0,0-.4376-1.1007A15.8734,15.8734,0,0,1,54.3275,21.98c-.07-.19-.2169-.1318-.3545-.073a3.0634,3.0634,0,0,1-.8117.2307A2.8715,2.8715,0,0,0,51.24,23.2263,2.9335,2.9335,0,0,0,50.7263,25.5162Zm-24.5141,20.07A4.56,4.56,0,0,0,25.21,43.3634a.7376.7376,0,0,0-.2884-.184c-.3052-.1309-.6187-.2425-.9225-.3764-.1725-.076-.2557-.0522-.2911.146a1.96,1.96,0,0,1-.4349.8886,1.0593,1.0593,0,0,0-.2546.5472c-.0353.2824-.2571.3517-.4679.1372a2.5224,2.5224,0,0,0-.7954-.5251c-.2741-.1227-.466-.4733-.7106-.4819-.292-.01-.3842.4361-.6452.6019a.8142.8142,0,0,0-.3821.7911,3.4288,3.4288,0,0,0,1.4476,2.8266,13.1946,13.1946,0,0,1,1.9868,1.2317c.0745.0723.161.0846.2266-.0173a9.37,9.37,0,0,1,1.7477-1.5967A2.4846,2.4846,0,0,0,26.2122,45.5862ZM42.4975,32.0691A12.5641,12.5641,0,0,0,42.21,30.214c-.1472-.3595-.0212-.4519.3511-.3521a1.2947,1.2947,0,0,0,.3429.03,5.445,5.445,0,0,1,1.303-.0088c.1649.0379.2883-.0362.2761-.2219a2.608,2.608,0,0,1,.2095-.8523c.159-.596.343-1.1956-.16-1.742a1.269,1.269,0,0,1-.2417-.4783,2.1972,2.1972,0,0,0-2.2495-1.5162c-.73-.0566-1.4219.1861-2.1409.1746-.1968-.0032-.2244.1552-.1974.3032a22.3853,22.3853,0,0,1-.0009,2.6492,3.7359,3.7359,0,0,0,.9911,2.3538A14.8587,14.8587,0,0,0,42.4975,32.0691ZM26.8334,21.6026a3.8265,3.8265,0,0,0-2.56,1.2943A5.627,5.627,0,0,0,23.231,25.1a1.2244,1.2244,0,0,0,.0893.9564c.2552.553.7146.9706.9694,1.5206.0946.2044.2355.13.3866.0681.4033-.1644.811-.3181,1.2173-.4753.1765-.0684.3381-.0862.3731.161.05.3495.1683.2561.3457.0754a10.4887,10.4887,0,0,1,1.9769-1.6978.6442.6442,0,0,0,.32-.6842,3.4584,3.4584,0,0,0-.4484-1.3784c-.3233-.552-.6776-1.0872-.9746-1.6528C27.3358,21.7065,27.1911,21.5163,26.8334,21.6026ZM42.225,38.9644c-.8458-.2147-1.33-.9286-2.0774-1.216-.2011-.0773-.1607-.2295-.0126-.3176A17.9215,17.9215,0,0,0,42,35.7873c.198-.1579.2462-.2937.0163-.4766a1.2051,1.2051,0,0,1-.4054-.4572c-.0995-.24-.2688-.2746-.5242-.2645a5.4534,5.4534,0,0,1-2.21-.1909,1.1879,1.1879,0,0,0-1.2724.2178,5.5733,5.5733,0,0,0-.5982.5423c-.3993.3958-.6355.9371-1.1256,1.25-.2539.162-.3154.33-.07.5741a2.0914,2.0914,0,0,1,.2934.4949,3.7573,3.7573,0,0,0,3.5707,2.1577A6.1714,6.1714,0,0,0,42.225,38.9644ZM25.4779,40.5677a3.4633,3.4633,0,0,1,.0565,1.9778.8566.8566,0,0,0,.084.6264,11.6462,11.6462,0,0,1,.6181,1.2358,1.62,1.62,0,0,0,1.453,1.017c.8064.1072,1.6162-.0192,2.42.0892.1963.0265.1861-.1325.1887-.26a5.7942,5.7942,0,0,1,.2246-1.32,3.5178,3.5178,0,0,0-.1858-2.76,4.2194,4.2194,0,0,0-1.1461-1.2687A11.293,11.293,0,0,0,27.4,38.6664a4.302,4.302,0,0,1,.5565,2.2176c.0035.2065-.0427.3432-.2743.2925A7.5358,7.5358,0,0,1,25.4779,40.5677Zm5.6978-8.8988a12.01,12.01,0,0,0-2.8035.2687c-.0985.0257-.2281.04-.2186.17.0081.1118.1334.0949.2181.1132a4.4327,4.4327,0,0,1,1.8168.9672c.1342.1073.2549.2666.1011.4287a8.23,8.23,0,0,1-1.6647,1.64c-.5317.3131-.5245.3194-.0463.6767a5.0319,5.0319,0,0,1,.468.394.7208.7208,0,0,0,.4485.1937,11.1975,11.1975,0,0,1,1.3747.1638,2.6056,2.6056,0,0,0,2.29-.71c.7786-.61,1.3278-1.4564,2.1073-2.0678.1129-.0885.1022-.2009-.0073-.2947a3.3387,3.3387,0,0,1-.268-.219A5.3276,5.3276,0,0,0,31.1757,31.6689ZM41.6924,46.103a1.5964,1.5964,0,0,0,.1409.6752,17.0015,17.0015,0,0,0,.9568,1.7535c.1079.2.1128.5229.267.6115.1475.0847.4267-.0921.65-.1016a9.77,9.77,0,0,0,1.8478-.3495,1.5458,1.5458,0,0,0,1.0991-1.3633,3.3575,3.3575,0,0,1,.5506-1.82.6764.6764,0,0,0-.039-.9208,2.7966,2.7966,0,0,1-.6514-1.2325c-.03-.215-.1782-.2669-.3608-.112a1.3346,1.3346,0,0,1-.5288.2207,3.5348,3.5348,0,0,0-1.239.376.1607.1607,0,0,1-.2514-.0927c-.1182-.2959-.205-.0978-.3015.01a12.4417,12.4417,0,0,1-1.3109,1.2342C42.1549,45.2993,41.6262,45.517,41.6924,46.103Zm-1.28-.7021a2.151,2.151,0,0,0,.9807-.1393A5.975,5.975,0,0,0,44.01,42.859a1.5068,1.5068,0,0,0,.1214-1.07c-.0307-.197-.106-.265-.3092-.1963a2.1166,2.1166,0,0,1-1.0987.0618,2.3969,2.3969,0,0,0-.9171-.0565c-.1344.0265-.2658.1235-.3742-.047-.1045-.1644-.0089-.2881.0691-.4234a5.31,5.31,0,0,0,.4807-1.1705c.0358-.1221.0925-.2636-.003-.3667-.1072-.1158-.2388-.0164-.3567.021-.3543.1127-.7139.2118-1.0609.3437a3.2165,3.2165,0,0,0-2.2051,2.304,17.3334,17.3334,0,0,0-.2049,2.45c-.0108.1232.0722.1761.1764.2193A4.8655,4.8655,0,0,0,40.4123,45.4009Zm-25.6177-.0933a4.7,4.7,0,0,0,.2239,1.0914,10.7684,10.7684,0,0,1,.9482,2.0963c.0152.0908.0748.1757.1874.1528A9.4408,9.4408,0,0,0,18.697,48.12,1.9494,1.9494,0,0,0,19.83,46.0169a3.1926,3.1926,0,0,1-.1631-1.0225,1.1675,1.1675,0,0,0-.4708-.916,4.5236,4.5236,0,0,1-1.09-1.232c-.1391-.27-.294-.2454-.4815-.0917a2.3282,2.3282,0,0,1-1.2057.4528c-.3929.057-.848.0269-1.1138.4243A2.38,2.38,0,0,0,14.7946,45.3076Zm13.36-16.0418c.6444-.0141.65-.0021.5192.6222-.087.4141-.159.8314-.2342,1.2479-.051.283.0318.4074.3514.3434a4.292,4.292,0,0,0,2.2095-1.0063,2.713,2.713,0,0,0,1.0378-2.1788c-.0258-.4594.0326-.9233.0453-1.3853.0067-.2426.1958-.5008.0756-.707-.1217-.209-.44-.1528-.6611-.2614a2.6521,2.6521,0,0,0-2.8094.1559,9.6,9.6,0,0,0-1.3613,1.1157c-.5424.52-1.12,1.0027-.8325,1.8827a.5326.5326,0,0,1,.0057.1919c-.0115.1879.0435.2354.2478.1952A7.219,7.219,0,0,1,28.1547,29.2658Zm33.1864,20.14c-.2187.26-.43.4825-.6092.7287A16.1045,16.1045,0,0,1,57.586,53.25a25.4211,25.4211,0,0,1-3.0324,1.8108c-1.9471,1.14-3.965,2.15-5.9187,3.2769a1.5931,1.5931,0,0,1-1.01.2679.6906.6906,0,0,0-.6325.3025,1.3113,1.3113,0,0,0-.2234,1.1979c.0577.227.1093.4826.3788.5291a.6384.6384,0,0,0,.6867-.326,1.17,1.17,0,0,1,.5789-.4844c.762-.3364,1.5454-.6225,2.2847-1.0125A35.8973,35.8973,0,0,0,54.1263,56.7c.92-.6261,1.8977-1.1675,2.7721-1.8621A32.8277,32.8277,0,0,0,59.43,52.6609a12.6083,12.6083,0,0,0,1.8639-2.1953A.9122.9122,0,0,0,61.3411,49.4053Zm1.4-23.381a.4673.4673,0,0,0-.08-.44,14.422,14.422,0,0,1-.9523-1.3475,20.461,20.461,0,0,0-4.1127-4.4328A13.3558,13.3558,0,0,0,52.7533,17.21a21.6684,21.6684,0,0,0-4.7948-.8511,8.7182,8.7182,0,0,0-1.6475-.0079c-.1432.0189-.3035.0079-.3067.207-.006.3846,0,.7694.0049,1.1541.0015.12.0625.2031.1915.1845.7149-.1028,1.4356-.0006,2.1523-.0682a8.1443,8.1443,0,0,1,1.7222-.09,13.4278,13.4278,0,0,1,4.0928,1.141,7.0075,7.0075,0,0,1,1.3854.7417c1.08.8435,2.2171,1.6092,3.2683,2.4936a21.7571,21.7571,0,0,1,2.4945,2.2752C61.7761,24.9174,62.2362,25.4452,62.7409,26.0243Zm-21.8669,8.24c.05-.006.1758.0537.2313-.0635.0536-.113-.0647-.18-.1146-.2651a1.763,1.763,0,0,0-.3694-.3873c-.1776-.1618-.2191-.3244.0663-.4278.4336-.1572.8661-.3175,1.2992-.4761.36-.1319.3736-.1867.0929-.421-.1473-.123-.2987-.2411-.4488-.3606a5.4233,5.4233,0,0,1-2.2061-2.82c-.0337-.1323-.12-.2623-.2622-.241a3.1115,3.1115,0,0,0-1.5647.44c-.5476.4172-.893,1.02-1.4237,1.4463-.1522.1222-.1064.28-.0307.42A9.3145,9.3145,0,0,0,37.2,32.8413a3.9923,3.9923,0,0,0,1.8023,1.181A7.8968,7.8968,0,0,0,40.874,34.2646Zm-9.0449,7.5712a1.5316,1.5316,0,0,0,.8261-.2606,16.2031,16.2031,0,0,1,1.8956-1.5488.2145.2145,0,0,0,.0925-.2969,3.6847,3.6847,0,0,0-2.15-2.3136,9.5347,9.5347,0,0,0-2.59-.536c-.0985-.0088-.2174-.0405-.2845.0616-.065.0989.0381.1592.0842.2309.1561.2432.1776.4421-.1464.575a6.3684,6.3684,0,0,0-.7541.3727c-.2387.1372-.6783.1781-.678.4059,0,.2258.3852.3937.622.5623a6.28,6.28,0,0,1,2.0594,2.1889A1.0387,1.0387,0,0,0,31.8291,41.8358ZM5.0451,33.4173l.1173.0191a7.93,7.93,0,0,1,1.5742-3.4222,13.9752,13.9752,0,0,0,1.8745-4.233,2.5628,2.5628,0,0,0,.1639-.9859c-.2809.1531-.572.1571-.799.3478-.1969.1653-.3353.0846-.3961-.138-.0471-.1724-.0644-.3527-.0978-.529q-.17-.8984-.3423-1.7973c-.1325.02-.1444.1212-.1791.1971a16.9119,16.9119,0,0,0-.9528,2.4748c-.532,1.9156-1.3135,3.7864-1.11,5.8458C4.9708,31.9344,4.9974,32.6769,5.0451,33.4173Zm57.6661-9.6715a12.1864,12.1864,0,0,0-.3073-1.6066.4625.4625,0,0,0-.1265-.19,4.86,4.86,0,0,1-.8228-1.1506,16.6475,16.6475,0,0,0-1.9418-2.5742c-.8141-.9015-1.6835-1.7515-2.5848-2.5688a9.96,9.96,0,0,0-2.0772-1.5037A24.9214,24.9214,0,0,0,51.8449,12.88a1.1917,1.1917,0,0,1-.6465-.5141.72.72,0,0,0-1.0838-.2706,1.9121,1.9121,0,0,0-.8349,1.0194.5522.5522,0,0,0,.362.8162,1.3266,1.3266,0,0,0,.7968.012,2.0753,2.0753,0,0,1,1.14.0073A16.5812,16.5812,0,0,1,55.2,15.6133a16.7316,16.7316,0,0,1,2.9294,2.1008,14.5582,14.5582,0,0,1,2.0532,2.2247C61.0812,21.1185,61.7153,22.4779,62.7112,23.7458ZM23.685,11.12c-.0046-.0769-.0053-.1543-.0142-.2308-.0782-.676-.2-.73-.792-.423-1.1376.59-2.2847,1.1611-3.3873,1.8173a32.0031,32.0031,0,0,0-3.2406,2.1185c-.8309.6418-1.6631,1.2834-2.52,1.8893A30.5789,30.5789,0,0,0,11.13,18.3738a17.7038,17.7038,0,0,0-1.9166,2.207.7055.7055,0,0,0-.2193.5188c.0105.0967-.0355.2286.0869.2726.1188.0426.1834-.0664.2394-.1506a11.1588,11.1588,0,0,1,1.5853-1.774,25.7151,25.7151,0,0,1,4.2132-3.3159,37.0767,37.0767,0,0,1,4.4144-2.6342c1.1029-.5,2.2376-.893,3.3665-1.31C23.4756,11.9748,23.6982,11.7234,23.685,11.12Zm-.139,43.4356c.09-.0043.18-.0046.2693-.0136.47-.0475.533-.1211.4584-.58a1.657,1.657,0,0,1-.0478-.61c.0408-.1924.0053-.2369-.2038-.2147a12.8373,12.8373,0,0,1-3.0351-.0346,21.4556,21.4556,0,0,1-3.34-.7288,18.4519,18.4519,0,0,1-4.0525-1.7409,15.4392,15.4392,0,0,1-3.8389-3.17,10.8751,10.8751,0,0,1-1.4534-1.8355c-.0365-.0661-.0779-.1539-.1655-.1361-.098.02-.0791.12-.0752.1932a1.15,1.15,0,0,0,.1687.6994,27.1677,27.1677,0,0,0,2.7417,2.8518,24.2577,24.2577,0,0,0,2.519,2.0219A18.34,18.34,0,0,0,17.14,53.3751a17.9646,17.9646,0,0,0,3.3142.8234A23.1145,23.1145,0,0,0,23.546,54.5559Zm38.4378-8.8347a.7847.7847,0,0,0,.5643-.2188c.3323-.2352.4468-.1919.486.2053a8.1066,8.1066,0,0,0,.3968,1.6813c.0308.0956.0382.2342.1557.2415.1482.0091.1521-.1485.1913-.2495.1892-.4889.4017-.967.5688-1.4666a25.07,25.07,0,0,0,.8889-3.4978c.2026-1.12.3777-2.2461.5181-3.3753a5.2141,5.2141,0,0,0-.1454-2.2646c-.0825.4018-.1245.7343-.22,1.05a22.5586,22.5586,0,0,1-2.1312,4.7591A7.6023,7.6023,0,0,0,61.9838,45.7212Zm-.6288,1.6743a6.1981,6.1981,0,0,0-.6794.5846,12.7216,12.7216,0,0,1-4.1093,2.9741,28.58,28.58,0,0,1-6.0828,2.0051,12.2542,12.2542,0,0,1-1.7462.2736c-.6649.0563-1.335.0177-1.996.1324a1.2661,1.2661,0,0,0-.9561.6365c-.2031.3618-.0083.9532.5126.8845a6.9468,6.9468,0,0,0,.8-.0839c1.107-.2761,2.19-.6337,3.2836-.9541,1.3164-.3857,2.6328-.7836,3.9023-1.2884a31.6629,31.6629,0,0,0,3.4488-1.496,12.612,12.612,0,0,0,3.4261-2.739A.9889.9889,0,0,0,61.355,47.3955Zm3.0531-21.871c-.0993.0184-.1164.0652-.12.1186-.01.1593-.0238.3144-.2234.3529-.184.0355-.284-.0784-.3766-.2092a.7255.7255,0,0,0-.3139-.2754c-.1642-.0664-.2339-.04-.22.1625a6.8051,6.8051,0,0,1,.0157.9586,9.8178,9.8178,0,0,0,1.3941,5.93c.3017.4986.5785,1.0123.8887,1.5578a2.7483,2.7483,0,0,0,.4519-1.7766A34.74,34.74,0,0,0,64.69,26.2492C64.6125,26,64.5008,25.76,64.4081,25.5245ZM9.34,23.52a2.0815,2.0815,0,0,0,.14-.1734,6.8907,6.8907,0,0,1,1.8717-2,23.83,23.83,0,0,1,4.453-2.3286,17.5531,17.5531,0,0,1,3.1853-.9717,51.41,51.41,0,0,1,5.2414-.8081c.3245-.0367.5006-.1662.4615-.5151a3.253,3.253,0,0,1-.0032-.3465c-.0013-.2825-.1406-.3475-.4026-.2874-.3494.08-.7037.1423-1.0586.1934a28.1966,28.1966,0,0,0-4.0361.7931,36.7944,36.7944,0,0,0-5.7887,2.2727,12.2957,12.2957,0,0,0-3.669,2.6851A1.4453,1.4453,0,0,0,9.34,23.52ZM6.23,45.5693c.0429-.1956.0779-.3186.096-.4441.0644-.4443.152-.4788.5305-.2093a2.7247,2.7247,0,0,0,.6043.4068c.1342.05.2336.0761.2019-.1252-.118-.7492-.0876-1.51-.1652-2.26a11.993,11.993,0,0,0-1.4686-4.543,3.8375,3.8375,0,0,0-.9875-1.2188,10.3315,10.3315,0,0,0,.0978,4.55A21.3479,21.3479,0,0,0,6.23,45.5693ZM22.5933,34.6824a1.7855,1.7855,0,0,0-.4962-1.1918,1.978,1.978,0,0,0-3.0646.4977,2.141,2.141,0,0,0,.8208,3.0143,1.7159,1.7159,0,0,0,2.0177-.3288A2.9083,2.9083,0,0,0,22.5933,34.6824ZM51.8822,35.729c.148-1.01-1.1254-1.9954-2.2279-2.0387a1.7888,1.7888,0,0,0-1.7135,1.6364c-.0524,1.3911.6929,2.3183,1.8442,2.342A1.923,1.923,0,0,0,51.8822,35.729ZM8.95,49.46a3.7429,3.7429,0,0,0,.7723,1.7577c.7012.7292,1.4118,1.45,2.0936,2.1972a13.8021,13.8021,0,0,0,2.8786,2.4164c.9689.6067,2.0381,1.0238,3.024,1.5984.5889.3432,1.27.5523,1.6206,1.2312a.4439.4439,0,0,0,.6276.0945,3.3626,3.3626,0,0,0,.9946-.776c.1883-.2654.371-.5546.1714-.8857-.2045-.3392-.5453-.3048-.862-.2226a3.3563,3.3563,0,0,1-1.6731-.0206,6.7744,6.7744,0,0,1-1.3057-.5586A21.3455,21.3455,0,0,1,13.851,54.35,21.44,21.44,0,0,1,9.53,50.0225,1.5821,1.5821,0,0,0,8.95,49.46ZM13.3,36.2939a6.8307,6.8307,0,0,0,1.72-.1836c.2061-.05.4514-.1033.3874-.4182a5.7227,5.7227,0,0,1-.01-1.8018.3159.3159,0,0,0-.2534-.4008,3.66,3.66,0,0,1-.881-.3824,1.5148,1.5148,0,0,0-2.1981.6326,3.0693,3.0693,0,0,1-.6926.9142.1751.1751,0,0,0-.049.2656C11.7978,35.696,12.2908,36.4416,13.3,36.2939ZM38.3731,58.2586a.5732.5732,0,0,0,.5159-.14c.6969-.6414,1.3531-1.3275,2.0933-1.9218.0687-.0552.157-.1139.1368-.2152-.0214-.1068-.1315-.1065-.2155-.13a11.4045,11.4045,0,0,1-2.4107-.8736.3463.3463,0,0,0-.3863-.0026,7.6686,7.6686,0,0,0-2.0806,1.744.2846.2846,0,0,0,.03.4609A5.1635,5.1635,0,0,0,38.3731,58.2586Zm-22.45-15.3309a3.0194,3.0194,0,0,0,1.6194-.57,4.968,4.968,0,0,0,1.2416-2.1317c.0629-.1481-.03-.2147-.1666-.2854a5.6166,5.6166,0,0,1-1.561-1.0159c-.1224-.1277-.2057-.0932-.3244.0009-.2911.2308-.5931.4477-.89.6714a1.3488,1.3488,0,0,0-.6228,1.4884A7.1953,7.1953,0,0,1,15.565,42.7C15.5651,42.8931,15.7283,42.94,15.9234,42.9277ZM14.11,39.7712a3.5671,3.5671,0,0,0,2.2718-1.0474c.2108-.196.1761-.3364.0254-.554a3.4807,3.4807,0,0,1-.7786-1.5163c-.0284-.23-.1457-.3007-.3676-.2561-.5023.101-1.0069.1908-1.51.2873a1.073,1.073,0,0,0-.8963,1.0106,5.8554,5.8554,0,0,1-.2458,1.5091c-.0678.1529-.01.2335.1448.2846A4.0463,4.0463,0,0,0,14.11,39.7712Zm41.8188,1.3172c.5914-.044,1.1948-.3324,1.8413-.4323.1472-.0227.139-.1587.0888-.2808-.211-.5131-.28-1.0663-.4419-1.5909a1.0524,1.0524,0,0,0-.8572-.7962,5.32,5.32,0,0,1-1.2315-.2858c-.1418-.0537-.2507-.044-.3089.1152a6.9189,6.9189,0,0,1-.91,1.6.3052.3052,0,0,0-.0543.3237A2.0374,2.0374,0,0,0,55.9283,41.0884ZM12.8766,30.3858a2.784,2.784,0,0,0,.3958,1.465A3.88,3.88,0,0,0,15.2943,33.17a.2243.2243,0,0,0,.3212-.18,4.5068,4.5068,0,0,1,.81-1.5562.3361.3361,0,0,0-.03-.4681,5.1092,5.1092,0,0,1-.7445-1.0686c-.2124-.5015-.3818-.5658-.9229-.4683-.53.0956-.95.47-1.4686.5517C12.9293,30.0324,12.7882,30.1336,12.8766,30.3858Zm43.7509,7.2274a1.4525,1.4525,0,0,0,.8471-.2378,19.3545,19.3545,0,0,0,1.6168-1.219c.1494-.099.0682-.2294-.02-.33a5.7547,5.7547,0,0,1-.5293-.7994,1.8737,1.8737,0,0,0-.9859-.8184.5591.5591,0,0,0-.6091.0856,2.6367,2.6367,0,0,1-1.312.5987c-.316.056-.4057.2018-.3746.4934a3.99,3.99,0,0,1,.0024,1.3.5638.5638,0,0,0,.4764.7642A3.253,3.253,0,0,0,56.6275,37.6132ZM29.4812,14.7165a6.4135,6.4135,0,0,1,2.6912.7571c.1349.0675.2456-.0155.3612-.07a4.982,4.982,0,0,0,1.9225-1.6164c.1754-.24.1463-.3886-.08-.5318a7.3932,7.3932,0,0,0-2.09-.8987.5629.5629,0,0,0-.6027.2486,6.3316,6.3316,0,0,1-.4856.5432C30.6486,13.6832,30.0693,14.1833,29.4812,14.7165ZM55.5289,34.5231A2.298,2.298,0,0,0,57.21,33.3438c.3239-.5471.1955-1.1834.4056-1.7481.0317-.0853-.0238-.1493-.0974-.1876a5.5168,5.5168,0,0,0-1.3547-.6326,1.0191,1.0191,0,0,0-1.2078.5122,1.7728,1.7728,0,0,1-.503.6208c-.2134.1459-.2686.3046-.0765.533a4.0142,4.0142,0,0,1,.76,1.742C55.19,34.4177,55.2955,34.56,55.5289,34.5231ZM18.2632,28.0148a1.5963,1.5963,0,0,1,.0222-.3833c.1073-.3528-.06-.5-.3762-.5562a2.518,2.518,0,0,0-.3773-.063,4.4457,4.4457,0,0,1-1.3337-.1552c-.0883-.0295-.1991-.0563-.2327.0548a4.292,4.292,0,0,0-.38,1.79,3.4184,3.4184,0,0,0,1.0547,1.97c.1426.1379.2653.175.4328.0387a5.796,5.796,0,0,1,1.2225-.8653c.1458-.0662.1856-.1751.1364-.3464A4.0181,4.0181,0,0,1,18.2632,28.0148Zm36.87,14.167a1.303,1.303,0,0,0-.33-.9143,6.1271,6.1271,0,0,1-1.0072-1.1994c-.0806-.1583-.1935-.0569-.2843.0158a5.211,5.211,0,0,1-1.4933.8485.3145.3145,0,0,0-.2279.3884,4.3861,4.3861,0,0,0,.4543,1.4575,1.4539,1.4539,0,0,0,1.0046.82,9.115,9.115,0,0,1,1.2786.2616c.1267.0411.2656.04.27-.108C54.8131,43.2063,55.1353,42.7286,55.1335,42.1818ZM38.1741,19.7378a2.8545,2.8545,0,0,0-1.5987.902c-.7829.85-.7452,1.0556.2076,1.7138a2.7231,2.7231,0,0,0,1.1619.4643c.3025.0415.4015-.3882.6356-.5592a.28.28,0,0,0,.03-.0241,10.5012,10.5012,0,0,1,1.8547-1.5389c.0536-.0325.1149-.0758.1-.1482-.0155-.0752-.09-.0752-.1529-.0889a10.355,10.355,0,0,1-1.2009-.397C38.8626,19.939,38.5054,19.84,38.1741,19.7378ZM27.5582,32.5383a4.19,4.19,0,0,0-1.4621.3519c-.2172.07-.2393.2335-.1814.4346a7.3146,7.3146,0,0,1,.26,1.0022c.0957.69.0791.6916.7259.84a1.3237,1.3237,0,0,1,.1838.0557,1.1924,1.1924,0,0,0,.9645-.0612,4.8684,4.8684,0,0,0,1.676-1.4915c.1578-.1886.0474-.3373-.1091-.4533A3.3568,3.3568,0,0,0,27.5582,32.5383Zm27.1761-2.1446a4.0559,4.0559,0,0,0-.3335-1.5663c-.2127-.6059-.1924-.613-.8248-.5732-1.2262.0774-1.6733.5665-1.7194,1.7789a.7446.7446,0,0,0,.5013.7927,4.53,4.53,0,0,1,1.3175.8469.3282.3282,0,0,0,.5328-.0211A1.4964,1.4964,0,0,0,54.7343,30.3937ZM21.0852,41.5379c-.0142-.23-.0165-.462-.0462-.69-.0253-.1943-.0862-.3819-.323-.4234-.4544-.08-.9094-.156-1.3631-.2394-.1021-.0188-.1748-.0212-.1985.1043a8.9172,8.9172,0,0,1-.746,1.6372.7677.7677,0,0,0-.0274.5544c.2166.7.8484,1.038,1.3,1.5317a.1809.1809,0,0,0,.2754-.0218,2.9926,2.9926,0,0,0,.8432-1.027A4.3318,4.3318,0,0,0,21.0852,41.5379ZM42.3784,38.59a.5237.5237,0,0,0,.4544-.1436,2.5674,2.5674,0,0,1,1.4635-.7081c.1871-.0258.3318-.13.2752-.3366-.1228-.45-.0711-.9165-.1608-1.3687a.4252.4252,0,0,0-.3736-.3824,2.196,2.196,0,0,0-1.6254.2949,9.78,9.78,0,0,0-1.2584,1.1683c-.4357.4279-.4118.4667.0675.8533C41.5846,38.2611,41.9106,38.6427,42.3784,38.59ZM37.9976,51.7772a.5591.5591,0,0,0,.0923-.0131,10.0441,10.0441,0,0,1,1.9233-.5425c.2118-.0284.0657-.1673-.0255-.2313a9.4405,9.4405,0,0,1-2.1889-2.19.4252.4252,0,0,0-.5346-.15,4.8933,4.8933,0,0,0-1.3379.8186c-.2808.1791-.2571.3518-.09.6023a5.8317,5.8317,0,0,0,1.4284,1.3346A1.5281,1.5281,0,0,0,37.9976,51.7772ZM30.6886,31.26a5.5631,5.5631,0,0,1,2.72.572c.5695.2234.655.2164.9465-.3438.0473-.0909.0993-.1793.1446-.2711a1.71,1.71,0,0,0-.6744-2.1092,2.506,2.506,0,0,0-1.1322-.1174.4484.4484,0,0,0-.4559.3343,1.9874,1.9874,0,0,1-.2628.6334A10.6273,10.6273,0,0,1,30.6886,31.26ZM49.396,42.4427a2.29,2.29,0,0,0,.8085,1.826c.2561.2048.4306.6416.7126.6316.315-.0112.47-.4572.7087-.7007a1.0829,1.0829,0,0,0,.2974-1.1324,15.0588,15.0588,0,0,1-.4708-1.5763c-.0452-.2039-.1467-.3017-.3835-.2479a6.467,6.467,0,0,1-.7988.1037c-.8166.08-.8737.1424-.8741.9808ZM29.901,55.4884a4.1581,4.1581,0,0,0,.4826.3383,6.1222,6.1222,0,0,1,1.7362,1.437.5731.5731,0,0,0,.7788.1461,6.7987,6.7987,0,0,0,1.0443-.7125.505.505,0,0,0,.1344-.7821,6.444,6.444,0,0,0-1.19-1.1923.465.465,0,0,0-.6546-.0661,3.2745,3.2745,0,0,1-.9889.4145C30.8167,55.1963,30.3936,55.3347,29.901,55.4884Zm2.7716-36.4012a8.4769,8.4769,0,0,1-1.7747.3483c-.0864.0115-.2037-.0138-.2387.0844-.0438.123.0772.181.1571.2324a7.1253,7.1253,0,0,1,1.5377,1.48c.2337.2763.4061.59.6321.8693a.3808.3808,0,0,0,.5.1272,6.5679,6.5679,0,0,0,1.0881-.7168c.3048-.1871.3188-.424.1277-.715A5.2237,5.2237,0,0,0,32.85,19.1581,1.3428,1.3428,0,0,0,32.6726,19.0872ZM43.0283,32.7765a4.3321,4.3321,0,0,0-1.7712.5763.131.131,0,0,0-.0409.2251c.3974.423.5688,1.0024.9824,1.4127a.848.848,0,0,0,.9238.3057,1.662,1.662,0,0,1,.95.011c.2746.0742.4045-.0106.3987-.2776a3.5119,3.5119,0,0,1,.2592-1.1953.4823.4823,0,0,0-.24-.6425A2.8,2.8,0,0,0,43.0283,32.7765Zm.1644,8.5207a3.1017,3.1017,0,0,0,.4851-.0051.577.577,0,0,0,.518-.3938A2.39,2.39,0,0,1,45.27,39.59c.1875-.113.1855-.198.0731-.3567a4.5567,4.5567,0,0,1-.6-1.0254c-.0385-.1036-.11-.19-.23-.16a2.7155,2.7155,0,0,0-1.4286.6812A6.1839,6.1839,0,0,0,42.0028,41c-.0639.1736.0152.23.1805.2377A5.1345,5.1345,0,0,0,43.1927,41.2972Zm-24.6371-13.21a3.7942,3.7942,0,0,0,.1639,1.1183c.0483.19.1409.3071.3844.263a5.6667,5.6667,0,0,1,1.3359-.113c.1995.0115.32-.068.3314-.2783a4.7048,4.7048,0,0,1,.3855-1.439.626.626,0,0,0-.2277-.7816c-.31-.246-.63-.4807-.946-.7192-.1027-.0775-.2046-.1705-.3371-.0482A2.5694,2.5694,0,0,0,18.5556,28.0869ZM40.4275,15.06a10.7131,10.7131,0,0,1-2.3128-1.6772.4791.4791,0,0,0-.4362-.0924A4.0545,4.0545,0,0,0,35.9546,14c-.1844.1423-.2168.2655-.057.4386a7.8542,7.8542,0,0,0,.5674.6246c.7735.6735,1.271,1.1194,2.1513.57A7.4,7.4,0,0,1,40.4275,15.06ZM21.1593,28.8712c.06.2268-.0961.497.1843.5414a6.5052,6.5052,0,0,1,1.2741.42c.1371.0517.28.09.3483-.1028a4.95,4.95,0,0,1,.93-1.4878.3883.3883,0,0,0,.0411-.5473,14.2758,14.2758,0,0,1-.92-1.3573c-.1338-.238-.2224-.2036-.39-.0929A3.8532,3.8532,0,0,0,21.1593,28.8712Zm9.009,21.0177a13.0525,13.0525,0,0,1,2.3022.81c.102.0515.2227.11.3257.0191a5.844,5.844,0,0,0,1.385-1.363.303.303,0,0,0-.0106-.3829,6.3425,6.3425,0,0,0-1.1616-1.2206c-.1975-.1525-.3305-.1443-.5113.0623a7.6126,7.6126,0,0,1-2.0311,1.7915A.6549.6549,0,0,0,30.1683,49.8889ZM46.7722,42.36a3.0091,3.0091,0,0,0,.6653,1.9266c.2372.307.3742.3987.7034.1713a1.6188,1.6188,0,0,0,.91-1.5949,3.709,3.709,0,0,1,.0245-1.1884c.0418-.2-.0377-.29-.2245-.3166a4.0363,4.0363,0,0,1-1.1746-.3506.3284.3284,0,0,0-.4879.1469A2.1123,2.1123,0,0,0,46.7722,42.36ZM28.0276,29.6067a4.3623,4.3623,0,0,0-3,1.581.2229.2229,0,0,0,.0063.3129,2.4741,2.4741,0,0,1,.4776.7836c.1241.27.29.3128.5521.2071a3.118,3.118,0,0,1,.9547-.28.9117.9117,0,0,0,1.0057-.8777c.0935-.4515.14-.9145.2626-1.3573C28.3759,29.6534,28.267,29.5831,28.0276,29.6067Zm-.6559,8.5443a3.2634,3.2634,0,0,0,1.6571-.5832c.2644-.147.26-.321.0989-.5251A3.7477,3.7477,0,0,0,26.4412,35.51a.343.343,0,0,0-.4059.312,8.1661,8.1661,0,0,1-.2856,1.1541c-.0486.13-.0909.3061.0515.39C26.3189,37.673,26.7329,38.202,27.3717,38.151Zm10.2348,3.7149c.3291.068.5483-.098.7013-.4664a2.9775,2.9775,0,0,1,.89-1.0874c.0846-.0716.2331-.1268.2006-.2541-.035-.1369-.19-.1031-.299-.102a2.2241,2.2241,0,0,1-.6429-.1016,4.1151,4.1151,0,0,1-1.408-.68c-.3942-.3054-.7015-.2382-.9217.1445A1.6768,1.6768,0,0,0,37.6065,41.8659ZM43.6651,30.162c-.1893.0222-.4692.0514-.748.0892-.1251.0169-.2356.0847-.2081.2251.0959.4891.0486.9938.1884,1.48a.5566.5566,0,0,0,.4563.4524,3.8653,3.8653,0,0,1,1.3911.5274c.1853.1207.3083.0812.4042-.0994a3.38,3.38,0,0,1,.5728-.7645c.0754-.0777.1659-.1677.1136-.3038A2.6385,2.6385,0,0,0,43.6651,30.162ZM26.14,29.1331a5.0553,5.0553,0,0,0-.174-1.2231c-.0382-.22-.1312-.288-.37-.2342a2.9572,2.9572,0,0,0-2.0808,1.82c-.262.57-.254.5661.2525.9176.22.1526.4219.3311.6286.5019.121.1.23.1643.3537,0a3.7335,3.7335,0,0,1,.9456-.8281A.9018.9018,0,0,0,26.14,29.1331Zm23.4959.4579a1.2712,1.2712,0,0,1-.0014.1923c-.0557.3621.07.5285.46.4836a2.7867,2.7867,0,0,1,.9926.0975c.2834.0712.3642-.0344.3652-.3045a2.4744,2.4744,0,0,1,.2956-1.2986.565.565,0,0,0-.0276-.5854,4.4253,4.4253,0,0,0-1.2437-1.183c-.086-.0744-.1636-.0315-.2354.0394-.1644.1622-.3488.307-.4952.4836a.94.94,0,0,0-.2322,1.089A2.1292,2.1292,0,0,1,49.6354,29.591ZM44.4866,41.4747c.0154.3072.0217.6152.0488.9213.0246.2784-.1191.6508.0719.8108.1884.1578.5282-.0547.8072-.0766a1.0608,1.0608,0,0,0,.9787-.7456,3.6116,3.6116,0,0,1,.4695-1.411.29.29,0,0,0-.1175-.4486,4.027,4.027,0,0,1-.8916-.6618.2023.2023,0,0,0-.307-.018C45.007,40.2679,44.474,40.6961,44.4866,41.4747Zm.3339-11.83a.7485.7485,0,0,0,.2973.6553,3.4846,3.4846,0,0,1,.9378,1.0994c.0532.0908.1192.1986.2358.0885a11.814,11.814,0,0,1,1.0845-.65c.1109-.0849.1879-.1529.1747-.3071a2.7507,2.7507,0,0,0-2.03-2.4014c-.1124-.03-.2244-.0937-.2757.0814C45.1052,28.6889,44.9623,29.1665,44.8205,29.6444ZM14.5151,44.3165a6.94,6.94,0,0,1-1.7146.8592c-.67.18-.7187.1872-.6358.876a1.5779,1.5779,0,0,0,1.6866,1.5663.8093.8093,0,0,0,.7864-1.2012c-.0338-.0823-.0533-.1705-.0791-.256A3.64,3.64,0,0,1,14.5151,44.3165ZM25.24,41.656a2.6866,2.6866,0,0,0-.6216-1.9487c-.28-.4638-.4319-.4791-.8819-.1888-.2476.16-.4862.3331-.7321.4956-.1016.0672-.1942.136-.1616.2746.217.9232.4553,1.841,1.4612,2.2414.8014.319.8623.5589.9353-.549C25.2444,41.9045,25.24,41.8273,25.24,41.656Zm-1.8639,1.1c0-.2036.0037-.33-.0949-.4356a3.0475,3.0475,0,0,1-.6471-1.3315c-.18-.65-.1852-.63-.8587-.588-.3085.0192-.3993.1423-.3849.4267a6.3934,6.3934,0,0,1-.0987,1.7987.7121.7121,0,0,0,.34.8212c.2627.1791.5429.3327.8159.4965.0745.0447.1786.137.2367.0421C22.9418,43.5664,23.33,43.2134,23.3761,42.7562Zm4.1477-2.5456a1.6528,1.6528,0,0,0-.0927-.5721,3.232,3.232,0,0,0-1.7832-1.8522c-.1812-.0925-.2712.02-.3349.148a2.6305,2.6305,0,0,1-.5178.7118.3934.3934,0,0,0-.0518.5719,3.43,3.43,0,0,0,2.1981,1.4907C27.4417,40.8323,27.5284,40.7626,27.5238,40.2106Zm-6.956,9.7357a2.24,2.24,0,0,0,1.35-1.0305c.1715-.2665.0966-.4258-.1425-.56A4.5084,4.5084,0,0,1,20.38,47.2278c-.1571-.2012-.2824-.1815-.3835.0608a2.1447,2.1447,0,0,1-.834.9311c-.5426.3668-.5472.36-.1137.8455a1.2462,1.2462,0,0,0,.131.14A2.7258,2.7258,0,0,0,20.5678,49.9463Zm-11.581.9165c-.1034-.3964-.1753-.7462-.2862-1.0831A16.23,16.23,0,0,1,7.8741,46.58a1.4827,1.4827,0,0,0-.8933-1.1338c-.1585-.0971-.3032-.09-.3432.1286a1.8762,1.8762,0,0,0-.03,1.1961c.403.9133.7242,1.86,1.2037,2.7433A2.787,2.787,0,0,0,8.9868,50.8628ZM49.2706,29.6739A2.9189,2.9189,0,0,0,48.08,27.2767a.2288.2288,0,0,0-.3432,0,2.2785,2.2785,0,0,0-.667.92c-.0329.1231-.0807.251.0189.3654a4.2234,4.2234,0,0,1,.8136,1.7533c.03.1122.0573.2592.2008.2391a2.6547,2.6547,0,0,0,1.0605-.2932C49.3779,30.1271,49.2423,29.8316,49.2706,29.6739ZM63.783,38.8865a2.2472,2.2472,0,0,0-.53-1.6552c-.1528-.1547-.2527-.1735-.4021-.01a2.8272,2.8272,0,0,1-1.0072.7566c-.2012.0824-.5077.1136-.58.26-.1257.2553.2373.3353.37.4955a5.3243,5.3243,0,0,1,.731,1.339c.08.1838.1729.3193.4013.172C63.3542,39.866,63.8161,39.4118,63.783,38.8865Zm-2.0564,9.3007a6.4256,6.4256,0,0,0,.1228,1.4507c.0246.1485-.0047.3766.2082.4111a.4892.4892,0,0,0,.4258-.222A6.5214,6.5214,0,0,0,63.332,48.33a.3334.3334,0,0,0-.0165-.296,10.9625,10.9625,0,0,1-.5264-1.64c-.1417-.4827-.4028-.5572-.79-.2269a.64.64,0,0,0-.181.4885C61.784,47.1662,61.7565,47.6768,61.7266,48.1872ZM8.4517,20.0949a1.3589,1.3589,0,0,1-.2588.4907A2.9813,2.9813,0,0,0,7.52,22.3448c.0181.7273.2829,1.4077.3331,2.1253a.19.19,0,0,0,.1615.1905.9906.9906,0,0,0,.869-.7239A18.3463,18.3463,0,0,0,8.4517,20.0949Zm19.7154,26.38c.0068-.5391-.0005-.5481-.4568-.6111a2.1786,2.1786,0,0,1-.7616-.2489c-.2318-.1281-.3516-.0822-.3768.199a2.385,2.385,0,0,1-.5726,1.4337c-.0845.094-.1275.18-.037.3028a1.3048,1.3048,0,0,0,1.6573.2055A1.7611,1.7611,0,0,0,28.1671,46.4747ZM58.3087,24.9876a3.58,3.58,0,0,0-.171-.7077,1.4689,1.4689,0,0,0-2.0332-.84c-.2075.1048-.2587.19-.12.4066a3.3463,3.3463,0,0,1,.6095,1.515c.0172.2025.1072.2957.334.2161a4.0849,4.0849,0,0,1,1.0883-.2277C58.2478,25.3348,58.3254,25.2009,58.3087,24.9876Zm-8.051-3.6716a1.52,1.52,0,0,0-1.1767.4728c-.2685.2547-.2726.4052.0363.6045a3.145,3.145,0,0,1,1.22,1.0818c.0546.1024.1591.218.2809.01a3.13,3.13,0,0,1,.9208-1.0545c.2495-.169.2529-.363.0353-.5681A1.9876,1.9876,0,0,0,50.2577,21.316ZM11.3444,23.818a1.1272,1.1272,0,0,0-1.1687.585,1.5861,1.5861,0,0,0,.0184,1.44c.0623.1437.16.2.3007.0968A1.8271,1.8271,0,0,1,11.74,25.652c.2215.0131.2816-.0824.2862-.2947a2.9045,2.9045,0,0,1,.0607-.9509c.1314-.3615-.0623-.4937-.3607-.5582A2.7447,2.7447,0,0,0,11.3444,23.818ZM30.9772,43.5566c-.0183.2676-.0385.4295.1482.5349a1.3389,1.3389,0,0,0,1.8682-1.0279.7681.7681,0,0,0-.8933-.8743,1.8065,1.8065,0,0,1-.797-.0642c-.1811-.0615-.2589-.0051-.2552.1932A6.9113,6.9113,0,0,1,30.9772,43.5566ZM43.8907,25.2834a3.6547,3.6547,0,0,1,.3674-1.9055c.1047-.1682.0054-.2472-.1351-.3271a1.3584,1.3584,0,0,0-1.9867,1.4556.3054.3054,0,0,0,.3117.2793A2.4731,2.4731,0,0,1,43.8907,25.2834ZM32.3639,36.9106a1.0193,1.0193,0,0,0,.1583.1313,5.0255,5.0255,0,0,1,1.5315.9387c.1548.155.3082.0557.4424-.0572a1.2069,1.2069,0,0,0-.186-2.1014.3192.3192,0,0,0-.468.0458A5.0945,5.0945,0,0,1,32.3639,36.9106Zm20.2252-5.12a.6452.6452,0,0,0-.4911.228,3.4576,3.4576,0,0,0-.8144,1.4131c-.07.1655-.1538.3317.0478.4787.1891.1379.3581.2932.6164.1282.3662-.2339.7442-.449,1.1152-.6754a.7766.7766,0,0,0,.3841-.8789A1.1017,1.1017,0,0,0,52.5891,31.7909Zm6.6753,13.1505c-.5312-.0169-.5323-.0169-.5324.4717a2.64,2.64,0,0,1-.2186,1.08c-.0883.2-.0329.3074.1856.357a1.5587,1.5587,0,0,0,1.8189-1.75c-.0445-.2456-.1351-.3983-.4387-.31A1.8292,1.8292,0,0,1,59.2644,44.9414ZM6.9181,32.1024a1.7115,1.7115,0,0,0,.205.7474c.1357.2109.2221.2819.4691.0926a2.8832,2.8832,0,0,1,1.2829-.67c.1727-.0268.22-.0891.1118-.2543a3.5921,3.5921,0,0,1-.7485-1.2841c-.0217-.12-.1306-.095-.2209-.07A1.7509,1.7509,0,0,0,6.9181,32.1024Zm32.397-4.9706c.0048-.1917.0243-.38-.1913-.4321-.85-.2051-1.3916-.0034-1.5645.9641a.7112.7112,0,0,0,.8725.8414c.2031-.03.4068-.06.6113-.0735.2167-.0138.3009-.1208.2663-.3267A2.7005,2.7005,0,0,1,39.3151,27.1318Zm-19.38,4.4088c.0355-.5915-.1409-.912-.5429-1.0932-.25-.1126-.5133-.2326-.7581-.0186-.2382.2083-.18.4925-.1148.7558a6.91,6.91,0,0,0,.664,1.4682c.0852.1666.2053.3152.4266.1983.2031-.1073.4856-.1394.418-.4965C19.9713,32.0534,19.9574,31.744,19.9355,31.5406Zm33.04,16.3852a5.0966,5.0966,0,0,1-.6263,1.323c-.0955.1415-.0522.2248.0631.3226a1.41,1.41,0,0,0,2.1557-.52c.1046-.2394.0587-.3554-.2-.4042A2.782,2.782,0,0,1,52.976,47.9258Zm-6.2315,2.4228a1.1933,1.1933,0,0,0,.821-.2771c.0864-.0634.1652-.1426.0776-.2548a11.9619,11.9619,0,0,1-.8136-1.2976c-.0788-.133-.1517-.1512-.2652-.0353a2.128,2.128,0,0,1-.9733.5861c-.271.0729-.2651.23-.1564.432A1.4932,1.4932,0,0,0,46.7445,50.3486ZM17.4207,20.6146a1.2493,1.2493,0,0,0-1.0523.985c-.0108.1356.0612.1772.1632.22a2.5986,2.5986,0,0,1,1.14.6834c.0605.076.16.132.2071-.0029a7.2462,7.2462,0,0,1,.62-1.06.3042.3042,0,0,0-.0892-.439A2.147,2.147,0,0,0,17.4207,20.6146ZM36.4976,35.1313a.2632.2632,0,0,0-.1319-.202,1.1352,1.1352,0,0,1-.4493-.6946c-.0653-.2959-.2061-.2312-.3622-.0872-.3463.32-.6943.638-1.0283.97-.1775.1766-.2458.3667.0545.5135a1.0912,1.0912,0,0,1,.3652.3887c.2664.3671.4692.3864.7847.0457.2348-.2535.45-.525.6721-.79A1.3623,1.3623,0,0,0,36.4976,35.1313Zm10.1076,4.3339a.6148.6148,0,0,0,.4722-.2781c.3789-.448.7636-.8911,1.1393-1.3418.1017-.1219.2426-.2482.0615-.4266a.3423.3423,0,0,0-.5044-.0573,9.8272,9.8272,0,0,1-1.4256.8191.7027.7027,0,0,0-.33.8294A.5392.5392,0,0,0,46.6052,39.4652Zm-27.59-6.3261c-.0937-.1676-.1921-.3768-.3206-.5656-.1905-.28-.2147-.6311-.4017-.9078a.7921.7921,0,0,0-1.1151-.2106c-.2981.2244-.2895.5245.0277.932a4.81,4.81,0,0,0,1.3168,1.0973c.1063.0659.2089.1154.313.02A.4314.4314,0,0,0,19.0149,33.1391ZM16.7983,35.625a3.648,3.648,0,0,0,1.2829-.2c.2631-.0819.2693-.2537.2728-.4729a.3233.3233,0,0,0-.3292-.3506,11.0574,11.0574,0,0,1-1.1984-.2622.8929.8929,0,0,0-.8882.5442.4745.4745,0,0,0,.1588.6119C16.2969,35.6849,16.5607,35.5958,16.7983,35.625Zm.2983,2.2034a.661.661,0,0,0,.3087.6729.54.54,0,0,0,.6136-.062A3.9517,3.9517,0,0,0,19.0234,37.29c.2-.3278-.2-.38-.275-.583-.0391-.1058-.1472-.1166-.2613-.06-.2859.1415-.578.27-.8665.4064A.8825.8825,0,0,0,17.0966,37.8284Zm4.4175,1.1926a5.1317,5.1317,0,0,0-.21-1.22c-.0277-.1393-.1-.24-.2553-.2355-.16.0047-.3939-.067-.452.1129a2.559,2.559,0,0,0-.2994,1.547c.1108.3816.5223.7222.7921.6667C21.3664,39.8354,21.5318,39.5055,21.5141,39.021Zm30.0581.9842c-.01-.04-.0323-.1526-.0657-.2622a7.3437,7.3437,0,0,0-.6857-1.5415c-.09-.1558-.1818-.2871-.3879-.2274-.2247.0652-.1854.2547-.1717.4142.0339.3953.1208.79.1151,1.1837a1.0609,1.0609,0,0,0,.398.87c.1431.1253.2714.2883.4992.1734A.57.57,0,0,0,51.5722,40.0052ZM29.6016,25.3479c.2536-.03.47-.0583.6866-.079a.3269.3269,0,0,0,.2993-.203,1.274,1.274,0,0,0-.3339-1.2368.9117.9117,0,0,0-1.0573-.1736c-.1947.0761-.2231.16-.1467.3442a2.1633,2.1633,0,0,1,.2267,1.0421C29.25,25.3192,29.3613,25.4308,29.6016,25.3479Zm-4.4822-3.8045a1.9476,1.9476,0,0,0-.5234-.7848.9273.9273,0,0,0-1.3083.0944.2207.2207,0,0,0-.0037.3359,3.6891,3.6891,0,0,1,.682,1.1848c.035.0956.086.1862.1819.0761a4.6958,4.6958,0,0,1,.8575-.6345A.2755.2755,0,0,0,25.1194,21.5434ZM49.5167,30.926a.59.59,0,0,0-.57.6107,4.493,4.493,0,0,0,.2915,1.6175c.0495.1624.1641.1953.3305.1844.1786-.0117.2718-.0982.28-.2524.0268-.4924.2427-.9419.3068-1.4249A.6356.6356,0,0,0,49.5167,30.926Zm-3.4991,5.4465c.29-.0422.7579-.1037,1.223-.1823.1384-.0234.29-.0955.2806-.2663-.0078-.1425.044-.3768-.13-.4056a3.3845,3.3845,0,0,0-1.7248-.1816c-.31.1065-.6766.184-.6639.6234C45.01,36.244,45.3018,36.3764,46.0176,36.3725ZM18.5288,38.8969a.4864.4864,0,0,0,.2067.4059c.3351.276.7973.1312,1.0356-.343a4.7846,4.7846,0,0,0,.3575-1.0925c.0389-.17.082-.3373-.15-.4031-.2207-.0625-.4393-.2463-.6473.051a5.7744,5.7744,0,0,1-.6789.8821C18.5305,38.515,18.535,38.6751,18.5288,38.8969ZM7.5179,39.69a1.54,1.54,0,0,0,.6986,1.14.2883.2883,0,0,0,.474-.1187,3.7583,3.7583,0,0,1,.6046-.9284c.1062-.1106.1325-.2416-.0646-.28a4.7831,4.7831,0,0,1-1.2036-.49.2455.2455,0,0,0-.3871.1644A4.9952,4.9952,0,0,0,7.5179,39.69ZM50.22,33.1592c-.0418.1678.1434.2973.4074.3658.2974.0771.2949-.1888.3627-.3429a8.6376,8.6376,0,0,0,.5544-1.628c.0554-.2527.1007-.5328-.1591-.6429-.249-.1055-.4764.0917-.5914.3131A5.4078,5.4078,0,0,0,50.22,33.1592Zm-2.9,6.6055a.5227.5227,0,0,0,.3953.6024.5508.5508,0,0,0,.6879-.3543,7.6174,7.6174,0,0,0,.5316-1.8034c.0156-.1172.0543-.24-.0792-.3049s-.22.0341-.2926.1228c-.3658.4437-.7248.893-1.0926,1.335A.5752.5752,0,0,0,47.32,39.7647Zm-1.5687-1.8271a4.1829,4.1829,0,0,0,1.9329-1.0268c.09-.0794.0613-.19.0052-.2833a.2238.2238,0,0,0-.2645-.1036,13.1838,13.1838,0,0,1-1.6628.2937.8235.8235,0,0,0-.5826.7739C45.2413,37.8942,45.4787,37.9429,45.7508,37.9376Zm4.3019,1.68c-.0539-.405-.1132-.8094-.1589-1.2153-.02-.1732-.0635-.2938-.2688-.3-.202-.0055-.2576.1206-.3028.28-.1184.419-.2467.8353-.3663,1.2541a.8606.8606,0,0,0,.3813.9932c.2486.1652.42.1361.5434-.1483A2.1256,2.1256,0,0,0,50.0527,39.6178Zm-29.3622-7.025a.337.337,0,0,0,.3562-.3049,12.4483,12.4483,0,0,1,.4-1.5584.6938.6938,0,0,0-.4088-.7106c-.3411-.069-.508.1654-.59.4269a3.4619,3.4619,0,0,0-.01,1.9676C20.4684,32.5262,20.5086,32.6444,20.6905,32.5928Zm26.56,2.4845a.2945.2945,0,0,0,.3661-.1992c.08-.1982-.002-.3032-.1679-.4032-.3279-.1979-.6492-.4077-.9659-.6234a.7869.7869,0,0,0-.9915.0435.5361.5361,0,0,0-.2586.5181c.0226.2257.2036.2789.3684.3409C46.1326,34.9541,46.7091,34.9284,47.25,35.0773ZM54.425,33.92a.3453.3453,0,0,0-.0725-.281.61.61,0,0,0-.71-.1382,5.7189,5.7189,0,0,0-1.5133.8915c-.162.1155-.0893.2734-.0332.42.0692.1807.2055.1618.351.1232.4705-.1248.9362-.2754,1.4133-.3653C54.2635,34.4936,54.348,34.2061,54.425,33.92Zm-30.8728,1.1a2.3954,2.3954,0,0,0-.3068.0021c-.2818.0367-.2445.2879-.3047.472-.0382.117-.0585.2411.096.2821a6.3916,6.3916,0,0,0,1.9365.4432.406.406,0,0,0,.403-.235c.0856-.1905-.0568-.2823-.1646-.3868A2.31,2.31,0,0,0,23.5522,35.02Zm24.2457-3.644c-.3833-.0064-.5761.2958-.4426.6963a4.1831,4.1831,0,0,0,.8681,1.3457.3443.3443,0,0,0,.44.13c.1986-.0921.1762-.2692.1446-.4324-.073-.3772-.15-.7544-.2455-1.1262A.9374.9374,0,0,0,47.7979,31.3761Zm-24.682,7.62a3.7069,3.7069,0,0,0-.9319-1.6791c-.0708-.0808-.1344-.214-.28-.1248-.1336.0815-.269.1762-.2349.3614.0907.4918.1729.9863.2923,1.4713a.7038.7038,0,0,0,.7821.4247A.46.46,0,0,0,23.1159,38.9965ZM16.7268,32.701a.5491.5491,0,0,0-.6.432.5237.5237,0,0,0,.3078.6008,6.2019,6.2019,0,0,0,1.638.5015c.1433.04.32.1125.4018-.0817.0685-.1628-.0784-.2584-.1866-.3419a11.5863,11.5863,0,0,1-1.2087-.9993A.4506.4506,0,0,0,16.7268,32.701ZM62.863,22.2869a9.773,9.773,0,0,1,.1838,1.6611c.0106.5133.0556.9983.5805,1.2733.1165.0611.1868.2865.3333.19a.5838.5838,0,0,0,.2469-.53,1.0962,1.0962,0,0,0-.1095-.3251c-.1476-.3534-.3032-.7035-.4484-1.0579A2.8943,2.8943,0,0,0,62.863,22.2869ZM22.83,31.068c.0092-.3786-.0908-.5508-.3375-.6341-.28-.0943-.4336.0886-.5741.276a1.0483,1.0483,0,0,0-.18.3382c-.1212.4447-.2272.8937-.3354,1.3419a.2776.2776,0,0,0,.1758.3426c.1308.0631.2553.0745.3406-.0576.2985-.4622.5938-.9267.88-1.3969A.4591.4591,0,0,0,22.83,31.068Zm29.9832,8.5932a2.8534,2.8534,0,0,0-.1878-.5917,4.7819,4.7819,0,0,0-.8841-1.2891c-.0881-.1114-.173-.2878-.369-.1543-.1713.1166-.2664.2406-.152.4749a13.8873,13.8873,0,0,1,.5756,1.3374.8854.8854,0,0,0,.6155.53C52.6654,40.0569,52.794,39.9083,52.8134,39.6612ZM36.1209,33.849c-.0468.3933.2106.6188.452.8519.1292.1248.2545.0857.3764-.0132.2378-.1931.4664-.3993.716-.5759.1858-.1314.16-.22.0071-.3512a5.39,5.39,0,0,1-.6146-.52c-.1294-.1488-.2456-.4141-.4485-.3677-.241.0551-.3388.3306-.4139.5642A3.0214,3.0214,0,0,0,36.1209,33.849Zm10.5113-1.5453a.5592.5592,0,0,0-.59.3619c-.1093.2581.0961.4525.2664.59a9.8557,9.8557,0,0,0,1.4122.9262c.1639.0911.2346.0068.2891-.13a.3278.3278,0,0,0-.0943-.354,6.52,6.52,0,0,1-.7644-1.1493A.53.53,0,0,0,46.6322,32.3037Zm7.4157,2.6333a7.8079,7.8079,0,0,0-1.4028.3118c-.1619.05-.3336.1146-.31.3285.027.2447.2351.2427.41.2446a2.8782,2.8782,0,0,1,1.1555.234c.2922.1307.4583-.0474.6371-.2049a.4388.4388,0,0,0,.0627-.5619A.5379.5379,0,0,0,54.0479,34.937Zm8.7875-4.0939a1.4338,1.4338,0,0,0-.5322-1.1447c-.2184-.1745-.3843-.1755-.4655.1453a1.7515,1.7515,0,0,1-.4111.8547c-.1982.1975-.1145.2968.1068.3757a2.93,2.93,0,0,1,.7.3091c.3242.2227.39.2.53-.1711A.753.753,0,0,0,62.8354,30.8431Zm-9.5416,7.8823a.67.67,0,0,0,.5577-.3848c.0937-.2418-.1-.3712-.2451-.5116a5.5625,5.5625,0,0,0-1.3026-.792c-.13-.0706-.26-.13-.3739.02a.2737.2737,0,0,0,.0477.3806,5.82,5.82,0,0,1,.6967.9564A.63.63,0,0,0,53.2938,38.7254Zm-.6555-2.5415c-.2013-.0254-.3658.0095-.4287.23-.0553.1943.1018.2692.2234.3a5.241,5.241,0,0,1,1.2022.6642.531.531,0,0,0,.7862-.1628c.182-.3085.0064-.4947-.2356-.667C53.7159,36.2137,53.1487,36.3176,52.6383,36.1839ZM24.29,38.1975a.9683.9683,0,0,0-.4364-.7769c-.3369-.2551-.7011-.475-1.06-.7-.1007-.063-.2156-.1815-.3466-.0725-.1535.1278-.0512.2739.0322.3743a7.9171,7.9171,0,0,1,.8225,1.2895.5146.5146,0,0,0,.3507.2172C24.0822,38.6449,24.2859,38.5413,24.29,38.1975Zm.6669-5.4962a.3761.3761,0,0,0-.5251-.3249,5.5144,5.5144,0,0,0-1.5869.9839.2414.2414,0,0,0-.08.3367c.081.138.1933.0859.3039.0542a8.27,8.27,0,0,1,1.1124-.2786A1.1535,1.1535,0,0,0,24.9572,32.7013Zm-.8951-1.0084c.0226-.213-.1165-.3259-.2626-.4364-.1589-.12-.2923-.0427-.4142.0579a5.0779,5.0779,0,0,0-1.1031,1.59.1334.1334,0,0,0,.04.173c.1044.08.19.018.276-.0418.3771-.26.7469-.5327,1.1361-.7737A.7111.7111,0,0,0,24.0621,31.6929Zm-.2808,2.89a4.22,4.22,0,0,0,1.541-.2225c.1506-.0752.2707-.1683.2559-.3422-.0146-.171-.15-.1992-.3056-.223a4.8733,4.8733,0,0,0-2.0883.3574.213.213,0,0,0-.1426.2792c.0332.1222.1326.1479.24.15C23.4481,34.5858,23.6147,34.5831,23.7813,34.5831ZM41.1522,47.0948c.2658.0219.4044-.0787.2944-.4055a1.9948,1.9948,0,0,1-.0993-.7578c.0084-.1424-.0195-.2505-.2157-.22-.3032.0466-.6093.076-.9152.1008-.1669.0136-.2132.0833-.1986.2486A1.1385,1.1385,0,0,0,41.1522,47.0948ZM16.7451,36.9835a4.442,4.442,0,0,0,1.6118-.75.2669.2669,0,0,0,.0516-.3209c-.0527-.1423-.1793-.1218-.2943-.1022-.3913.0667-.7827.1326-1.1726.2062a.785.785,0,0,0-.5789.4579C16.2208,36.7729,16.3666,36.9854,16.7451,36.9835ZM4.5323,32.473A34.1963,34.1963,0,0,0,4.55,37.694,24.1788,24.1788,0,0,0,4.5323,32.473Zm19.9355,4.8837c.2867-.0019.5208-.0332.5719-.2994.0542-.2821-.1868-.3864-.3907-.445-.542-.1558-1.0928-.2813-1.6407-.4167-.06-.0149-.1392-.033-.158.0514a.1512.1512,0,0,0,.0577.1281,11.65,11.65,0,0,1,1.3909.9615C24.3489,37.3765,24.448,37.3549,24.4678,37.3567Z" fill="#fbc926"/><path d="M59.2986,27.8629a.3181.3181,0,0,1-.1566.2286q-.842.67-1.6851,1.3387c-.1042.0825-.2264.1591-.3395.0309-.1209-.1371.03-.2029.1056-.2747.5512-.5238,1.2353-.8671,1.8262-1.3375C59.1345,27.7809,59.23,27.7559,59.2986,27.8629Z" fill="#fbc926"/><path d="M9.692,35.8231a2.1437,2.1437,0,0,1,.723.0814c.106.0336.1981.0844.183.2093-.0163.1353-.1356.1564-.2353.1357a10.0517,10.0517,0,0,0-2.1794.0532c-.13.0011-.2824.03-.3055-.1444-.0261-.1965.1445-.2384.2813-.2353C8.6737,35.9347,9.18,35.842,9.692,35.8231Z" fill="#fbc926"/><path d="M61.5333,34.6788a14.6047,14.6047,0,0,0-1.6213.004c-.1027.0211-.2621.0463-.2639-.1249-.0016-.1382.1326-.1861.2523-.1824.4863.0149.9722.046,1.4585.0595.32.009.641-.0034.9616-.0027.0941,0,.2376-.0527.2438.0979.0052.1292-.1375.142-.2344.1452C62.0486,34.6849,61.7667,34.6788,61.5333,34.6788Z" fill="#fbc926"/><path d="M13.3423,40.9644a.1582.1582,0,0,1,.1475.11.1806.1806,0,0,1-.0595.2088,11.26,11.26,0,0,1-1.87,1.5228c-.0577.0278-.1133.0608-.173.0828-.0883.0326-.1815.0489-.2315-.0586a.1532.1532,0,0,1,.0947-.2191,6.4746,6.4746,0,0,0,1.7727-1.4526A.5964.5964,0,0,1,13.3423,40.9644Z" fill="#fbc926"/><path d="M46.5727,23.9773c-.0248-.1385-.0317-.2125.0378-.241.0968-.04.135.0456.17.1117a1.823,1.823,0,0,1,.2293.7283,5.8032,5.8032,0,0,0,.255,1.6289c.0407.11.077.2427-.0669.298-.151.0579-.1862-.0821-.24-.1829a2.6706,2.6706,0,0,1-.1917-.8982A5.0342,5.0342,0,0,0,46.5727,23.9773Z" fill="#fbc926"/><path d="M50.2439,48.5187a.7591.7591,0,0,1-.3037-.7373c-.0128-.7415.0076-1.4836.0162-2.2254.0012-.1043.0049-.23.1492-.2151.128.0133.1359.1413.1368.242.0041.4609.0016.9218.0015,1.3828Z" fill="#fbc926"/><path d="M21.0083,24.0979a7.08,7.08,0,0,1-.0539,1c-.0253.1047-.0107.2626-.1778.24-.127-.0169-.1308-.15-.1186-.25a13.2914,13.2914,0,0,0,.0879-2.063c-.003-.0888.0092-.1941.1391-.1794a.199.199,0,0,1,.1652.2262C21.0466,23.3909,21.0257,23.7094,21.0083,24.0979Z" fill="#fbc926"/><path d="M55.3922,44.493a.2319.2319,0,0,1,.213.1782c.1887.589.5828,1.0753.8153,1.6418.0362.0881.1387.1937.02.2693-.0974.0618-.1489-.0633-.207-.1237a6.96,6.96,0,0,1-.9593-1.5558C55.1861,44.7445,55.1611,44.5544,55.3922,44.493Z" fill="#fbc926"/><path d="M61.1887,42.19c-.6921-.3893-1.3666-.5907-1.9959-.8968a.8745.8745,0,0,1-.1618-.1034c-.1112-.0888-.2484-.19-.1317-.3445.1018-.1355.2363-.0575.3366.0283a11.9116,11.9116,0,0,0,1.5329.7867A.7451.7451,0,0,1,61.1887,42.19Z" fill="#fbc926"/><path d="M9.8361,28.646c.121.0749.2727.1664.422.2615.527.3354,1.1254.5423,1.6345.91.1035.0748.251.143.1764.2932-.0847.1706-.2247.0611-.3279.0024-.6418-.3654-1.28-.7369-1.9193-1.1071-.1031-.06-.196-.1311-.1687-.27C9.6674,28.6634,9.7254,28.6378,9.8361,28.646Z" fill="#fbc926"/><path d="M52.3515,26.529a5.3728,5.3728,0,0,1,.2736-1.0057c.1379-.4106.2684-.8237.4056-1.2346.0317-.0951.0679-.2279.19-.2014.1578.0341.1127.1827.0826.2863-.2169.7474-.4417,1.4925-.6622,2.2388-.0307.1041-.0637.2094-.2.1713C52.3291,26.7523,52.3475,26.6471,52.3515,26.529Z" fill="#fbc926"/><path d="M23.8008,47.1053a.4422.4422,0,0,1-.2688-.3143c-.199-.602-.1054-1.2511-.2995-1.8543a.1422.1422,0,0,1,.1057-.18c.1195-.0415.1917.0221.2449.1249a2.1282,2.1282,0,0,1,.1139.79,5.5959,5.5959,0,0,0,.1915,1.1709C23.9236,46.9479,23.9753,47.0713,23.8008,47.1053Z" fill="#fbc926"/><path d="M41.3737,26.7921a.3177.3177,0,0,1,.2163.1468q.7347.9615,1.466,1.9256c.08.105.1757.2412.0416.3356s-.2252-.0484-.3033-.1522q-.7392-.9829-1.4807-1.9644a.2322.2322,0,0,1-.0574-.2131A.11.11,0,0,1,41.3737,26.7921Z" fill="#fbc926"/><path d="M25.2756,26.4776a.4345.4345,0,0,1,.0263-.1044c.3233-.6259.6465-1.2519.9749-1.8751.0549-.1041.1435-.2089.276-.1434.1445.0713.0772.2034.0292.3022a6.0837,6.0837,0,0,1-.3133.5735,8.0559,8.0559,0,0,0-.6083,1.2382c-.0451.11-.1168.2072-.2591.1839C25.3126,26.6379,25.276,26.5722,25.2756,26.4776Z" fill="#fbc926"/><path d="M39.9649,37.0935q-1.0113-.0791-2.0227-.1581c-.0893-.007-.206-.0058-.2059-.12s.1176-.124.2059-.12c.3694.0157.7382.0461,1.1077.0567s.7415,0,1.1121.0071c.1176.0023.3-.045.3036.138.004.1751-.1636.2009-.31.2073-.0638.0027-.1278,0-.1917,0Z" fill="#fbc926"/><path d="M29.3805,43.6552c-.0423.1823-.1481.1671-.26.0983a1.5763,1.5763,0,0,1-.4415-.42c-.3018-.41-.6054-.8194-.9051-1.2313-.0725-.1-.1084-.2144.0069-.3071.1042-.0838.1932-.0245.2609.0634q.6408.8323,1.2773,1.6681A.6653.6653,0,0,1,29.3805,43.6552Z" fill="#fbc926"/><path d="M33.0338,34.0831a1.563,1.563,0,0,1-.8411.1362c-.5377-.0061-1.075-.0671-1.6119-.1133-.12-.01-.29-.0069-.2638-.1978.0242-.1749.1856-.16.3084-.146a19.1967,19.1967,0,0,0,2.1851.17A.2056.2056,0,0,1,33.0338,34.0831Z" fill="#fbc926"/><path d="M45.3783,44.5571a2.5746,2.5746,0,0,1-.3262.7112c-.2946.51-.61,1.009-.9234,1.5084-.0467.0744-.0664.2406-.2047.1637-.098-.0545-.0532-.1883-.0271-.2858a5.1879,5.1879,0,0,1,.6076-1.108c.1908-.3476.3962-.6861.5534-1.0516.0344-.08.0683-.1852.1816-.1667C45.3426,44.3452,45.3707,44.4383,45.3783,44.5571Z" fill="#fbc926"/><path d="M42.0028,42.14c-.03.0493-.0588.1488-.1245.1943a13.3324,13.3324,0,0,1-1.95,1.344c-.0738.0339-.1608.1314-.2253.009-.0437-.0829.0531-.1282.1061-.1808.5742-.5689,1.3046-.9415,1.8858-1.5018a.1852.1852,0,0,1,.211-.05C41.9691,41.9821,42.0036,42.0337,42.0028,42.14Z" fill="#fbc926"/><path d="M17.1789,46.6814c.1323-.5539.27-1.1651.4283-1.7707a3.1651,3.1651,0,0,0,.1317-.4787c.0094-.0917.0421-.1919.1517-.19.1419.0026.1476.1287.1431.2281a1.71,1.71,0,0,1-.1151.64,5.66,5.66,0,0,0-.46,1.6581c-.0131.1059-.0176.2742-.1636.26C17.14,47.0133,17.2092,46.847,17.1789,46.6814Z" fill="#fbc926"/><path d="M28.517,29.12c-.0939-.0023-.1483-.0348-.1677-.1029a.2021.2021,0,0,1,.1031-.2291q.3852-.2526.78-.4909.5429-.3261,1.0933-.6392c.1129-.0642.2683-.1218.346.009.0752.1267-.0808.203-.1691.2584-.618.3877-1.2414.7667-1.8641,1.1467A.646.646,0,0,1,28.517,29.12Z" fill="#fbc926"/><path d="M38.56,31.2258a3.0758,3.0758,0,0,1,.4832.1288,6.9141,6.9141,0,0,0,1.5052.4532c.1539.03.3394.0674.2825.2779-.0487.18-.2195.1483-.3569.0984q-1.0119-.3675-2.0206-.744c-.0593-.022-.1325-.0565-.1154-.13C38.3667,31.186,38.4742,31.2248,38.56,31.2258Z" fill="#fbc926"/><path d="M30.2738,38.3588a2.5885,2.5885,0,0,1,.3709.1846c.5639.3994,1.1965.6811,1.7778,1.05.0847.0538.2.0966.1469.2279-.0269.0665-.1076.0638-.1693.04a11.7776,11.7776,0,0,1-2.1312-1.1034.4428.4428,0,0,1-.1579-.2109C30.0648,38.4189,30.1377,38.3576,30.2738,38.3588Z" fill="#fbc926"/><path d="M56.6082,35.8346c.1537,0,.3075-.0025.4611.001.0789.0018.1662.018.1726.1142.0059.09-.07.1375-.1487.1487q-.6462.0924-1.294.1738a.1428.1428,0,0,1-.1769-.1524.2111.2111,0,0,1,.1829-.2146A3.6252,3.6252,0,0,1,56.6082,35.8346Z" fill="#fbc926"/><path d="M52.9345,40.8462a.2182.2182,0,0,1,.2172.1471q.3675.7349.7255,1.4744c.0334.0687.0517.1533-.0409.1974-.0723.0345-.1271-.0184-.1587-.0714-.2936-.493-.59-.9846-.8683-1.4861A.1768.1768,0,0,1,52.9345,40.8462Z" fill="#fbc926"/></svg>