<svg id="Henna" xmlns="http://www.w3.org/2000/svg" viewBox="0 0 30 30"><g opacity="0.85"><path d="M.41,15.2944A22.1014,22.1014,0,0,1,.5287,12.936,11.5935,11.5935,0,0,1,.9559,10.89a12.5,12.5,0,0,1,1.3006-2.997c.2441-.3851.4525-.7938.71-1.1692A15.2671,15.2671,0,0,1,3.9852,5.4023c.2758-.32.5663-.6267.8637-.9256a9.6053,9.6053,0,0,1,1.0646-.9361,13.9475,13.9475,0,0,1,1.633-1.0785c.592-.3237,1.1919-.6276,1.8143-.8962A14.3891,14.3891,0,0,1,12.0163.7317c.4888-.1064.99-.1571,1.4873-.2226A14.5541,14.5541,0,0,1,15.6657.4054a13.1944,13.1944,0,0,1,2.3119.2755,12.6884,12.6884,0,0,1,2.8205.9206,20.6862,20.6862,0,0,1,2.0371,1.0636,12.494,12.494,0,0,1,1.197.8529,9.189,9.189,0,0,1,.8109.6888A13.733,13.733,0,0,1,25.92,5.3445c.281.3441.5647.6861.8281,1.0434.2667.3616.5428.7151.7818,1.0993a11.4874,11.4874,0,0,1,.8006,1.5053,12.841,12.841,0,0,1,.8424,2.6325c.1019.52.2075,1.0391.2867,1.5623a9.7935,9.7935,0,0,1,.1239,2.0216c-.0281.501-.01,1.0034-.0692,1.5044a17.2726,17.2726,0,0,1-.55,2.5933c-.0932.3368-.217.6627-.3122.9984a4.7885,4.7885,0,0,1-.2714.5611,11.154,11.154,0,0,1-.7361,1.5393,18.151,18.151,0,0,1-1.39,1.9327,11.0441,11.0441,0,0,1-1.0939,1.17c-.3046.273-.6067.551-.935.8-.5252.3977-1.0456.8025-1.588,1.1756a4.9409,4.9409,0,0,1-1.0792.586c-.3478.1286-.6814.2963-1.0187.4522a13.0959,13.0959,0,0,1-2.7025.8462,12.055,12.055,0,0,1-2.5206.2292,14.3869,14.3869,0,0,1-2.7429-.2148,18.802,18.802,0,0,1-2.1266-.48,12.8784,12.8784,0,0,1-1.6227-.6181A13.9161,13.9161,0,0,1,7.5216,27.61c-.5335-.3192-1.0411-.6734-1.5418-1.0391a11.1013,11.1013,0,0,1-1.69-1.55c-.3175-.3521-.622-.7161-.9084-1.09A11.9492,11.9492,0,0,1,2.0779,21.98c-.2091-.4245-.44-.8384-.6239-1.2752a11.8468,11.8468,0,0,1-.4261-1.21,17.8423,17.8423,0,0,1-.5412-2.5911A9.5745,9.5745,0,0,1,.41,15.2944Zm.155-.0647A11.2507,11.2507,0,0,0,.61,16.6054a20.7745,20.7745,0,0,0,.47,2.4734,8.8516,8.8516,0,0,0,.3887,1.2227,11.8064,11.8064,0,0,0,.6081,1.335c.1737.31.3491.6211.5248.9308a14.7126,14.7126,0,0,0,1.1584,1.5819,14.2612,14.2612,0,0,0,1.2,1.349,10.1287,10.1287,0,0,0,1.125.9469,16.7653,16.7653,0,0,0,1.5508,1.0581,13.6922,13.6922,0,0,0,1.2941.6554c.5027.232,1.0246.4092,1.5419.5989a9.9792,9.9792,0,0,0,1.8071.43,15.1387,15.1387,0,0,0,3.0781.2653,16.5384,16.5384,0,0,0,1.8027-.1329,12.5319,12.5319,0,0,0,2.825-.7378c.2045-.0819.3962-.1888.6037-.2639a13.17,13.17,0,0,0,1.3406-.5888,9.749,9.749,0,0,0,1.4838-1.0026c.4779-.358.9425-.732,1.389-1.1308a12.3752,12.3752,0,0,0,1.1775-1.187,14.7963,14.7963,0,0,0,1.39-1.87,7.9714,7.9714,0,0,0,.5728-1.0524c.1228-.2907.2275-.59.3662-.8722a4.59,4.59,0,0,0,.328-.7387c.1751-.6064.364-1.21.4893-1.8291a9.7262,9.7262,0,0,0,.2674-2.0078c-.0023-.2931-.0055-.5864.021-.88a5.7348,5.7348,0,0,0-.0093-1.2656c-.09-.6876-.1866-1.3737-.3414-2.0505a12.8618,12.8618,0,0,0-.4451-1.7155,15.5147,15.5147,0,0,0-.9146-2.0522A14.9536,14.9536,0,0,0,26.572,6.4172c-.2762-.37-.5707-.726-.8738-1.0762a12.1583,12.1583,0,0,0-1.366-1.37,14.89,14.89,0,0,0-1.324-.9938,14.04,14.04,0,0,0-1.6689-.9589,14.0505,14.0505,0,0,0-2.256-.9052A12.3305,12.3305,0,0,0,17.24.6969a12.6958,12.6958,0,0,0-2.8347-.11c-.4544.0453-.9135.0576-1.3636.1285a15.8521,15.8521,0,0,0-2.1793.4683,14.8425,14.8425,0,0,0-2.2152.8645,14.544,14.544,0,0,0-1.72.9714c-.4115.2768-.8241.553-1.2055.869A13.8382,13.8382,0,0,0,4.0568,5.5682,16.5157,16.5157,0,0,0,2.17,8.3672a12.0674,12.0674,0,0,0-.8578,1.9658,11.9974,11.9974,0,0,0-.5343,1.9544A16.0949,16.0949,0,0,0,.5651,15.23Z" fill="#fbc926"/><path d="M1.2227,14.9126a13.1628,13.1628,0,0,1,.1261-1.9744,11.9488,11.9488,0,0,1,.3535-1.7158,12.9429,12.9429,0,0,1,.693-1.9536,7.2227,7.2227,0,0,1,.5733-1.0144c.1959-.2964.3558-.6141.5589-.9065.2342-.3371.46-.6795.7135-1.0032A12.44,12.44,0,0,1,5.5562,4.9159c.2909-.271.5958-.5283.9056-.78.2539-.206.5124-.4014.785-.581a10.5218,10.5218,0,0,1,1.36-.7424c.4244-.1975.8438-.4068,1.2822-.571.417-.1563.8554-.2467,1.2792-.3811a10.9274,10.9274,0,0,1,2.2467-.3776,6.6852,6.6852,0,0,1,.9607-.0614,19.6926,19.6926,0,0,1,4.1747.4772,13.17,13.17,0,0,1,2.4146.8591,14.1694,14.1694,0,0,1,1.682.9045,9.95,9.95,0,0,1,1.5008,1.202,17.4688,17.4688,0,0,1,1.2274,1.3045,17.8558,17.8558,0,0,1,1.3065,1.82,11.9389,11.9389,0,0,1,.9735,1.9685,13.202,13.202,0,0,1,.6781,2.33,16.4081,16.4081,0,0,1,.2472,2.42,8.2857,8.2857,0,0,1-.0583,1.3814c-.0591.4923-.1014.9861-.1932,1.4749-.1072.5707-.2232,1.1379-.367,1.7015a8.325,8.325,0,0,1-1.1342,2.46c-.4834.7472-1.0125,1.464-1.5458,2.1769a5.378,5.378,0,0,1-.6939.7127c-.302.278-.5918.57-.8993.8422-.35.31-.7254.5874-1.1011.8656-.2951.2184-.6108.4019-.92.5948-.2623.1634-.55.2846-.8211.435a8.8521,8.8521,0,0,1-1.3874.5756,8.5805,8.5805,0,0,1-1.8531.4482c-.4306.05-.8559.14-1.2891.1694a11.0617,11.0617,0,0,1-1.8436,0c-.8061-.08-1.6168-.1279-2.4177-.2512a9.4656,9.4656,0,0,1-1.7451-.4481,15.5329,15.5329,0,0,1-1.5039-.6478c-.4976-.2393-.9782-.5112-1.4568-.7874a7.7494,7.7494,0,0,1-1.2277-.8849,14.4322,14.4322,0,0,1-1.2645-1.2686,18.9129,18.9129,0,0,1-1.2966-1.6444,11.8257,11.8257,0,0,1-.9435-1.54,8.5871,8.5871,0,0,1-.5162-1.2468c-.0921-.29-.1939-.5771-.2864-.867a12.1331,12.1331,0,0,1-.2988-1.2993c-.1124-.558-.2108-1.1166-.2721-1.6826C1.2053,15.6229,1.2385,15.2675,1.2227,14.9126Zm1.7106-2.8084a.082.082,0,0,0-.07.053,8.58,8.58,0,0,1-.4729.74,2.8062,2.8062,0,0,0-.4812.9988,9.7888,9.7888,0,0,0-.24,1.3281.4635.4635,0,0,0,.0911.3611A4.7389,4.7389,0,0,1,2.4169,16.62a5.6112,5.6112,0,0,1,.4873,2.1958.4824.4824,0,0,0,.0822.2534A8.7484,8.7484,0,0,0,4.1971,20.56,6.6454,6.6454,0,0,0,6.36,21.9781a7.5538,7.5538,0,0,0,2.4113.624,8.5922,8.5922,0,0,0,1.0978.0114.4149.4149,0,0,0,.4144-.3783,1.3484,1.3484,0,0,1,.3122-.5931,3.5306,3.5306,0,0,1,.8337-.6552,14.1242,14.1242,0,0,0,1.7319-1.012,5.0759,5.0759,0,0,0,1.34-1.542c.0424-.0766.0434-.2342.1625-.1963.1325.0423.0691.1871.0446.2838a4.4258,4.4258,0,0,1-.7546,1.6083c-.0592.0782-.0488.1255.0324.1761A2.3074,2.3074,0,0,1,14.6,20.95a.1078.1078,0,0,1,.0074.15c-.0857.1113-.1557.2327-.2516.3386-.1.11-.2323.1787-.3291.2894-.05.0569-.1033.0833.0088.1584a3.9232,3.9232,0,0,1,.581.4571.18.18,0,0,1,.0318.2759,2.4077,2.4077,0,0,1-.61.5792c-.1131.0768-.1229.1214-.0191.2259a2.1312,2.1312,0,0,1,.568.64.2045.2045,0,0,1-.0476.27,2.5048,2.5048,0,0,1-.6478.4536c-.1087.0457-.1035.0935-.0421.1734a4.54,4.54,0,0,1,.7192,1.4083,6.7812,6.7812,0,0,1,.2292.9881c.01.0594.0229.14-.05.1628-.0756.0236-.0853-.0633-.1032-.1083a4.1128,4.1128,0,0,0-.5755-.9326A5.0175,5.0175,0,0,0,12.6909,25.3c-.3411-.2171-.7044-.4-1.0619-.5907a3.3585,3.3585,0,0,1-1.3068-1.0958.1417.1417,0,0,0-.145-.0671,9,9,0,0,1-2.3315-.24,4.149,4.149,0,0,1-1.49-.5293,12.8789,12.8789,0,0,1-1.86-1.289A16.3393,16.3393,0,0,1,3.3049,20.36c-.0486-.05-.0908-.1161-.1853-.1253a.7893.7893,0,0,0,.136.4622c.3661.45.7107.918,1.0934,1.355a7.8731,7.8731,0,0,0,1.42,1.2455,13.4523,13.4523,0,0,0,1.4025.7718,1.6552,1.6552,0,0,0,1.1751.19.4593.4593,0,0,1,.5622.2333.1208.1208,0,0,0,.1589.0593,2.5863,2.5863,0,0,1,1.1559-.0288,3.3472,3.3472,0,0,1,1.3349.4465,9.2211,9.2211,0,0,1,.9372.72,3.9858,3.9858,0,0,1,.86,1.0327c.1587.26.2861.5369.4466.7952.0326.0525.0944.0958.0472.1616-.0447.0624-.1122.0321-.1721.0184a3.99,3.99,0,0,0-.5758-.1345c-.6009-.0465-1.2068-.0607-1.8014-.1495a5.12,5.12,0,0,1-2.6145-1.01,1.0378,1.0378,0,0,1-.4493-.8266c.0006-.0558.005-.1448-.0581-.1414a.5821.5821,0,0,1-.5467-.3448c-.0081-.013-.0275-.0192-.0421-.0279a11.2215,11.2215,0,0,0-1.1707-.6259,4.9882,4.9882,0,0,1-1.5036-1.0191c-.4085-.4054-.8045-.8233-1.2063-1.2355a.5358.5358,0,0,0-.1988-.1541c-.0407-.0141-.091-.05-.1259-.01-.0371.0427.0083.0858.0342.1184.3847.4853.6984,1.0214,1.1036,1.4938A16.4147,16.4147,0,0,0,6.5,25.6142a11.8831,11.8831,0,0,0,2.1941,1.3574,14.3411,14.3411,0,0,0,1.3545.6119,9.5133,9.5133,0,0,0,1.7942.5308,26.0328,26.0328,0,0,0,2.6566.2541c.2536.0185.506-.0156.7582.0215a5.3288,5.3288,0,0,0,1.1793-.0275,14.6751,14.6751,0,0,0,2.0374-.3058,13.1148,13.1148,0,0,0,1.7775-.5858,7.1462,7.1462,0,0,0,.8731-.4447,12.8182,12.8182,0,0,0,1.4685-.9034,13.9247,13.9247,0,0,0,1.293-1.06c.318-.2959.6418-.5855.9577-.8829a7.5992,7.5992,0,0,0,.8634-1.1036c.3089-.4233.6069-.8545.9087-1.2831.0267-.038.0872-.0921.03-.1258a.13.13,0,0,0-.1745.0553,6.6292,6.6292,0,0,1-.8315.9745,11.9156,11.9156,0,0,1-1.7033,1.3836c-.4945.3338-.999.6533-1.507.9663a8.7906,8.7906,0,0,1-1.353.6895,1.31,1.31,0,0,0-.54.3461.3948.3948,0,0,1-.5692.1056c-.081-.0592-.0961.01-.11.0644a1.3478,1.3478,0,0,1-.2.4454,3.1994,3.1994,0,0,1-2.3133,1.3c-.1666.0218-.3386-.0005-.5073.01A4.2726,4.2726,0,0,1,15.38,27.887c-.0523-.015-.1232-.0116-.1365-.0806a.1661.1661,0,0,1,.0831-.1564,3.6888,3.6888,0,0,0,.4035-.4311c.1635-.1818.25-.4152.4141-.5948.3527-.3865.6537-.8152,1.0384-1.1783a2.2668,2.2668,0,0,1,1.28-.6652,1.11,1.11,0,0,1,1.2821.5169c.04.0752.0793.0816.1283-.0029a.4664.4664,0,0,1,.42-.2731.9567.9567,0,0,0,.5452-.1783c.05-.0264.1039-.0444.1542-.07.3261-.1656.6553-.3255.9765-.5.4255-.2313.845-.4737,1.2665-.7126.3923-.2224.8045-.4173,1.1711-.6764a6.8,6.8,0,0,0,1.6284-1.56,1.8913,1.8913,0,0,0,.2948-.4325c-.2565.235-.4774.4686-.7292.6619a8.41,8.41,0,0,1-2.0728,1.0479c-.6081.2424-1.2326.4346-1.8571.6279a13.5167,13.5167,0,0,1-1.5414.4405,1.2683,1.2683,0,0,1-.5536.0162c-.08-.0208-.1106.0186-.1469.0751a1.7532,1.7532,0,0,1-.8648.6746,5.8822,5.8822,0,0,0-1.3188.7141,7.36,7.36,0,0,0-.9765.9086,7.8835,7.8835,0,0,0-.9506,1.29c-.0272.0444-.0436.1-.1062.0881-.0791-.0155-.0646-.0867-.0565-.1383a3.4587,3.4587,0,0,1,.1966-.7507,4.464,4.464,0,0,1,.8335-1.2017c.1311-.1531.1282-.171-.07-.2332a2.329,2.329,0,0,1-.9679-.4979.1794.1794,0,0,1-.013-.2894,2.8865,2.8865,0,0,1,.8724-.7605c.0994-.0488.1072-.1278.0016-.1708a6.0255,6.0255,0,0,1-.6706-.4207c-.1983-.1125-.1976-.246-.0023-.3672.1532-.095.3041-.1957.4651-.2753.1423-.07.1105-.1094-.0007-.1728a2.3117,2.3117,0,0,1-.7488-.6949c-.1251-.1784-.119-.2188.0461-.346a2.3383,2.3383,0,0,1,.7-.4347c.0613-.0194.1046-.0367.0485-.1149a4.8135,4.8135,0,0,1-.4748-.9684,2.7063,2.7063,0,0,1-.12-.6462c-.0084-.0519-.0033-.1111.0635-.118s.0564.0556.0661.0968a1.43,1.43,0,0,0,.0755.2226,2.43,2.43,0,0,0,.6585.8046c.2021.189.4331.3414.6476.5146a6.2973,6.2973,0,0,0,1.0528.7025c.3052.1585.6322.2777.9238.4549a1.6634,1.6634,0,0,1,.8041,1.0452c.0254.1067.0846.1411.1847.1093a3.9165,3.9165,0,0,1,.919-.1146,9.41,9.41,0,0,0,2.0691-.4069,9.6477,9.6477,0,0,0,1.1836-.45,7.3572,7.3572,0,0,0,1.1484-.603,5.4337,5.4337,0,0,0,1.0591-.938c.1474-.172.343-.3263.3509-.58a2.8036,2.8036,0,0,1,.13-.5742c.0437-.1806.1374-.3431.1809-.5264-.176.0857-.3333.1835-.4936.276a.2626.2626,0,0,0-.1459.3027.7962.7962,0,0,1-.9261.9737c-.0764-.0086-.1792-.05-.2176.0359-.1046.2335-.332.4062-.3336.6914-.0008.13-.0922.1746-.1978.1154a1.8289,1.8289,0,0,0-.7079-.1369.1872.1872,0,0,0-.23.145.6466.6466,0,0,1-.113.2256.7365.7365,0,0,1-.9706.1124.202.202,0,0,0-.2813.0346c-.1748.1923-.4.3308-.5617.5376a.168.168,0,0,1-.2629.045c-.2147-.1657-.45-.2994-.6781-.4454a.1419.1419,0,0,0-.2035.0074.7642.7642,0,0,1-1.169-.3119c-.0374-.1088-.1156-.1273-.2149-.1126a2.9515,2.9515,0,0,0-.7117.1423c-.0874.036-.1516.0144-.164-.0789a2.213,2.213,0,0,0-.3392-.7315.3011.3011,0,0,0-.3063-.1807.56.56,0,0,1-.63-.5406.2477.2477,0,0,0-.2-.2218,3.809,3.809,0,0,0-.5774-.1288c-.1-.0106-.1609-.0516-.1389-.164.0621-.3166.0545-.64.092-.9589.0293-.25.028-.2536-.2194-.2836a.5665.5665,0,0,1-.0841-.0086.86.86,0,0,1-.4953-.231c-.2177-.2647-.2769-1.0088.06-1.2309a.0868.0868,0,0,0,.03-.14c-.1016-.1487-.1913-.3055-.29-.4566-.09-.1385-.12-.1355-.1993.0171a.7878.7878,0,0,1-.2724.337c-.0723.0442-.0768.1-.03.1712a3.0411,3.0411,0,0,1,.2278.47c.058.1333.0582.22-.0945.2764a.9155.9155,0,0,0-.3093.2037c-.139.1321-.2674.2774-.4176.395-.1188.0931-.1244.1658-.0359.2782a.5435.5435,0,0,1,.0022.6148.6638.6638,0,0,1-.8165.3042c-.0781-.0188-.1654-.055-.1893.0623a1.2567,1.2567,0,0,0-.0441.4521c.0261.164-.0277.2234-.1839.177a2.5285,2.5285,0,0,0-.6391-.0413c-.1-.004-.1429.043-.142.1427a1.1811,1.1811,0,0,1-.0933.4785.5776.5776,0,0,1-.8734.341c-.31-.2149-.4507-.0481-.6405.1134-.0215.0183-.04.04-.0624.0571a.889.889,0,0,0-.365.4711c-.0338.1212-.1254.0994-.1874.011a1.07,1.07,0,0,0-.3043-.29c-.0924-.059-.1764-.07-.2343.051a.8849.8849,0,0,1-.2483.2972.63.63,0,0,1-.6623.1883,1.54,1.54,0,0,1-.7111-.5522c-.0252-.0369-.0454-.09-.1-.0768a4.3766,4.3766,0,0,0-.9422.18c-.1563.0752-.1952.0556-.2148-.1214a1.33,1.33,0,0,0-.1583-.4789c-.0624-.1182-.1275-.151-.2531-.0693a.8143.8143,0,0,1-.7784.0673.8879.8879,0,0,1-.4618-.856c.0075-.1476-.0458-.2074-.1829-.2209a1.8987,1.8987,0,0,1-.3784-.0883,2.5486,2.5486,0,0,0-.8786-.2246c-.1192.0054-.1591-.0758-.127-.1834a1.4577,1.4577,0,0,0,.0381-.335,7.2331,7.2331,0,0,1-.0017-.7764c.0154-.0914-.0327-.1388-.1081-.1873a.7342.7342,0,0,1-.32-.9838.1584.1584,0,0,0-.0363-.2076,1.6279,1.6279,0,0,1-.2193-.25,1.397,1.397,0,0,0-.6132-.5851.1234.1234,0,0,1-.0432-.22,6.7525,6.7525,0,0,0,.7248-1.0563.1549.1549,0,0,0,.0006-.21.6984.6984,0,0,1,.0135-.9378,1.139,1.139,0,0,1,.3651-.2946c.0609-.0365.1172-.0679.1127-.151A2.5483,2.5483,0,0,0,2.9333,12.1042Zm.4421-3.8091c.0493-.0022.0667-.04.09-.0707a6.3364,6.3364,0,0,1,.9507-1.0267c.3633-.3026.7408-.5887,1.1181-.8742.4852-.367.9612-.7493,1.4686-1.0832A18.699,18.699,0,0,1,9.1249,4.0217a1.3716,1.3716,0,0,1,.6557-.2505c.0581.0026.07-.05.0837-.0923a2.0922,2.0922,0,0,1,.4375-.7153,3.1509,3.1509,0,0,1,1.8051-1.0419,8.5953,8.5953,0,0,1,2.4437-.091c.0448.0034.0981.002.1148.0525.0182.0552-.0355.0747-.0693.1029a4.4589,4.4589,0,0,0-.838.9888,11.2773,11.2773,0,0,1-.6969.9711,3.426,3.426,0,0,1-1.7461,1.129,1.0908,1.0908,0,0,1-.9816-.1363,1.6163,1.6163,0,0,1-.2624-.2125c-.0767-.0816-.1145-.0719-.1752.015a.3818.3818,0,0,1-.2037.17,10.05,10.05,0,0,0-1.2261.4213,7.13,7.13,0,0,0-1.0777.5232c-.6458.4122-1.2924.8231-1.9162,1.2706A10.0848,10.0848,0,0,0,3.7932,8.662a.6363.6363,0,0,0-.1981.2865c.024-.0018.0382.0015.0443-.004.0545-.049.1109-.0965.16-.15a4.45,4.45,0,0,1,1.0848-.8284,13.2687,13.2687,0,0,1,1.9627-.8614,8.39,8.39,0,0,1,1.45-.4453c.6206-.11,1.2351-.2593,1.8635-.3237a.2154.2154,0,0,0,.1944-.1123,1.8441,1.8441,0,0,1,1.1066-.8278,3.6746,3.6746,0,0,0,.7909-.4068A8.0749,8.0749,0,0,0,14.1469,2.987a5,5,0,0,0,.4687-.7416c.0206-.0441.0468-.11.1041-.0933.072.02.0415.0925.0392.146a.2724.2724,0,0,1-.0108.05A6.2213,6.2213,0,0,1,13.6945,4.581c-.0906.126-.059.1549.0672.1844a2.9329,2.9329,0,0,1,.841.39c.19.1149.2085.2253.0711.4032a2.1513,2.1513,0,0,1-.7508.6683c-.1632.0788-.1612.1081-.0129.2231a4.15,4.15,0,0,1,.7679.7335c.0542.0705.1158.1742-.0032.2031-.2032.0494-.3452.2052-.542.2628-.15.0438-.1486.0995-.0232.2047.03.0252.0652.0443.0972.0672a2.2948,2.2948,0,0,1,.6418.6883.1943.1943,0,0,1-.0469.2915,4.7066,4.7066,0,0,1-.5694.3941c-.1151.071-.1187.1375-.0535.247a3.5865,3.5865,0,0,1,.4116,1.2106.9645.9645,0,0,1-.0071.3872c-.0106.0462-.0218.1081-.0852.113-.0534.0042-.077-.0439-.0938-.0853a4.2411,4.2411,0,0,0-.6145-.9284A4.0222,4.0222,0,0,0,12.543,9.1451,12.1014,12.1014,0,0,1,10.9,8.2131a1.4264,1.4264,0,0,1-.56-.816c-.0456-.2071-.06-.2422-.27-.2335-.4177.0172-.8277.0979-1.2409.1541a8.2417,8.2417,0,0,0-2.0354.48c-.4829.198-.97.3929-1.4332.639A4.0251,4.0251,0,0,0,3.8187,9.6407a1.8139,1.8139,0,0,0-.3761.7806,3.9175,3.9175,0,0,1-.2667.9765c-.0125.03-.0451.062-.01.0905.0317.0252.0651-.001.0906-.0215.1322-.1057.26-.2174.3951-.3187a.3007.3007,0,0,0,.114-.4c-.1377-.3941-.076-.6816.2119-.854a.8015.8015,0,0,1,.7153-.0713c.08.029.1564.0559.2028-.0418a1.7758,1.7758,0,0,0,.2668-.7222c.0013-.0746.0318-.1457.1232-.1161a4.1594,4.1594,0,0,0,.9233.0631.272.272,0,0,0,.3443-.2438.452.452,0,0,1,.4136-.3678.7464.7464,0,0,1,.6532.2052.1167.1167,0,0,0,.1894.0015,3.5239,3.5239,0,0,0,.622-.6165c.05-.0844.0973-.088.1735-.0247.248.2059.5413.3449.8011.5339a.1152.1152,0,0,0,.1529-.0021.6084.6084,0,0,1,.984.3144c.0255.08.0634.1148.1478.0687a2.45,2.45,0,0,1,.7435-.1349c.08-.0163.1141.0383.1366.0981a4.4035,4.4035,0,0,0,.4421.7957c.0552.0868.0977.1182.2.0687a.4553.4553,0,0,1,.4232.0027.6357.6357,0,0,1,.3671.6794c-.0073.0868-.0167.1745.0922.2084a3.4707,3.4707,0,0,0,.5505.1606c.1549.0208.1663.0843.1282.1988a2.3843,2.3843,0,0,0-.0868.6851c-.0128.3857-.0052.3891.3723.4155a.6866.6866,0,0,1,.6812.5938.8244.8244,0,0,1-.1647.7648c-.0448.0564-.1279.1278-.0479.2061.1726.169.3534.33.5355.4888.033.0288.1111.0866.1286.04a1.7907,1.7907,0,0,1,.2465-.4366.05.05,0,0,0-.0072-.0471c-.168-.1664-.1732-.4321-.359-.5871-.0976-.0814-.0819-.155.0229-.211a.9426.9426,0,0,0,.2432-.2051,2.4309,2.4309,0,0,1,.4979-.4971.1507.1507,0,0,0,.0675-.2339.6189.6189,0,0,1-.0672-.49.5752.5752,0,0,1,.7078-.4234c.1492.0252.1835-.0258.1711-.1543q-.0171-.1768-.0345-.3538c-.0088-.09.0285-.1517.1211-.1417a4.855,4.855,0,0,0,.7576-.0614c.24-.011.2394-.0086.2647-.244.0653-.61.5146-.8236,1.0717-.6084a.1379.1379,0,0,0,.1866-.039,1.97,1.97,0,0,1,.2911-.2825,1.3623,1.3623,0,0,0,.4693-.52c.057-.127.1308-.1343.2134-.0247a1.7266,1.7266,0,0,0,.5673.472c.1.0546.1475.0526.2169-.0414a.8351.8351,0,0,1,1.2638-.1223c.1752.1648.3119.2481.5272.1105a.2749.2749,0,0,1,.1155-.0229.9416.9416,0,0,0,.4554-.167c.1193-.084.2119-.0564.24.0831a1.9363,1.9363,0,0,0,.2718.5782.2572.2572,0,0,0,.3463.1382.8681.8681,0,0,1,.6891.0339.8.8,0,0,1,.4164.7424c.0064.1423.0558.2058.1976.2119a1.604,1.604,0,0,1,.3626.0776,4.08,4.08,0,0,0,.9052.2669c.0922.0044.1059.092.0866.1709a4.6351,4.6351,0,0,0-.0576,1.0282.1835.1835,0,0,0,.1109.1887.6417.6417,0,0,1,.3708.7528.527.527,0,0,0,.15.6276.2513.2513,0,0,1,.0347.0578,2.9945,2.9945,0,0,0,.5287.8195.1181.1181,0,0,1,.0045.1927,4.3843,4.3843,0,0,0-.5322.6533.2071.2071,0,0,0,.0063.3085,1.0629,1.0629,0,0,1,.21.8592.8657.8657,0,0,1-.5111.63c-.0719.0417-.1383.0772-.1275.1762.02.1851.0373.37.0585.5554.0063.0546.01.1266.0759.1358.0585.0081.0759-.0616.0973-.104.1849-.3665.3943-.7188.56-1.0972a4.3455,4.3455,0,0,0,.4266-1.5552,1.76,1.76,0,0,0-.0351-.7375,4.2624,4.2624,0,0,0-.3047-.5654,6.3865,6.3865,0,0,1-.5416-1.1425,4.6833,4.6833,0,0,1-.2223-1.533.445.445,0,0,0-.0778-.2669c-.1317-.1945-.2933-.3632-.4346-.548a4.777,4.777,0,0,0-.49-.5578c-.559-.5334-1.178-.9952-1.78-1.4769A5.371,5.371,0,0,0,22.0075,7.473a8.9272,8.9272,0,0,0-2.3453-.0344.16.16,0,0,0-.1531.1114,2.9257,2.9257,0,0,1-1.1132,1.3445c-.7284.5128-1.5022.9584-2.2184,1.49a3.0139,3.0139,0,0,0-.8839,1.0464c-.0507.0971-.06.29-.1883.2461-.1155-.0394-.0624-.22-.028-.3373a4.63,4.63,0,0,1,.8249-1.5949c.1124-.141.1094-.1469-.0567-.2191a1.8961,1.8961,0,0,1-.6595-.4573.2487.2487,0,0,1-.03-.3334,1.4467,1.4467,0,0,1,.7023-.6561c.033-.0142.0832-.024.0775-.0762-.0041-.0377-.04-.0519-.0717-.0642a2.29,2.29,0,0,1-.74-.519c-.1452-.1388-.1508-.1637-.0066-.3033a3.39,3.39,0,0,1,.6387-.52c.0635-.037.1641-.0966.0182-.16a1.9974,1.9974,0,0,1-.713-.6325c-.1034-.1247-.0919-.2267.0424-.3082a2.0205,2.0205,0,0,1,.7323-.3331c.0722-.0109.1689-.03.0653-.1312a2.7565,2.7565,0,0,1-.5987-1.01A3.3246,3.3246,0,0,1,15.0519,2.7c.0014-.0472-.0224-.1167.042-.1318.0735-.0173.0893.0566.1068.1069a2.0767,2.0767,0,0,0,.4.6241,6.1947,6.1947,0,0,0,1.8343,1.4986,10.2946,10.2946,0,0,1,1.4654.8935,1.5466,1.5466,0,0,1,.6163.6982c.0262.08.0933.0684.1555.0619a3.9038,3.9038,0,0,1,.8094.0041,10.6823,10.6823,0,0,1,2.48.4877A4.5934,4.5934,0,0,1,24.08,7.457a10.25,10.25,0,0,1,1.2024.9287,9.3211,9.3211,0,0,1,1.4346,1.6575c.035.0533.0723.1556.1378.1165.0721-.043-.0088-.12-.0376-.1751-.1774-.34-.4066-.6479-.5921-.984a6.3808,6.3808,0,0,0-1.0079-1.3515,7.9773,7.9773,0,0,0-2.313-1.5926,2.1044,2.1044,0,0,0-1.5107-.3282.43.43,0,0,1-.4777-.22c-.0549-.091-.1138-.0858-.1966-.0363a1.1423,1.1423,0,0,1-.7671.1349,4.723,4.723,0,0,1-1.7256-.6635,7.391,7.391,0,0,1-1.6639-1.4246,2.9816,2.9816,0,0,1-.6461-1.1206c-.06-.1839-.0138-.2373.1721-.1863a1.8016,1.8016,0,0,0,.52.0541,9.5358,9.5358,0,0,1,1.9374.147,4.7306,4.7306,0,0,1,2.3061,1.0148,1.5747,1.5747,0,0,1,.5692.9532c.021.1335.0668.1626.187.1505a.4213.4213,0,0,1,.4129.18.7809.7809,0,0,0,.39.2832c.2533.0952.5028.2.7558.296a5.0709,5.0709,0,0,1,1.7092,1.19c.29.282.5625.5838.8343.8853a6.6906,6.6906,0,0,1,.7656.9595,2.8911,2.8911,0,0,0,.375.5409c.03.0309.0652.0786.1122.04.0375-.0312.0019-.0708-.0143-.1063a10.7773,10.7773,0,0,0-.6975-1.1955,11.2048,11.2048,0,0,0-.8684-1.1819,13.9888,13.9888,0,0,0-2.1276-2.1166A10.22,10.22,0,0,0,21.5479,3.217a12.9356,12.9356,0,0,0-2.6773-1.0708c-.5795-.1469-1.1622-.2692-1.7471-.3854a9.0757,9.0757,0,0,0-1.3478-.0994C15.32,1.64,14.864,1.5684,14.41,1.582c-.5851.0174-1.1713.0493-1.7551.118a15.3494,15.3494,0,0,0-2.3173.5536,8.8834,8.8834,0,0,0-1.3737.564,12.6924,12.6924,0,0,0-1.7513.9476c-.3771.2561-.7159.5614-1.0672.851A12.9338,12.9338,0,0,0,4.7386,6.0035,12.1556,12.1556,0,0,0,3.6329,7.4728C3.4752,7.7148,3.2541,7.9514,3.3754,8.2951ZM14.52,18.77l-.0465-.0256c-.15.1876-.2976.3774-.4509.5623a5.3258,5.3258,0,0,1-1.1974,1.0348c-.42.2762-.8779.4846-1.3183.7244a2.3,2.3,0,0,0-1.0828,1.1185A1.5067,1.5067,0,0,0,10.2929,23.2a1.9819,1.9819,0,0,0,.8784,1.1222c.3994.2521.811.4885,1.2328.7006a7.5088,7.5088,0,0,1,1.3134.9184,1.8035,1.8035,0,0,1,.3256.3384c.18.2477.3754.4853.5546.76a3.6771,3.6771,0,0,0-.3972-1.2871,4.8511,4.8511,0,0,0-.6856-1.016,2.8668,2.8668,0,0,0-1.2911-.9045c-.0564-.0171-.1467-.0083-.1312-.0942.0141-.0782.1-.0521.1591-.0543a1.6449,1.6449,0,0,0,.4038-.0316,4.7633,4.7633,0,0,0,.9683-.3427,2.6523,2.6523,0,0,0,.8422-.6662.17.17,0,0,0-.0225-.2744,3.0865,3.0865,0,0,0-.4127-.319,3.0313,3.0313,0,0,0-1.6551-.5594c-.0517.0017-.0906-.0134-.1018-.0667-.0146-.0693.0391-.0813.0874-.1012a2.8918,2.8918,0,0,0,.88-.5515,5.2947,5.2947,0,0,0,.9566-1.2157A4.4143,4.4143,0,0,0,14.52,18.77Zm.6941-15.8143c-.0177.0394-.0267.05-.0257.0585a3.3356,3.3356,0,0,0,.72,1.802,4.2973,4.2973,0,0,0,1.5009,1.176c.05.0237.1132.0413.1015.1155-.0124.0784-.08.0665-.1344.07a3.2189,3.2189,0,0,0-1.1018.3,3.0646,3.0646,0,0,0-1.002.6741c-.0944.0981-.106.1456-.0132.2221a2.82,2.82,0,0,0,.638.4406,8.1754,8.1754,0,0,0,1.501.5079c.0559.0126.1414.0093.1533.082.0132.081-.0709.1061-.1262.1405a4.4529,4.4529,0,0,0-.8813.678,5.6254,5.6254,0,0,0-.9542,1.2c-.12.2252-.215.4641-.3213.6968l.0371.0227a2.5254,2.5254,0,0,1,.6907-.7726,15.9023,15.9023,0,0,1,1.4754-1.0149A5.9214,5.9214,0,0,0,18.97,8.1919a1.7785,1.7785,0,0,0,.5192-1.3307,1.12,1.12,0,0,0-.32-.7911A6.3913,6.3913,0,0,0,17.93,5.1985a8.0023,8.0023,0,0,1-1.4052-.84A5.3162,5.3162,0,0,1,15.2137,2.9558Zm-.7229,8.018c0-.055.0024-.0758,0-.0959a3.885,3.885,0,0,0-.8072-1.87,2.9456,2.9456,0,0,0-.9611-.9018c-.13-.0665-.2672-.12-.4008-.1807-.0369-.0167-.0765-.037-.0624-.0863.0167-.0589.0593-.05.1087-.0384a2.54,2.54,0,0,0,1.4243-.1291c.2265-.0794.4165-.2246.64-.3048.1162-.0416.1154-.1222.0487-.2133a2.2784,2.2784,0,0,0-.36-.3562A2.4125,2.4125,0,0,0,12.2159,6.06c-.0454.0052-.0975.0032-.1213-.0412-.0271-.0505.02-.082.05-.1135a4.0566,4.0566,0,0,1,.3656-.2991,6.0482,6.0482,0,0,0,1.6766-2.0713c.1114-.2353.21-.4769.3138-.7155a.354.354,0,0,0-.2075.1765c-.213.2907-.42.5863-.6469.8662a5.3635,5.3635,0,0,1-.6987.7267,4.9072,4.9072,0,0,1-.7742.5969,8.2733,8.2733,0,0,1-1.0126.4656.9741.9741,0,0,0-.6808.6754,2.94,2.94,0,0,0,.0195,1.1243.81.81,0,0,0,.2263.4259,4.2,4.2,0,0,0,1.3274.873,4.8194,4.8194,0,0,1,2.0629,1.7153C14.2269,10.6313,14.3526,10.7872,14.4908,10.9738ZM15.3537,27c.1192-.0433.0987-.1582.1554-.2266a12.58,12.58,0,0,1,1.2-1.3434,5.6063,5.6063,0,0,1,1.3591-.8986,6.833,6.833,0,0,0,.8248-.3913.8087.8087,0,0,0,.4583-.8337.2947.2947,0,0,1,.0443-.2113.4718.4718,0,0,0,.037-.4238,1.69,1.69,0,0,0-.66-.8751,7.7492,7.7492,0,0,0-.9018-.459,9.7568,9.7568,0,0,1-1.6373-1.1251c-.281-.2237-.5156-.4955-.7757-.7443a4.2246,4.2246,0,0,0,.953,1.6827,2.7512,2.7512,0,0,0,.8717.7083c.0523.0228.1433.0268.128.1077-.0137.0721-.0976.0639-.1573.0673a3.79,3.79,0,0,0-1.8074.6493c-.1341.0844-.1076.1358.0019.219a6.9881,6.9881,0,0,0,1.0126.61,2.44,2.44,0,0,0,1.241.3393c.0483-.0022.1137-.0267.14.0268.0341.07-.04.096-.0806.1287a11.48,11.48,0,0,0-1.8619,1.8771A2.58,2.58,0,0,0,15.3537,27ZM19.8843,5.4618c.6314,0,1.0013-.0913,1.1538-.5571a.2.2,0,0,1,.0569-.1022c.3059-.2041.2107-.4668.1-.721a2.2356,2.2356,0,0,0-.8872-.9039,4.0313,4.0313,0,0,0-.9821-.4454,5.7811,5.7811,0,0,0-1.4337-.3129c-.578-.0433-1.16.027-1.7369-.0633-.0738-.0116-.11.0117-.08.0943a2.9,2.9,0,0,0,.55.9418,8.1956,8.1956,0,0,0,.8882.854,4.9636,4.9636,0,0,0,1.016.72A3.3931,3.3931,0,0,0,19.8843,5.4618ZM9.6951,24.5774c-.1016,0-.2037-.0071-.3046.0015a.5927.5927,0,0,0-.5114.2511,1.5366,1.5366,0,0,1-.404.4455.3774.3774,0,0,0-.1252.4112,1.2815,1.2815,0,0,0,.5.7022,3.9739,3.9739,0,0,0,1.2477.6207,5.536,5.536,0,0,0,1.7838.3379c.2077.0009.4154.0295.6228.0492a9.9948,9.9948,0,0,1,1.004.14c.06.0119.1761.0456.1139-.0955a5.8551,5.8551,0,0,0-.4643-.8618A5.39,5.39,0,0,0,12.12,25.5014,3.7353,3.7353,0,0,0,9.6951,24.5774ZM16.68,27.9117a3.4681,3.4681,0,0,0,2.1936-.6071,1.99,1.99,0,0,0,.8662-1.0652,1.0186,1.0186,0,0,0-.71-1.3414,1.7045,1.7045,0,0,0-1.268.2513,4.78,4.78,0,0,0-.9833.8994c-.4375.5-.7791,1.0748-1.2249,1.5683-.0767.0849-.0686.1333.0563.1725A4.0382,4.0382,0,0,0,16.68,27.9117ZM10.9031,5.0134a2.7444,2.7444,0,0,0,1.33-.4877,4.2685,4.2685,0,0,0,1.1587-1.2335,7.167,7.167,0,0,1,.8727-1.1813c.0324-.0314.0945-.0739.0661-.1248s-.0991-.0448-.1555-.0463a9.9447,9.9447,0,0,0-1.82.0571A3.1585,3.1585,0,0,0,10.1078,3.431a1.0781,1.0781,0,0,0-.0037,1.1114A.8916.8916,0,0,0,10.9031,5.0134Zm14.0175,8.3618a.4623.4623,0,0,0,.2959-.1109,1.4687,1.4687,0,0,1,.64-.2488.6542.6542,0,0,0,.619-.6707,6.94,6.94,0,0,1,.0453-1.1275c.0142-.07-.0147-.1015-.0793-.1235-.25-.0856-.4978-.1791-.7485-.2634a1.6087,1.6087,0,0,0-1.529.1708,3.0869,3.0869,0,0,0-.5956.6372.3471.3471,0,0,0-.0759.3278,3.1883,3.1883,0,0,1,.165.74c0,.0836.0474.1157.136.0909a.95.95,0,0,1,.4821.033c.1933.045.3288.2114.51.2479C24.9911,13.1193,25.0708,13.1741,24.9206,13.3752ZM3.9773,16.6884c-.0049.0011.0384-.0109.0825-.0188a2.95,2.95,0,0,0,.6438-.2469.2633.2633,0,0,0,.183-.2464.9044.9044,0,0,1,.1353-.5139c.0638-.0769.0553-.1111-.0427-.149a1.2316,1.2316,0,0,1-.5581-.3937c-.0914-.1194-.12-.2787-.2573-.3706-.0537-.0357-.0133-.1093.0432-.1363a.9315.9315,0,0,0,.3131-.3237c.1136-.1488.0867-.2115-.096-.2588a2.4988,2.4988,0,0,1-.6971-.2513.3558.3558,0,0,0-.2462-.03,1.2214,1.2214,0,0,0-.7941.4962c-.2572.3274-.3728.7429-.6638,1.0481a.0759.0759,0,0,0,.0187.1283,2.357,2.357,0,0,1,.5474.593A1.712,1.712,0,0,0,3.9773,16.6884Zm21.0351-.8122a3.8259,3.8259,0,0,1,.9286.1637.7935.7935,0,0,0,.6505-.0843,1.96,1.96,0,0,0,.5494-.5345,4.023,4.023,0,0,1,.4836-.6485c.0443-.041.0772-.1049.0233-.1477-.2158-.1712-.2684-.4389-.4005-.6586a1.5275,1.5275,0,0,0-1.0194-.7886,1.1286,1.1286,0,0,0-.8377.1726c-.2667.1615-.5792.2663-.617.6438a.23.23,0,0,1-.0409.0922c-.0823.13-.0323.2231.0984.2555a.8261.8261,0,0,1,.46.3958,1.667,1.667,0,0,0,.3551.4465c.0877.0621.08.1514-.0315.212A3.31,3.31,0,0,0,25.0124,15.8762ZM6.0094,16.9905a1.5894,1.5894,0,0,1-1.0128-.0417.495.495,0,0,0-.1493-.019c-.0492.0011-.1039.0314-.1376-.0255-.036-.0607.0148-.1043.0392-.1537.0233-.0473.0931-.0988.0425-.1476-.0461-.0445-.118-.0151-.1724.02a1.2516,1.2516,0,0,1-.6027.2.53.53,0,0,0-.3708.18,1.36,1.36,0,0,0-.3762.9486,3.592,3.592,0,0,1,.0129.7425c-.0128.0676.0054.1278.0879.1356a1.7787,1.7787,0,0,1,.4935.172A1.7438,1.7438,0,0,0,5.94,18.549a.5661.5661,0,0,0,.1491-.5093C6.04,17.7008,5.8428,17.3758,6.0094,16.9905Zm12.893-6.6219a2.9181,2.9181,0,0,0,.0272.4159,1.337,1.337,0,0,0,.9191,1.0132c.0632.02.1047.04.1259-.0432a.4828.4828,0,0,1,.0424-.092c.1125-.225.34-.3782.39-.6459.0156-.0824.1058-.0443.1222.0116a1.4584,1.4584,0,0,0,.3806.5078c.0692.0812.1119.1231.1763-.0043a.8234.8234,0,0,1,.24-.2821.6134.6134,0,0,0,.2239-.6329.9286.9286,0,0,1-.0262-.3184.6306.6306,0,0,0-.14-.5184,1.4163,1.4163,0,0,0-.4784-.3926,3.0539,3.0539,0,0,1-.8373-.5306c-.0676-.0773-.1389-.0609-.1964.0194a3.9444,3.9444,0,0,1-.4775.4512A1.1583,1.1583,0,0,0,18.9024,10.3686Zm1.1981,9.9465a1.2324,1.2324,0,0,0,.61,1.0315q.309.19.6133.3872c.0582.038.1028.058.1634.003.2207-.2.4511-.39.6651-.5973a1.1483,1.1483,0,0,0,.2937-.41,2.995,2.995,0,0,0-.0053-1.9082c-.0152-.0532-.0512-.0954-.0862-.0264-.1111.2191-.3173.3659-.4306.5817-.0609.116-.1453.13-.2091.0214a4.658,4.658,0,0,0-.5481-.5934c-.0628-.0746-.1022-.0576-.1555.01a1.0991,1.0991,0,0,1-.2681.2553A1.4261,1.4261,0,0,0,20.1005,20.3151ZM7.3389,10.124c0,.04.001.079,0,.1184a2.4094,2.4094,0,0,0,.1475.8449c.0135.04.0373.1451.1054.0522.13-.1765.3447-.2783.4245-.4965.0338-.0924.0969-.0951.1513-.0251.1752.2256.4358.3546.6255.5624.0521.057.0887.0573.1307-.0085a1.2627,1.2627,0,0,1,.3932-.3645.2261.2261,0,0,0,.1123-.1583,2.1637,2.1637,0,0,1,.2289-.7365.7934.7934,0,0,0-.0657-.9874,4.1129,4.1129,0,0,0-.9567-.7359.1147.1147,0,0,0-.164.026,3.274,3.274,0,0,1-.3948.3665A1.7022,1.7022,0,0,0,7.3389,10.124ZM5.9859,9.16V9.1551c-.1467,0-.2937.0055-.44-.0017a.191.191,0,0,0-.2285.1444,3.5368,3.5368,0,0,1-.159.3358,1.8127,1.8127,0,0,0-.29.9389,1.9312,1.9312,0,0,0,.25.78,3.6018,3.6018,0,0,0,.6513.7924.2791.2791,0,0,0,.29.021c.0813-.0253.04-.1173.0441-.1811a1.6892,1.6892,0,0,1,.0972-.4613,1.2032,1.2032,0,0,0,.0836-.3264c.0027-.0456.0165-.09-.0345-.119-.0819-.0465-.0986-.13-.1253-.2114a3.2482,3.2482,0,0,0-.319-.78c-.0333-.0511-.0617-.1285.0173-.1593.0693-.0271.0825.0516.1113.0986a2.794,2.794,0,0,1,.2653.6747.4694.4694,0,0,0,.3577.3822,2.8148,2.8148,0,0,0,.6381.0561c.1106-.0021.1105-.0863.0883-.1592a3.2308,3.2308,0,0,1-.0965-1.1721.5321.5321,0,0,0-.294-.5264.9382.9382,0,0,0-.4678-.12C6.28,9.155,6.1326,9.16,5.9859,9.16ZM25.0827,19.3523a.838.838,0,0,0-.0471-.2533,2.5658,2.5658,0,0,0-.4138-.7893,6.2977,6.2977,0,0,0-.4564-.6055.3171.3171,0,0,0-.3309-.0619c-.1131.026-.0172.1325-.0221.203a1.2235,1.2235,0,0,1-.02.2685,2.3372,2.3372,0,0,0-.0936.6494c-.0028.1464-.1093.2066-.2474.1469a1.18,1.18,0,0,0-.3911-.0969,1.3218,1.3218,0,0,1-.3478-.0658c-.0441-.0154-.0884-.08-.1334-.0308-.0389.0426.0139.0939.0286.14a2.7546,2.7546,0,0,1,.1278,1.1322.5053.5053,0,0,0,.1417.416.96.96,0,0,0,.5541.2593,8.916,8.916,0,0,1,.9541.1113c.0557.0182.0818-.0085.1-.0592a4.2456,4.2456,0,0,1,.3552-.626A1.3685,1.3685,0,0,0,25.0827,19.3523Zm.3335-.3433a.8812.8812,0,0,0,.4721-.0891c.3091-.185.6115-.381.9184-.57a.12.12,0,0,0,.0592-.1568,4.0781,4.0781,0,0,1-.1309-.8333,1.3827,1.3827,0,0,0-.8935-1.1741,2.3167,2.3167,0,0,0-1.1137-.1193c-.1074.0091-.0843.0618-.0466.1244a1.3175,1.3175,0,0,1,.2171.5092,1.6082,1.6082,0,0,0,.1688.5277c.0762.1539.0535.2106-.1244.2255a2.099,2.099,0,0,0-.4426.1036c-.1219.0373-.167.0751-.0721.2068a5.8817,5.8817,0,0,1,.6692,1.0294C25.17,18.9586,25.2672,19.038,25.4162,19.009ZM4.551,10.8557A.7928.7928,0,0,0,4,11.0626a4.8227,4.8227,0,0,1-.8334.6585.1456.1456,0,0,0-.08.1819,2.9279,2.9279,0,0,1,.0591.6559.9209.9209,0,0,0,.0738.3619,1.3667,1.3667,0,0,0,.7641.7928c.3128.1222.6449.3631,1.0007.0723a.36.36,0,0,1,.1426-.051c.1019-.0243.1442-.0569.05-.152a.794.794,0,0,1-.1159-.1852,3.4607,3.4607,0,0,1-.1844-.8026c-.0191-.0713.038-.12.1129-.1107.1928.0236.3425-.1007.5155-.1444.0985-.0248.1-.0956.0361-.1673-.0411-.0465-.0844-.091-.1258-.1373a2.8766,2.8766,0,0,1-.6344-1.0088A.23.23,0,0,0,4.551,10.8557Zm17.17-.2138a2.3141,2.3141,0,0,1-.0031.3257.2994.2994,0,0,0,.1613.32,1.0977,1.0977,0,0,1,.4371.4816c.0351.0823.0849.0785.1468.038a1.1309,1.1309,0,0,1,.5467-.1568.7.7,0,0,0,.5916-.3013,1.6811,1.6811,0,0,1,.455-.471.2509.2509,0,0,0,.098-.2692,1.4826,1.4826,0,0,0-.1923-.4837,6.9809,6.9809,0,0,1-.6585-1.0377c-.0306-.0835-.0953-.0579-.1558-.0321a1.3467,1.3467,0,0,1-.3567.1014,1.2618,1.2618,0,0,0-.8442.4785A1.289,1.289,0,0,0,21.7208,10.6419Zm-10.773,8.82a2.0035,2.0035,0,0,0-.44-.9768.3234.3234,0,0,0-.1267-.0809c-.1341-.0575-.2719-.1066-.4054-.1654-.0758-.0334-.1124-.0229-.1279.0642a.8628.8628,0,0,1-.1911.39.4647.4647,0,0,0-.1119.2405c-.0155.124-.113.1545-.2057.06a1.108,1.108,0,0,0-.35-.2307c-.12-.054-.2048-.208-.3123-.2118-.1283-.0045-.1688.1916-.2835.2645a.3577.3577,0,0,0-.1679.3477,1.5067,1.5067,0,0,0,.6361,1.2422,5.7933,5.7933,0,0,1,.8731.5413c.0328.0317.0708.0371.1-.0077a4.121,4.121,0,0,1,.7681-.7017A1.0919,1.0919,0,0,0,10.9478,19.4619Zm7.1567-5.94a5.52,5.52,0,0,0-.1261-.8153c-.0647-.1579-.0094-.1985.1543-.1547a.5689.5689,0,0,0,.1506.0132,2.3946,2.3946,0,0,1,.5726-.0039c.0725.0167.1267-.0159.1214-.0975a1.1445,1.1445,0,0,1,.0921-.3746c.07-.2619.1507-.5254-.07-.7655a.5588.5588,0,0,1-.1063-.21.9654.9654,0,0,0-.9885-.6663c-.3207-.0249-.6249.0818-.9409.0767-.0865-.0014-.0986.0682-.0867.1333a9.83,9.83,0,0,1,0,1.1642,1.6417,1.6417,0,0,0,.4355,1.0344A6.5386,6.5386,0,0,0,18.1045,13.5217Zm-6.8837-4.6a1.681,1.681,0,0,0-1.1249.5688,2.4729,2.4729,0,0,0-.4582.9681.5377.5377,0,0,0,.0392.42c.1122.243.3141.4265.426.6682.0416.09.1035.057.17.03.1773-.0723.3564-.14.535-.2089.0775-.03.1486-.0379.164.0707.0217.1536.0739.1126.1519.0332a4.6077,4.6077,0,0,1,.8687-.7462.283.283,0,0,0,.1406-.3006,1.521,1.521,0,0,0-.197-.6058c-.1421-.2426-.2978-.4778-.4283-.7263C11.4416,8.9677,11.378,8.8841,11.2208,8.9221Zm6.764,7.63c-.3717-.0944-.5844-.4081-.9129-.5344-.0884-.034-.0707-.1008-.0056-.14a7.871,7.871,0,0,0,.82-.7222c.087-.0694.1082-.1291.0072-.21a.5289.5289,0,0,1-.1782-.2009c-.0437-.1057-.1181-.1207-.23-.1162a2.3959,2.3959,0,0,1-.9711-.0839.5222.5222,0,0,0-.5592.0957,2.46,2.46,0,0,0-.2629.2383c-.1754.174-.2792.4118-.4946.5492-.1116.0711-.1386.145-.0309.2522a.9222.9222,0,0,1,.1289.2175,1.6512,1.6512,0,0,0,1.5692.9483A2.7115,2.7115,0,0,0,17.9848,16.5519Zm-7.36.7046a1.5223,1.5223,0,0,1,.0248.8692.3764.3764,0,0,0,.0369.2752,5.1232,5.1232,0,0,1,.2717.5431.7117.7117,0,0,0,.6385.447c.3544.0471.71-.0085,1.0634.0392.0862.0116.0818-.0583.0829-.1144a2.5467,2.5467,0,0,1,.0987-.58,1.5457,1.5457,0,0,0-.0817-1.2129,1.854,1.854,0,0,0-.5036-.5575,4.9688,4.9688,0,0,0-.7869-.5442,1.89,1.89,0,0,1,.2446.9746c.0015.0907-.0188.1508-.1206.1285A3.3119,3.3119,0,0,1,10.6251,17.2565Zm2.504-3.9107a5.2784,5.2784,0,0,0-1.2321.1181c-.0432.0113-.1.0175-.0961.0748.0036.0492.0587.0417.0959.05a1.9482,1.9482,0,0,1,.7984.425c.059.0472.112.1172.0445.1884a3.619,3.619,0,0,1-.7316.7208c-.2337.1375-.2305.14-.02.2973a2.2089,2.2089,0,0,1,.2057.1732.3174.3174,0,0,0,.1971.0851,4.9049,4.9049,0,0,1,.6041.072,1.1451,1.1451,0,0,0,1.0065-.312c.3422-.2682.5835-.64.9261-.9088.05-.0389.0449-.0882-.0033-.13a1.4885,1.4885,0,0,1-.1177-.0962A2.3417,2.3417,0,0,0,13.1291,13.3458Zm4.6216,6.3433a.7013.7013,0,0,0,.062.2967,7.4771,7.4771,0,0,0,.42.7706c.0475.0879.05.23.1174.2687.0648.0372.1875-.04.2857-.0447a4.2963,4.2963,0,0,0,.8121-.1535.6793.6793,0,0,0,.483-.5992,1.4756,1.4756,0,0,1,.2419-.8.2973.2973,0,0,0-.0171-.4047,1.2288,1.2288,0,0,1-.2863-.5416c-.0133-.0945-.0783-.1173-.1585-.0492a.5882.5882,0,0,1-.2324.097,1.5521,1.5521,0,0,0-.5445.1652.0706.0706,0,0,1-.1105-.0407c-.0519-.13-.09-.043-.1325.0045a5.4523,5.4523,0,0,1-.5761.5423C17.954,19.3358,17.7217,19.4315,17.7507,19.6891Zm-.5625-.3086a.9464.9464,0,0,0,.431-.0612,2.6263,2.6263,0,0,0,1.15-1.0559.6622.6622,0,0,0,.0534-.47c-.0135-.0866-.0466-.1164-.1359-.0862a.9305.9305,0,0,1-.4828.0271,1.0545,1.0545,0,0,0-.4031-.0248c-.059.0116-.1168.0543-.1644-.0207-.0459-.0722-.0039-.1266.03-.186a2.3394,2.3394,0,0,0,.2112-.5144c.0158-.0537.0407-.1159-.0013-.1612-.0471-.0509-.105-.0072-.1568.0093-.1557.05-.3137.093-.4662.151A1.4135,1.4135,0,0,0,16.2847,18a7.6251,7.6251,0,0,0-.09,1.0768c-.0048.0542.0317.0774.0775.0964A2.1383,2.1383,0,0,0,17.1882,19.3805ZM5.93,19.34a2.066,2.066,0,0,0,.0984.48,4.7324,4.7324,0,0,1,.4167.9212c.0067.04.0328.0773.0823.0672a4.1509,4.1509,0,0,0,1.1176-.2322.8567.8567,0,0,0,.4978-.9241,1.4041,1.4041,0,0,1-.0717-.4494.5126.5126,0,0,0-.2069-.4025,1.9909,1.9909,0,0,1-.4788-.5414c-.0611-.1186-.1292-.1079-.2115-.04a1.0241,1.0241,0,0,1-.53.199c-.1727.025-.3727.0118-.4895.1865A1.0455,1.0455,0,0,0,5.93,19.34Zm5.8713-7.05c.2831-.0062.2857-.0009.2281.2735-.0382.1819-.07.3653-.1029.5483-.0224.1244.014.1791.1544.151a1.8872,1.8872,0,0,0,.971-.4422,1.1924,1.1924,0,0,0,.4561-.9575c-.0113-.2019.0143-.4058.02-.6089.0029-.1065.086-.22.0332-.3106s-.1935-.0672-.29-.1149a1.1653,1.1653,0,0,0-1.2346.0685,4.2072,4.2072,0,0,0-.5983.49c-.2384.2283-.4923.4406-.3658.8274a.235.235,0,0,1,.0025.0843c-.0051.0826.0191.1034.1089.0858A3.176,3.176,0,0,1,11.8015,12.29ZM26.3856,21.14c-.0961.1142-.189.212-.2677.32A7.08,7.08,0,0,1,24.7354,22.83a11.1731,11.1731,0,0,1-1.3327.7957c-.8556.5009-1.7424.945-2.601,1.44a.7.7,0,0,1-.4437.1177.3036.3036,0,0,0-.2779.133.5761.5761,0,0,0-.0982.5264c.0254.1.048.2121.1665.2326a.2805.2805,0,0,0,.3017-.1433.5135.5135,0,0,1,.2545-.2129c.3348-.1478.6791-.2736,1.004-.445a15.7643,15.7643,0,0,0,1.5064-.9282c.4044-.2751.8339-.5131,1.2182-.8183a14.4432,14.4432,0,0,0,1.1126-.9566,5.5484,5.5484,0,0,0,.8191-.9648A.4009.4009,0,0,0,26.3856,21.14Zm.6152-10.2751a.2053.2053,0,0,0-.0354-.1932,6.35,6.35,0,0,1-.4185-.5921A8.99,8.99,0,0,0,24.74,8.1318a5.8675,5.8675,0,0,0-2.1279-1.14,9.5194,9.5194,0,0,0-2.1072-.3741,3.8315,3.8315,0,0,0-.724-.0034c-.0629.0083-.1334.0034-.1347.0909-.0027.169,0,.3382.0021.5072.0007.0529.0275.0893.0842.0811.3142-.0452.6308,0,.9458-.03a3.5772,3.5772,0,0,1,.7569-.04,5.9018,5.9018,0,0,1,1.7986.5014,3.082,3.082,0,0,1,.6088.3259c.4746.3707.9743.7072,1.4363,1.0959a9.5551,9.5551,0,0,1,1.0962,1Zm-9.61,3.6213c.0218-.0026.0772.0236.1016-.0279.0236-.05-.0284-.0792-.05-.1165a.7759.7759,0,0,0-.1624-.17c-.078-.0711-.0962-.1425.0292-.188.1905-.0691.3806-.1395.5709-.2092.1584-.058.1642-.0821.0408-.1851-.0647-.054-.1312-.1059-.1972-.1584a2.3838,2.3838,0,0,1-.9695-1.2392c-.0148-.0581-.0529-.1152-.1152-.1059a1.3671,1.3671,0,0,0-.6876.1936c-.2407.1833-.3925.4483-.6257.6355-.0669.0538-.0467.1229-.0135.1848a4.0924,4.0924,0,0,0,.4641.761,1.7545,1.7545,0,0,0,.7921.519A3.4662,3.4662,0,0,0,17.3911,14.4865Zm-3.9749,3.3273a.6734.6734,0,0,0,.3631-.1146,7.1147,7.1147,0,0,1,.833-.6806.0943.0943,0,0,0,.0407-.13,1.6192,1.6192,0,0,0-.9447-1.0167,4.1932,4.1932,0,0,0-1.1382-.2356c-.0433-.0038-.0955-.0178-.125.0271s.0167.07.037.1015c.0686.1068.078.1943-.0644.2527a2.7993,2.7993,0,0,0-.3313.1637c-.1049.06-.2982.0783-.298.1784s.1693.1731.2733.2471a2.7593,2.7593,0,0,1,.9051.962A.4564.4564,0,0,0,13.4162,17.8138Zm-11.7706-3.7.0516.0084a3.4852,3.4852,0,0,1,.6918-1.504,6.1411,6.1411,0,0,0,.8238-1.86,1.1267,1.1267,0,0,0,.072-.4333c-.1234.0673-.2514.0691-.3511.1528-.0866.0727-.1474.0372-.1741-.0606-.0207-.0757-.0283-.155-.043-.2324q-.0747-.3948-.15-.79c-.0582.0087-.0635.0532-.0787.0866a7.4292,7.4292,0,0,0-.4187,1.0876,6.98,6.98,0,0,0-.4878,2.569C1.613,13.4625,1.6247,13.7888,1.6456,14.1142Zm25.3421-4.25a5.3382,5.3382,0,0,0-.1351-.7061.2028.2028,0,0,0-.0555-.0836,2.1335,2.1335,0,0,1-.3616-.5056,7.3148,7.3148,0,0,0-.8534-1.1313c-.3578-.3961-.74-.77-1.1359-1.1289a4.3772,4.3772,0,0,0-.9129-.6608,10.9414,10.9414,0,0,0-1.3209-.5588.5233.5233,0,0,1-.2841-.2259.3162.3162,0,0,0-.4763-.119.84.84,0,0,0-.3669.448.2426.2426,0,0,0,.159.3587.5836.5836,0,0,0,.35.0053.9127.9127,0,0,1,.5008.0032,7.2871,7.2871,0,0,1,1.5917.7309,7.3492,7.3492,0,0,1,1.2873.9232,6.3946,6.3946,0,0,1,.9023.9777C26.2714,8.7093,26.55,9.3067,26.9877,9.8639ZM9.8372,4.3155c-.002-.0338-.0024-.0678-.0063-.1014-.0343-.2971-.0877-.321-.348-.1859-.5.2593-1.004.51-1.4886.7986a14.0522,14.0522,0,0,0-1.4241.931c-.3652.282-.7309.564-1.1075.83a13.4407,13.4407,0,0,0-1.1431.915,7.7731,7.7731,0,0,0-.8423.97.31.31,0,0,0-.0964.228c.0046.0425-.0156.1005.0382.12.0522.0187.0806-.0292.1052-.0662a4.9017,4.9017,0,0,1,.6967-.78A11.2963,11.2963,0,0,1,6.0725,6.5178,16.2962,16.2962,0,0,1,8.0125,5.36c.4847-.22.9833-.3925,1.48-.5757C9.7452,4.691,9.843,4.5805,9.8372,4.3155ZM9.7761,23.4038c.0394-.0019.0791-.0021.1183-.006.2065-.0209.2343-.0532.2015-.2549a.7281.7281,0,0,1-.021-.2682c.0179-.0846.0023-.1041-.09-.0944a5.6452,5.6452,0,0,1-1.3338-.0151,9.44,9.44,0,0,1-1.4676-.32A8.112,8.112,0,0,1,5.403,21.68a6.7839,6.7839,0,0,1-1.6871-1.3931,4.7783,4.7783,0,0,1-.6387-.8066c-.0161-.029-.0342-.0676-.0727-.06-.0431.0088-.0348.0529-.0331.0849a.5062.5062,0,0,0,.0741.3074A11.9579,11.9579,0,0,0,4.25,21.0658a10.6584,10.6584,0,0,0,1.1071.8886,8.0622,8.0622,0,0,0,1.6033.93,7.8983,7.8983,0,0,0,1.4565.3618A10.1545,10.1545,0,0,0,9.7761,23.4038Zm16.892-3.8826a.3443.3443,0,0,0,.2479-.0961c.1461-.1034.1964-.0843.2136.09a3.5578,3.5578,0,0,0,.1744.7389c.0135.042.0168.1029.0684.1061.0651.004.0669-.0652.0841-.11.0831-.2149.1765-.425.25-.6446a11.021,11.021,0,0,0,.3907-1.5371c.089-.4921.166-.9871.2277-1.4833a2.2914,2.2914,0,0,0-.0639-.9952c-.0363.1766-.0547.3227-.0967.4617a9.9144,9.9144,0,0,1-.9366,2.0914A3.34,3.34,0,0,0,26.6681,19.5212Zm-.2764.7358a2.7281,2.7281,0,0,0-.2986.257,5.5911,5.5911,0,0,1-1.8059,1.307,12.5625,12.5625,0,0,1-2.6731.8811,5.3976,5.3976,0,0,1-.7674.12c-.2922.0247-.5867.0077-.8772.0581a.5562.5562,0,0,0-.42.28c-.0893.159-.0037.4189.2253.3887a3.076,3.076,0,0,0,.3517-.0369c.4865-.1213.9623-.2785,1.443-.4193.5785-.1695,1.157-.3444,1.7149-.5662A13.9316,13.9316,0,0,0,24.8,21.8692a5.5451,5.5451,0,0,0,1.5056-1.2037A.4348.4348,0,0,0,26.3917,20.257Zm1.3417-9.6114c-.0436.008-.0511.0286-.0525.0521-.0042.07-.0105.1381-.0982.1551-.0809.0156-.1248-.0345-.1655-.092a.3189.3189,0,0,0-.138-.121c-.0721-.0292-.1027-.0175-.0965.0714a2.994,2.994,0,0,1,.0069.4213,4.3141,4.3141,0,0,0,.6126,2.6061c.1326.2192.2543.4449.3906.6846a1.2077,1.2077,0,0,0,.1986-.7807,15.2678,15.2678,0,0,0-.5341-2.6785C27.8233,10.8543,27.7742,10.7492,27.7334,10.6456Zm-24.2-.8808a.9187.9187,0,0,0,.0614-.0762,3.0286,3.0286,0,0,1,.8225-.879A10.4753,10.4753,0,0,1,6.3741,7.7863a7.7154,7.7154,0,0,1,1.4-.427,22.5711,22.5711,0,0,1,2.3034-.3551c.1426-.0162.22-.0731.2028-.2264a1.4315,1.4315,0,0,1-.0015-.1523c-.0005-.1241-.0617-.1527-.1769-.1263-.1535.0352-.3092.0625-.4652.085a12.4055,12.4055,0,0,0-1.7737.3485,16.1706,16.1706,0,0,0-2.5439.9988,5.403,5.403,0,0,0-1.6124,1.18A.6351.6351,0,0,0,3.5333,9.7648Zm-1.3668,9.69c.0189-.086.0343-.14.0423-.1952.0282-.1952.0667-.21.2331-.0919a1.1952,1.1952,0,0,0,.2656.1787c.0589.0219.1026.0335.0887-.055-.0519-.3292-.0385-.6637-.0726-.9932a5.27,5.27,0,0,0-.6454-1.9964,1.6884,1.6884,0,0,0-.434-.5357,4.5412,4.5412,0,0,0,.043,1.9995A9.3859,9.3859,0,0,0,2.1665,19.4545ZM9.3574,14.67a.7845.7845,0,0,0-.218-.5237.8692.8692,0,0,0-1.3468.2187A.9407.9407,0,0,0,8.1533,15.69a.754.754,0,0,0,.8867-.1445A1.2778,1.2778,0,0,0,9.3574,14.67Zm12.8714.46c.065-.444-.4946-.8769-.9791-.896a.7861.7861,0,0,0-.753.7192c-.0231.6113.3045,1.0188.81,1.0292A.8452.8452,0,0,0,22.2288,15.13ZM3.3616,21.1642a1.6451,1.6451,0,0,0,.3395.7724c.3081.3205.62.6373.92.9656a6.0642,6.0642,0,0,0,1.265,1.0619c.4258.2667.8957.45,1.329.7025.2588.1508.558.2427.7122.5411a.1952.1952,0,0,0,.2758.0415,1.4789,1.4789,0,0,0,.4371-.341c.0827-.1166.163-.2438.0753-.3893-.09-.149-.24-.1339-.3788-.0978a1.4757,1.4757,0,0,1-.7353-.009,2.9759,2.9759,0,0,1-.5738-.2455,9.3892,9.3892,0,0,1-1.5121-.8532,9.421,9.421,0,0,1-1.899-1.9019A.6955.6955,0,0,0,3.3616,21.1642Zm1.9115-5.7859a2.9984,2.9984,0,0,0,.7561-.0807c.0906-.0218.1984-.0454.17-.1837a2.5133,2.5133,0,0,1-.0047-.7919c.0116-.101-.0251-.1549-.1113-.1761a1.6094,1.6094,0,0,1-.3872-.1681.6657.6657,0,0,0-.966.2781,1.3492,1.3492,0,0,1-.3044.4017.0769.0769,0,0,0-.0215.1167C4.6132,15.1155,4.83,15.4432,5.2731,15.3783ZM16.292,25.031a.2517.2517,0,0,0,.2267-.0617c.3063-.2819.5947-.5834.92-.8446.03-.0242.069-.05.06-.0946-.0094-.0469-.0578-.0467-.0947-.057a5.0147,5.0147,0,0,1-1.0594-.3839.1522.1522,0,0,0-.17-.0011,3.37,3.37,0,0,0-.9143.7664.1251.1251,0,0,0,.0132.2026A2.27,2.27,0,0,0,16.292,25.031ZM6.4262,18.2936a1.3269,1.3269,0,0,0,.7117-.2505,2.1835,2.1835,0,0,0,.5457-.9368c.0276-.0651-.0132-.0944-.0733-.1254a2.4722,2.4722,0,0,1-.686-.4464c-.0537-.0562-.09-.041-.1425,0-.1279.1015-.2607.1968-.3911.2951a.5927.5927,0,0,0-.2737.6541,3.1656,3.1656,0,0,1,.1518.7094C6.2688,18.2784,6.3405,18.299,6.4262,18.2936Zm-.7971-1.3872a1.5677,1.5677,0,0,0,.9984-.46c.0926-.0862.0774-.1479.0112-.2435a1.529,1.529,0,0,1-.3422-.6663c-.0125-.1012-.064-.1322-.1616-.1126-.2207.0444-.4425.0838-.6636.1262a.4715.4715,0,0,0-.3939.4442,2.576,2.576,0,0,1-.108.6632c-.03.0672-.0044.1026.0636.125A1.7771,1.7771,0,0,0,5.6291,16.9064Zm18.3778.5789c.26-.0193.5251-.1461.8092-.19.0646-.01.0611-.07.039-.1234-.0928-.2255-.123-.4686-.1942-.6991a.4624.4624,0,0,0-.3767-.35,2.3392,2.3392,0,0,1-.5412-.1256c-.0623-.0236-.11-.0194-.1358.0506a3.0425,3.0425,0,0,1-.4.7033.134.134,0,0,0-.0239.1422A.8953.8953,0,0,0,24.0069,17.4853Zm-18.92-4.7034a1.2228,1.2228,0,0,0,.174.6439,1.7055,1.7055,0,0,0,.8885.58.0986.0986,0,0,0,.1411-.0792,1.98,1.98,0,0,1,.3561-.6838.1479.1479,0,0,0-.0133-.2058,2.2422,2.2422,0,0,1-.3272-.47c-.0933-.22-.1678-.2486-.4056-.2058-.2331.042-.4173.2065-.6454.2425C5.1105,12.6266,5.0485,12.6711,5.0873,12.7819Zm19.2268,3.1762a.6387.6387,0,0,0,.3723-.1045,8.5085,8.5085,0,0,0,.71-.5357c.0657-.0435.03-.1008-.0089-.1449a2.5173,2.5173,0,0,1-.2326-.3513.8236.8236,0,0,0-.4333-.36.2458.2458,0,0,0-.2677.0376,1.1577,1.1577,0,0,1-.5765.2631c-.1389.0246-.1783.0887-.1647.2168a1.7518,1.7518,0,0,1,.0011.5712.2478.2478,0,0,0,.2094.3359A1.4287,1.4287,0,0,0,24.3141,15.9581ZM12.3844,5.8959a2.8179,2.8179,0,0,1,1.1827.3327c.0593.03.1079-.0068.1587-.0307a2.1891,2.1891,0,0,0,.8449-.71c.077-.1055.0643-.1707-.0352-.2336a3.25,3.25,0,0,0-.9184-.395.2473.2473,0,0,0-.2648.1092,2.7958,2.7958,0,0,1-.2134.2388C12.8974,5.4418,12.6428,5.6616,12.3844,5.8959ZM23.8314,14.6a1.01,1.01,0,0,0,.7386-.5182c.1423-.24.0859-.52.1782-.7683.0139-.0375-.01-.0656-.0428-.0824a2.4221,2.4221,0,0,0-.5953-.278.4478.4478,0,0,0-.5308.2251.7791.7791,0,0,1-.2211.2728c-.0937.0641-.118.1339-.0336.2342a1.7638,1.7638,0,0,1,.3342.7656C23.6826,14.5538,23.7288,14.6162,23.8314,14.6ZM7.4545,11.74a.7.7,0,0,1,.01-.1685c.0471-.155-.0265-.22-.1654-.2444a1.1055,1.1055,0,0,0-.1658-.0277,1.9548,1.9548,0,0,1-.5861-.0682c-.0388-.013-.0875-.0247-.1023.0241a1.8861,1.8861,0,0,0-.1668.7864,1.5021,1.5021,0,0,0,.4634.8658c.0627.0606.1167.0769.19.017a2.5434,2.5434,0,0,1,.5372-.38.11.11,0,0,0,.06-.1523A1.7652,1.7652,0,0,1,7.4545,11.74Zm16.2031,6.2258a.5724.5724,0,0,0-.1452-.4018,2.6862,2.6862,0,0,1-.4426-.5271c-.0354-.07-.0851-.025-.125.007a2.2924,2.2924,0,0,1-.6562.3729.1382.1382,0,0,0-.1.1706,1.9288,1.9288,0,0,0,.2.6406.6388.6388,0,0,0,.4415.36,4.0072,4.0072,0,0,1,.5619.115c.0557.0181.1167.0173.1185-.0474C23.5168,18.416,23.6584,18.2061,23.6576,17.9658Zm-7.453-9.8633a1.2551,1.2551,0,0,0-.7026.3964c-.344.3735-.3275.4639.0912.7532a1.1964,1.1964,0,0,0,.5107.204c.1329.0182.1764-.1706.2793-.2457L16.3963,9.2a4.618,4.618,0,0,1,.8151-.6763c.0236-.0143.05-.0333.044-.0651s-.04-.0331-.0672-.0391a4.56,4.56,0,0,1-.5278-.1745C16.5071,8.191,16.35,8.1476,16.2046,8.1025Zm-4.6653,5.6253a1.8428,1.8428,0,0,0-.6425.1547c-.0955.0307-.1052.1026-.08.191a3.217,3.217,0,0,1,.1141.44c.042.3031.0347.304.319.3693a.5953.5953,0,0,1,.0807.0244.5237.5237,0,0,0,.4239-.0269,2.1406,2.1406,0,0,0,.7366-.6554c.0693-.0829.0208-.1482-.048-.1992A1.4757,1.4757,0,0,0,11.5393,13.7278Zm11.9428-.9424a1.7815,1.7815,0,0,0-.1465-.6883c-.0935-.2663-.0846-.2694-.3625-.2519-.5388.034-.7353.2489-.7556.7817a.3273.3273,0,0,0,.22.3484,1.99,1.99,0,0,1,.579.3722.1443.1443,0,0,0,.2341-.0093A.6571.6571,0,0,0,23.4821,12.7854ZM8.6947,17.6828c-.0063-.1011-.0073-.203-.02-.3033-.0111-.0854-.0379-.1679-.142-.1861-.2-.035-.4-.0685-.599-.1052-.0449-.0082-.0768-.0093-.0873.0458a3.9088,3.9088,0,0,1-.3278.72.3378.3378,0,0,0-.012.2437c.0952.3076.3728.4561.5714.6731a.08.08,0,0,0,.121-.01,1.3156,1.3156,0,0,0,.3706-.4513A1.9031,1.9031,0,0,0,8.6947,17.6828Zm9.3575-1.2952a.23.23,0,0,0,.2-.0632,1.1281,1.1281,0,0,1,.6431-.3111c.0823-.0114.1459-.057.121-.148-.0539-.1976-.0312-.4027-.0707-.6014a.1867.1867,0,0,0-.1641-.1681.9653.9653,0,0,0-.7144.13,4.31,4.31,0,0,0-.553.5134c-.1914.188-.1809.2051.03.375C17.7034,16.2428,17.8466,16.4105,18.0522,16.3876Zm-1.9252,5.795a.2422.2422,0,0,0,.0406-.0057,4.4106,4.4106,0,0,1,.8452-.2384c.0931-.0125.0289-.0736-.0112-.1017a4.1493,4.1493,0,0,1-.962-.9624.1867.1867,0,0,0-.2349-.066,2.1506,2.1506,0,0,0-.5879.36c-.1235.0787-.113.1546-.04.2647a2.5611,2.5611,0,0,0,.6278.5865A.67.67,0,0,0,16.127,22.1826Zm-3.212-9.0165a2.4452,2.4452,0,0,1,1.1955.2514c.25.0982.2878.0951.4159-.1511.0208-.04.0437-.0788.0636-.1191a.7516.7516,0,0,0-.2964-.9269,1.1,1.1,0,0,0-.4976-.0516.1969.1969,0,0,0-.2.1469.8735.8735,0,0,1-.1155.2783A4.6747,4.6747,0,0,1,12.915,13.1661Zm8.2212,4.9144a1.0057,1.0057,0,0,0,.3553.8024c.1125.09.1892.282.3132.2776.1384-.0049.2065-.2009.3114-.308a.4758.4758,0,0,0,.1307-.4976,6.6116,6.6116,0,0,1-.2069-.6927c-.02-.09-.0645-.1326-.1686-.109a2.8309,2.8309,0,0,1-.351.0456c-.3588.0353-.3839.0626-.3841.431Zm-8.5673,5.7331a1.8176,1.8176,0,0,0,.2121.1486,2.6923,2.6923,0,0,1,.763.6315.2517.2517,0,0,0,.3422.0642,2.9768,2.9768,0,0,0,.4589-.3131.2219.2219,0,0,0,.0591-.3437,2.8324,2.8324,0,0,0-.523-.5239.2043.2043,0,0,0-.2877-.0291,1.4369,1.4369,0,0,1-.4345.1821C12.9713,23.6852,12.7854,23.746,12.5689,23.8136Zm1.218-15.997a3.7238,3.7238,0,0,1-.78.1531c-.038.0051-.09-.0061-.1049.0371-.0193.054.0339.0795.069.1021a3.1329,3.1329,0,0,1,.6758.65c.1027.1214.1784.26.2778.382a.1672.1672,0,0,0,.22.0559,2.88,2.88,0,0,0,.4782-.315c.1339-.0822.14-.1863.0561-.3142a2.2953,2.2953,0,0,0-.8137-.72A.5926.5926,0,0,0,13.7869,7.8166Zm4.5509,6.0159a1.9048,1.9048,0,0,0-.7783.2533.0575.0575,0,0,0-.018.0989c.1746.1859.25.4406.4317.6209a.3727.3727,0,0,0,.406.1343.73.73,0,0,1,.4175.0048c.1206.0326.1777-.0046.1752-.1219a1.5435,1.5435,0,0,1,.1139-.5253.212.212,0,0,0-.1053-.2824A1.2312,1.2312,0,0,0,18.3378,13.8325Zm.0723,3.7446a1.3633,1.3633,0,0,0,.2132-.0023.2536.2536,0,0,0,.2276-.173,1.05,1.05,0,0,1,.4719-.5751c.0824-.05.0816-.087.0322-.1568a1.9988,1.9988,0,0,1-.2637-.4506c-.0169-.0455-.0485-.0833-.1012-.07a1.1925,1.1925,0,0,0-.6278.2994,2.7166,2.7166,0,0,0-.4751.9977c-.0281.0763.0066.1012.0793.1045A2.2617,2.2617,0,0,0,18.41,17.5771ZM7.583,11.7717a1.67,1.67,0,0,0,.072.4914c.0213.0835.062.135.169.1156a2.485,2.485,0,0,1,.5871-.05c.0876.0051.14-.03.1456-.1223a2.0653,2.0653,0,0,1,.1694-.6324.2751.2751,0,0,0-.1-.3435c-.1364-.1081-.2767-.2112-.4157-.316-.0451-.0341-.09-.0749-.1482-.0212A1.1294,1.1294,0,0,0,7.583,11.7717ZM17.1949,6.047A4.7067,4.7067,0,0,1,16.1785,5.31a.2108.2108,0,0,0-.1917-.0406,1.7826,1.7826,0,0,0-.7576.3115c-.081.0625-.0953.1167-.025.1927a3.4318,3.4318,0,0,0,.2493.2745c.34.296.5585.492.9454.2507A3.25,3.25,0,0,1,17.1949,6.047ZM8.7272,12.1163c.0262.1-.0422.2184.081.2379a2.8619,2.8619,0,0,1,.56.1848c.06.0227.1229.04.1531-.0452A2.1777,2.1777,0,0,1,9.93,11.84a.1706.1706,0,0,0,.0181-.24,6.2571,6.2571,0,0,1-.4045-.5965c-.0588-.1046-.0978-.0895-.1715-.0408A1.6933,1.6933,0,0,0,8.7272,12.1163Zm3.9591,9.2365a5.7334,5.7334,0,0,1,1.0118.3558c.0448.0226.0978.0485.1431.0084a2.5677,2.5677,0,0,0,.6086-.599.1332.1332,0,0,0-.0046-.1683,2.788,2.788,0,0,0-.5105-.5364c-.0868-.067-.1452-.0634-.2247.0274a3.3454,3.3454,0,0,1-.8925.7873A.2877.2877,0,0,0,12.6863,21.3528Zm7.2968-3.3087a1.3224,1.3224,0,0,0,.2924.8466c.1042.1349.1644.1752.3091.0753a.7114.7114,0,0,0,.4-.7009,1.63,1.63,0,0,1,.0108-.5223c.0184-.088-.0166-.1274-.0987-.1391A1.7735,1.7735,0,0,1,20.38,17.45a.1443.1443,0,0,0-.2144.0646A.9289.9289,0,0,0,19.9831,18.0441ZM11.7456,12.44a1.9173,1.9173,0,0,0-1.3183.6948.0981.0981,0,0,0,.0028.1376,1.089,1.089,0,0,1,.21.3443.16.16,0,0,0,.2426.091,1.3717,1.3717,0,0,1,.42-.1232.4006.4006,0,0,0,.4419-.3857c.0411-.1984.0617-.4019.1154-.5965C11.8987,12.46,11.8508,12.4292,11.7456,12.44Zm-.2883,3.7549a1.4345,1.4345,0,0,0,.7283-.2563c.1162-.0646.1141-.141.0434-.2307a1.647,1.647,0,0,0-1.1806-.6735.1508.1508,0,0,0-.1784.1371,3.5712,3.5712,0,0,1-.1255.5072c-.0213.0571-.04.1345.0227.1716C10.9947,15.9844,11.1766,16.2168,11.4573,16.1944Zm4.4978,1.6326c.1447.03.241-.0431.3082-.205a1.3086,1.3086,0,0,1,.391-.4778c.0372-.0315.1024-.0558.0881-.1117-.0154-.06-.0833-.0453-.1314-.0448a.9794.9794,0,0,1-.2825-.0447,1.8083,1.8083,0,0,1-.6187-.2989c-.1733-.1342-.3083-.1047-.4051.0635A.7369.7369,0,0,0,15.9551,17.827Zm2.6626-5.1434c-.0832.01-.2062.0226-.3287.0392-.055.0074-.1036.0372-.0915.0989.0422.2149.0214.4367.0828.6505a.2449.2449,0,0,0,.2.1989,1.6965,1.6965,0,0,1,.6113.2317c.0815.0531.1355.0357.1777-.0437a1.4852,1.4852,0,0,1,.2517-.3359c.0331-.0342.0729-.0737.05-.1335A1.1592,1.1592,0,0,0,18.6177,12.6836Zm-7.7019-.4522a2.2167,2.2167,0,0,0-.0764-.5375c-.0168-.0967-.0577-.1266-.1625-.1029a1.3,1.3,0,0,0-.9144.8c-.1152.25-.1117.2487.111.4032.0965.0671.1854.1455.2762.2206.0532.0439.101.0722.1554,0a1.6405,1.6405,0,0,1,.4156-.3639A.3962.3962,0,0,0,10.9158,12.2314Zm10.3256.2013a.5669.5669,0,0,1-.0006.0845c-.0245.1591.0308.2322.2021.2125a1.2236,1.2236,0,0,1,.4362.0428c.1246.0313.16-.0151.16-.1338a1.0878,1.0878,0,0,1,.13-.5707.248.248,0,0,0-.0121-.2572,1.9433,1.9433,0,0,0-.5466-.52c-.0378-.0327-.0718-.0139-.1034.0173-.0722.0713-.1533.1349-.2176.2125a.4132.4132,0,0,0-.1021.4786A.9362.9362,0,0,1,21.2414,12.4327Zm-2.2627,5.2224c.0068.135.0095.27.0214.4049.0109.1223-.0523.286.0316.3563s.2322-.0241.3548-.0337a.4662.4662,0,0,0,.43-.3277,1.5873,1.5873,0,0,1,.2063-.62.1275.1275,0,0,0-.0517-.1972,1.7742,1.7742,0,0,1-.3918-.2908.0889.0889,0,0,0-.1349-.0079C19.2074,17.1248,18.9732,17.3129,18.9787,17.6551Zm.1467-5.199a.329.329,0,0,0,.1307.288,1.531,1.531,0,0,1,.4121.4832c.0234.04.0524.0872.1036.0388a5.1943,5.1943,0,0,1,.4766-.2856c.0487-.0373.0826-.0672.0768-.135a1.2087,1.2087,0,0,0-.8919-1.0553c-.0494-.0133-.0986-.0412-.1212.0358C19.2505,12.0362,19.1877,12.2461,19.1254,12.4561ZM5.8074,18.9039a3.0478,3.0478,0,0,1-.7535.3776c-.2945.0791-.3159.0823-.2794.385a.6933.6933,0,0,0,.7412.6883.3556.3556,0,0,0,.3455-.5279c-.0148-.0361-.0234-.0749-.0347-.1125A1.5992,1.5992,0,0,1,5.8074,18.9039Zm4.7131-1.1692a1.18,1.18,0,0,0-.2731-.8563c-.1232-.2039-.19-.2106-.3876-.083-.1088.07-.2137.1464-.3217.2178-.0447.0295-.0853.06-.071.1207.0953.4057.2.809.6421.985.3522.14.3789.2456.4111-.2413C10.5225,17.844,10.5205,17.81,10.5205,17.7347Zm-.8191.4835c0-.0894.0016-.145-.0417-.1914a1.34,1.34,0,0,1-.2843-.5851c-.079-.2856-.0814-.2768-.3774-.2584-.1356.0084-.1755.0625-.1692.1875a2.8075,2.8075,0,0,1-.0434.7905.313.313,0,0,0,.15.3608c.1155.0788.2386.1462.3586.2182.0327.02.0785.06.104.0185C9.5106,18.5743,9.6814,18.4192,9.7014,18.2182ZM11.5242,17.1a.7264.7264,0,0,0-.0408-.2514,1.42,1.42,0,0,0-.7836-.8139c-.08-.0407-.1192.0085-.1472.065a1.1546,1.1546,0,0,1-.2276.3128.1729.1729,0,0,0-.0227.2513,1.5078,1.5078,0,0,0,.966.6552C11.4881,17.3728,11.5262,17.3422,11.5242,17.1ZM8.4673,21.378a.9842.9842,0,0,0,.5932-.4529c.0754-.1171.0425-.1871-.0626-.2461a1.9812,1.9812,0,0,1-.6133-.4957c-.069-.0884-.1241-.08-.1685.0267a.9432.9432,0,0,1-.3665.4093c-.2385.1611-.24.1583-.05.3715a.5533.5533,0,0,0,.0576.0617A1.1981,1.1981,0,0,0,8.4673,21.378Zm-5.0894.4028c-.0455-.1742-.0771-.3279-.1258-.476a7.1323,7.1323,0,0,1-.3632-1.406.6516.6516,0,0,0-.3926-.4982c-.07-.0427-.1332-.04-.1508.0565a.8246.8246,0,0,0-.0132.5256c.1771.4014.3183.8174.529,1.2056A1.2247,1.2247,0,0,0,3.3779,21.7808Zm17.7032-9.3117a1.2829,1.2829,0,0,0-.5233-1.0535.1007.1007,0,0,0-.1509,0,1.003,1.003,0,0,0-.2931.4044c-.0144.0541-.0354.11.0083.1606a1.8562,1.8562,0,0,1,.3576.7705c.0132.0493.0252.1139.0882.1051a1.1655,1.1655,0,0,0,.4661-.1289C21.1282,12.6682,21.0686,12.5384,21.0811,12.4691Zm6.3776,4.0485a.9873.9873,0,0,0-.233-.7273c-.0672-.068-.1111-.0763-.1767-.0042a1.2452,1.2452,0,0,1-.4427.3325c-.0884.0361-.2231.05-.2547.1142-.0553.1122.1042.1473.1628.2177a2.3379,2.3379,0,0,1,.3212.5884c.0352.0808.076.14.1764.0756C27.27,16.9481,27.4733,16.7485,27.4587,16.5176ZM26.555,20.605a2.8267,2.8267,0,0,0,.054.6375c.0108.0652-.0021.1655.0915.1807a.2151.2151,0,0,0,.1871-.0976,2.8685,2.8685,0,0,0,.3729-.6578.1468.1468,0,0,0-.0072-.13,4.8145,4.8145,0,0,1-.2314-.7206c-.0622-.2122-.177-.2449-.3472-.1a.2811.2811,0,0,0-.08.2147C26.58,20.1563,26.5682,20.3807,26.555,20.605ZM3.1427,8.26a.5967.5967,0,0,1-.1137.2156,1.31,1.31,0,0,0-.2956.7731c.008.32.1244.6186.1464.934a.0835.0835,0,0,0,.071.0837.4354.4354,0,0,0,.3819-.3181A8.0632,8.0632,0,0,0,3.1427,8.26Zm8.6642,11.5929c.003-.2369,0-.2409-.2008-.2686a.9541.9541,0,0,1-.3346-.1094c-.1019-.0562-.1546-.0361-.1656.0875a1.0485,1.0485,0,0,1-.2517.63c-.0371.0413-.056.079-.0162.133a.5734.5734,0,0,0,.7283.09A.7738.7738,0,0,0,11.8069,19.8524ZM25.053,10.41a1.5759,1.5759,0,0,0-.0752-.311.6455.6455,0,0,0-.8935-.3691c-.0912.046-.1137.0836-.0527.1787a1.47,1.47,0,0,1,.2678.6658c.0075.0889.0471.13.1468.0949a1.7936,1.7936,0,0,1,.4782-.1C25.0262,10.5622,25.06,10.5033,25.053,10.41ZM21.5149,8.7961a.6674.6674,0,0,0-.5171.2078c-.118.1119-.12.178.0159.2656a1.3831,1.3831,0,0,1,.536.4754c.0239.045.07.0959.1234.0045a1.3759,1.3759,0,0,1,.4047-.4634c.11-.0743.1111-.1595.0155-.25A.8738.8738,0,0,0,21.5149,8.7961ZM4.414,9.8956a.4953.4953,0,0,0-.5136.2571.6969.6969,0,0,0,.0081.6328c.0273.0631.07.0879.1321.0425a.8032.8032,0,0,1,.5473-.1264c.0973.0058.1237-.0362.1257-.1295a1.276,1.276,0,0,1,.0267-.4179c.0577-.1588-.0274-.217-.1585-.2453A1.2119,1.2119,0,0,0,4.414,9.8956ZM13.0418,18.57c-.008.1176-.0169.1887.0652.2351a.5885.5885,0,0,0,.821-.4517.3376.3376,0,0,0-.3926-.3843.7947.7947,0,0,1-.35-.0282c-.08-.027-.1137-.0022-.1121.0849A3.0345,3.0345,0,0,1,13.0418,18.57Zm5.675-8.03a1.6065,1.6065,0,0,1,.1615-.8374c.046-.0739.0023-.1086-.0594-.1437a.5969.5969,0,0,0-.8731.64.1343.1343,0,0,0,.137.1228A1.0869,1.0869,0,0,1,18.7168,10.54Zm-5.0656,5.11a.448.448,0,0,0,.07.0577,2.209,2.209,0,0,1,.673.4125c.0681.0682.1355.0245.1944-.0251a.53.53,0,0,0-.0817-.9235.14.14,0,0,0-.2057.02A2.2376,2.2376,0,0,1,13.6512,15.6493Zm8.8882-2.25a.2835.2835,0,0,0-.2158.1,1.5211,1.5211,0,0,0-.3579.621c-.0308.0728-.0676.1458.021.21.0831.0606.1574.1288.2709.0563.1609-.1027.3271-.1973.49-.2968a.3413.3413,0,0,0,.1688-.3862A.4843.4843,0,0,0,22.5394,13.3994Zm2.9336,5.7792c-.2335-.0075-.234-.0075-.234.2072a1.16,1.16,0,0,1-.0961.4749c-.0388.0877-.0144.135.0816.1568a.685.685,0,0,0,.7993-.769c-.02-.1079-.0593-.175-.1928-.1362A.8046.8046,0,0,1,25.473,19.1786ZM2.4688,13.5363a.75.75,0,0,0,.09.3285c.06.0926.0975.1238.2061.0407a1.267,1.267,0,0,1,.5638-.2944c.0759-.0118.0967-.0392.0491-.1118a1.5782,1.5782,0,0,1-.3289-.5643c-.01-.0529-.0574-.0417-.0971-.0306A.7693.7693,0,0,0,2.4688,13.5363ZM16.706,11.3519c.0021-.0842.0107-.1671-.0841-.19-.3737-.09-.6115-.0015-.6875.4237a.3126.3126,0,0,0,.3834.37c.0893-.013.1788-.0266.2687-.0323.0952-.0061.1322-.0531.117-.1436A1.1874,1.1874,0,0,1,16.706,11.3519ZM8.1894,13.2894c.0156-.26-.0619-.4008-.2386-.48-.11-.05-.2256-.1022-.3331-.0082-.1047.0915-.0789.2164-.0505.3322a3.04,3.04,0,0,0,.2918.6452c.0375.0732.09.1385.1875.0871.0892-.0471.2134-.0612.1837-.2182C8.2051,13.5148,8.199,13.3788,8.1894,13.2894ZM22.71,20.49a2.2429,2.2429,0,0,1-.2753.5814c-.0419.0622-.0229.0988.0278.1418a.62.62,0,0,0,.9473-.2288c.046-.1052.0258-.1561-.0878-.1776A1.2229,1.2229,0,0,1,22.71,20.49ZM19.971,21.5548a.5251.5251,0,0,0,.3608-.1217c.0379-.0279.0726-.0627.0341-.112a5.26,5.26,0,0,1-.3576-.57c-.0346-.0584-.0666-.0664-.1165-.0155a.9355.9355,0,0,1-.4278.2576c-.119.032-.1165.1011-.0687.19A.6561.6561,0,0,0,19.971,21.5548ZM7.0843,8.4878a.5492.5492,0,0,0-.4625.4329c-.0047.06.0269.0779.0717.0966a1.1412,1.1412,0,0,1,.5012.3c.0266.0334.07.058.0911-.0012a3.1841,3.1841,0,0,1,.2724-.466.1336.1336,0,0,0-.0392-.1929A.9443.9443,0,0,0,7.0843,8.4878Zm8.3835,6.38a.1156.1156,0,0,0-.0579-.0888.4987.4987,0,0,1-.1975-.3052c-.0287-.13-.0906-.1016-.1591-.0383-.1522.14-.3052.28-.4519.4264-.0781.0776-.1081.1611.0239.2256a.48.48,0,0,1,.1605.1708c.1171.1614.2062.17.3448.02.1032-.1114.1979-.2307.2954-.3473A.5888.5888,0,0,0,15.4678,14.8674ZM19.91,16.772a.27.27,0,0,0,.2076-.1222c.1664-.1969.3355-.3916.5006-.59.0447-.0536.1066-.1091.027-.1875a.15.15,0,0,0-.2216-.0251,4.3252,4.3252,0,0,1-.6265.36.3088.3088,0,0,0-.1448.3645A.2369.2369,0,0,0,19.91,16.772Zm-12.1249-2.78c-.0411-.0736-.0844-.1656-.1408-.2486-.0838-.1231-.0944-.2773-.1766-.3989a.3481.3481,0,0,0-.49-.0926c-.131.0986-.1272.2305.0122.41a2.1138,2.1138,0,0,0,.5787.4823c.0467.0289.0917.0507.1375.0085A.1893.1893,0,0,0,7.7848,13.9919Zm-.9741,1.0924a1.6013,1.6013,0,0,0,.5638-.0879c.1157-.036.1184-.1115.12-.2078a.1421.1421,0,0,0-.1446-.1541,4.8406,4.8406,0,0,1-.5267-.1152.3923.3923,0,0,0-.39.2391.2085.2085,0,0,0,.07.269C6.59,15.1107,6.7063,15.0715,6.8107,15.0843Zm.1311.9683a.2906.2906,0,0,0,.1357.2958.2372.2372,0,0,0,.27-.0273,1.7355,1.7355,0,0,0,.4415-.505c.0877-.144-.0878-.1667-.1209-.2562-.0172-.0465-.0646-.0512-.1148-.0264-.1256.0622-.254.1187-.3808.1786A.388.388,0,0,0,6.9418,16.0526Zm1.9413.5242a2.2483,2.2483,0,0,0-.0922-.5361c-.0121-.0612-.0439-.1054-.1121-.1034-.0705.002-.1731-.03-.1987.05a1.1251,1.1251,0,0,0-.1316.68c.0487.1677.23.3174.3482.293C8.8183,16.9347,8.8909,16.79,8.8831,16.5768Zm13.2094.4325c-.0043-.0175-.0142-.0671-.0288-.1153a3.2327,3.2327,0,0,0-.3014-.6774c-.04-.0684-.08-.1261-.17-.1-.0988.0286-.0815.1119-.0755.182.0149.1738.0531.3471.0506.52a.4662.4662,0,0,0,.1749.3823c.0629.055.1193.1267.2194.0762A.2507.2507,0,0,0,22.0925,17.0093ZM12.4373,10.568c.1115-.013.2064-.0256.3017-.0347a.1439.1439,0,0,0,.1316-.0893.56.56,0,0,0-.1468-.5435.4008.4008,0,0,0-.4646-.0763c-.0856.0335-.0981.0705-.0645.1513a.9512.9512,0,0,1,.1.458C12.2826,10.5553,12.3317,10.6044,12.4373,10.568Zm-1.97-1.672a.8573.8573,0,0,0-.23-.3449.4076.4076,0,0,0-.5749.0415A.0969.0969,0,0,0,9.661,8.74a1.6232,1.6232,0,0,1,.3.5207c.0154.042.0378.0818.08.0335a2.0647,2.0647,0,0,1,.3769-.2789A.1212.1212,0,0,0,10.4676,8.896Zm10.7216,4.1233a.2593.2593,0,0,0-.25.2684,1.9748,1.9748,0,0,0,.1281.7108c.0218.0714.0721.0859.1452.0811.0785-.0052.1195-.0432.1231-.1109.0118-.2164.1067-.414.1349-.6262A.2794.2794,0,0,0,21.1892,13.0193Zm-1.5377,2.3936c.1275-.0186.3331-.0456.5374-.08.0609-.01.1274-.0419.1234-.117-.0034-.0626.0193-.1656-.0574-.1783a1.4867,1.4867,0,0,0-.758-.08c-.136.0467-.2973.0808-.2917.2739C19.2088,15.3564,19.3369,15.4145,19.6515,15.4129Zm-12.08,1.1093a.2138.2138,0,0,0,.0909.1784c.1472.1213.35.0577.4551-.1507a2.1027,2.1027,0,0,0,.1571-.48c.0171-.0748.036-.1483-.0659-.1772-.097-.0275-.1931-.1082-.2845.0224a2.5311,2.5311,0,0,1-.2984.3877C7.572,16.3544,7.574,16.4248,7.5712,16.5222Zm-4.8388.3486a.6768.6768,0,0,0,.307.501.1267.1267,0,0,0,.2083-.0522,1.6533,1.6533,0,0,1,.2656-.408c.0467-.0486.0583-.1062-.0283-.1231a2.1027,2.1027,0,0,1-.529-.2155.1079.1079,0,0,0-.17.0722A2.2033,2.2033,0,0,0,2.7324,16.8708Zm18.7658-2.87c-.0183.0738.0631.1307.1791.1608.1307.0339.13-.083.1594-.1507a3.7986,3.7986,0,0,0,.2436-.7155c.0244-.111.0443-.2341-.07-.2825-.1094-.0463-.2093.04-.26.1376A2.3781,2.3781,0,0,0,21.4982,14.0007Zm-1.2746,2.9029a.23.23,0,0,0,.1738.2647.2419.2419,0,0,0,.3022-.1557,3.3464,3.3464,0,0,0,.2337-.7925c.0069-.0515.0238-.1053-.0348-.134s-.0965.015-.1286.054c-.1607.195-.3185.3924-.48.5867A.2525.2525,0,0,0,20.2236,16.9036Zm-.6893-.8029a1.8392,1.8392,0,0,0,.8494-.4513c.04-.0349.0269-.0833.0023-.1245a.0984.0984,0,0,0-.1163-.0455,5.8245,5.8245,0,0,1-.7307.1291.3616.3616,0,0,0-.256.34C19.31,16.0816,19.4147,16.103,19.5343,16.1007Zm1.89.7383c-.0237-.1779-.05-.3556-.07-.534-.0085-.0761-.0279-.1292-.1181-.1316s-.1132.053-.133.1232c-.0521.1842-.1085.3671-.161.5511a.3781.3781,0,0,0,.1676.4365c.1092.0726.1846.06.2387-.0652A.933.933,0,0,0,21.4248,16.839ZM8.5212,13.7518a.1482.1482,0,0,0,.1566-.134,5.4512,5.4512,0,0,1,.176-.6848.3049.3049,0,0,0-.18-.3123c-.15-.03-.2232.0727-.2595.1876a1.5219,1.5219,0,0,0-.0043.8647C8.4236,13.7226,8.4413,13.7745,8.5212,13.7518Zm11.6721,1.0919a.1294.1294,0,0,0,.1608-.0876c.035-.0871-.0008-.1332-.0737-.1772-.1442-.087-.2854-.1791-.4245-.2739a.3458.3458,0,0,0-.4358.0191.2357.2357,0,0,0-.1136.2277c.01.0992.09.1225.1619.15C19.702,14.79,19.9554,14.7782,20.1933,14.8437Zm3.153-.5088a.1519.1519,0,0,0-.0319-.1235.2681.2681,0,0,0-.3122-.0607,2.5158,2.5158,0,0,0-.6651.3918c-.0711.0507-.0392.12-.0145.1845.03.0794.09.0711.1542.0541.2068-.0548.4114-.121.6211-.1605C23.2753,14.5872,23.3124,14.4608,23.3463,14.3349Zm-13.5675.4836a1.0444,1.0444,0,0,0-.1348.001c-.1238.0161-.1075.1265-.1339.2074-.0168.0514-.0257.1059.0422.1239a2.8056,2.8056,0,0,0,.851.1948.1783.1783,0,0,0,.1771-.1033c.0376-.0837-.025-.124-.0723-.17A1.0149,1.0149,0,0,0,9.7788,14.8185Zm10.6551-1.6014c-.1685-.0028-.2532.13-.1945.306a1.8366,1.8366,0,0,0,.3815.5914.1512.1512,0,0,0,.1931.0573c.0873-.04.0775-.1184.0636-.19-.0321-.1657-.0657-.3315-.1079-.4949A.4119.4119,0,0,0,20.4339,13.2171ZM9.5871,16.566a1.6289,1.6289,0,0,0-.41-.7379c-.0311-.0355-.059-.094-.1232-.0549-.0587.0359-.1182.0775-.1032.1589.04.2161.076.4334.1285.6466a.3092.3092,0,0,0,.3436.1866A.2022.2022,0,0,0,9.5871,16.566ZM6.7793,13.7994a.2413.2413,0,0,0-.2638.19.23.23,0,0,0,.1353.264,2.7193,2.7193,0,0,0,.72.22c.063.0176.1407.05.1766-.0359.03-.0715-.0345-.1135-.082-.15a5.0873,5.0873,0,0,1-.5312-.4392A.1977.1977,0,0,0,6.7793,13.7994ZM27.0544,9.2228a4.3025,4.3025,0,0,1,.0808.73c.0047.2256.0244.4388.2551.56.0512.0269.0821.1259.1465.0836a.2566.2566,0,0,0,.1085-.233.4843.4843,0,0,0-.0481-.1429c-.0649-.1553-.1333-.3092-.1971-.4649A1.2718,1.2718,0,0,0,27.0544,9.2228ZM9.4615,13.0817c.0041-.1664-.04-.242-.1483-.2786-.123-.0415-.1905.0389-.2523.1213a.4607.4607,0,0,0-.0791.1486c-.0533.1954-.1.3927-.1474.59a.1222.1222,0,0,0,.0773.1506c.0574.0277.1122.0327.15-.0254.1311-.2031.2609-.4072.3864-.6139A.2009.2009,0,0,0,9.4615,13.0817ZM22.638,16.8581a1.2535,1.2535,0,0,0-.0825-.26,2.1,2.1,0,0,0-.3886-.5665c-.0387-.049-.076-.1265-.1621-.0679-.0753.0513-.1171.1058-.0668.2088a6.0813,6.0813,0,0,1,.2529.5877.3892.3892,0,0,0,.2705.233C22.573,17.032,22.63,16.9667,22.638,16.8581Zm-7.3357-2.5542c-.0206.1728.0926.2719.1986.3744.0568.0548.1119.0376.1654-.0059.1046-.0848.205-.1754.3147-.253.0816-.0578.07-.0969.0031-.1544a2.3724,2.3724,0,0,1-.27-.2285c-.0569-.0654-.1079-.182-.1971-.1616-.1059.0242-.1489.1453-.1819.248A1.3206,1.3206,0,0,0,15.3023,14.3039Zm4.6193-.6791a.2456.2456,0,0,0-.2593.159c-.0481.1134.0422.1989.1171.2592A4.3191,4.3191,0,0,0,20.4,14.45c.072.04.1031.003.127-.0572a.1439.1439,0,0,0-.0414-.1555,2.8653,2.8653,0,0,1-.336-.5051A.2331.2331,0,0,0,19.9216,13.6248Zm3.2589,1.1572a3.4366,3.4366,0,0,0-.6165.137c-.0711.0222-.1465.05-.1362.1444.0119.1075.1034.1067.18.1075a1.2643,1.2643,0,0,1,.5078.1028c.1284.0575.2014-.0208.28-.09a.1928.1928,0,0,0,.0275-.2469A.2362.2362,0,0,0,23.1805,14.782Zm3.8618-1.7991a.63.63,0,0,0-.2339-.503c-.096-.0767-.1689-.0772-.2046.0638a.77.77,0,0,1-.1806.3756c-.0871.0868-.05.13.0469.1651a1.2911,1.2911,0,0,1,.3076.1358c.1425.0979.1713.0879.2328-.0751A.3316.3316,0,0,0,27.0423,12.9829Zm-4.1932,3.464a.2945.2945,0,0,0,.2451-.1691c.0412-.1063-.0439-.1632-.1077-.2249a2.4464,2.4464,0,0,0-.5724-.348c-.0572-.031-.1144-.0572-.1644.0089a.12.12,0,0,0,.021.1672,2.5571,2.5571,0,0,1,.3062.42A.2767.2767,0,0,0,22.8491,16.4469ZM22.561,15.33c-.0884-.0112-.1607.0041-.1883.1012-.0244.0854.0447.1183.0981.1318a2.2993,2.2993,0,0,1,.5284.2919.2334.2334,0,0,0,.3455-.0716c.08-.1355.0028-.2174-.1036-.2931C23.0346,15.3431,22.7854,15.3887,22.561,15.33Zm-12.4578.8849a.4253.4253,0,0,0-.1918-.3414c-.148-.1122-.3081-.2088-.4659-.3075-.0442-.0277-.0947-.08-.1523-.0319-.0675.0562-.0225.12.0142.1645a3.4783,3.4783,0,0,1,.3614.5667.226.226,0,0,0,.1542.0954C10.0117,16.4115,10.1012,16.3659,10.1032,16.2149ZM10.3963,13.8a.1654.1654,0,0,0-.2308-.1428,2.4246,2.4246,0,0,0-.6974.4324.1061.1061,0,0,0-.0351.148c.0356.0606.0849.0377.1335.0238a3.6294,3.6294,0,0,1,.4889-.1224A.5072.5072,0,0,0,10.3963,13.8Zm-.3934-.4432c.01-.0936-.0512-.1432-.1154-.1917-.07-.0528-.1284-.0188-.182.0254a2.2316,2.2316,0,0,0-.4848.6987.0586.0586,0,0,0,.0176.076c.0459.0352.0832.0079.1213-.0184.1657-.1144.3282-.2341.4992-.34A.3125.3125,0,0,0,10.0029,13.3563Zm-.1234,1.27a1.8539,1.8539,0,0,0,.6772-.0978c.0662-.0331.119-.074.1125-.15s-.0661-.0875-.1343-.098a2.1411,2.1411,0,0,0-.9177.1571.0935.0935,0,0,0-.0627.1227c.0146.0537.0583.065.1054.066C9.7331,14.6276,9.8063,14.6265,9.88,14.6265Zm7.6338,5.4984c.1169.01.1778-.0346.1294-.1782a.8769.8769,0,0,1-.0436-.333c.0037-.0626-.0086-.11-.0948-.0969-.1332.02-.2678.0334-.4022.0443-.0733.006-.0937.0366-.0873.1092A.5.5,0,0,0,17.5133,20.1249ZM6.7874,15.6813a1.9507,1.9507,0,0,0,.7083-.33.1174.1174,0,0,0,.0227-.141c-.0232-.0626-.0789-.0535-.1294-.0449-.1719.0293-.3439.0582-.5153.0906a.3451.3451,0,0,0-.2544.2012C6.557,15.5888,6.621,15.6822,6.7874,15.6813ZM1.42,13.6992a15.02,15.02,0,0,0,.0077,2.2944A10.6275,10.6275,0,0,0,1.42,13.6992Zm8.7609,2.1462c.126-.0009.2289-.0146.2513-.1316.0238-.124-.0821-.17-.1717-.1956-.2382-.0684-.48-.1236-.721-.1831-.0265-.0065-.0612-.0145-.0695.0226a.0668.0668,0,0,0,.0254.0563,5.1269,5.1269,0,0,1,.6113.4225C10.1289,15.8541,10.1725,15.8446,10.1812,15.8454Z" fill="#fbc926"/><path d="M25.488,11.6732a.14.14,0,0,1-.0688.1005q-.37.2945-.7405.5883c-.0459.0362-.1.07-.1492.0135-.0532-.06.0131-.0891.0463-.1207.2423-.23.5429-.381.8026-.5878C25.4159,11.6372,25.4577,11.6262,25.488,11.6732Z" fill="#fbc926"/><path d="M3.6878,15.1714a.94.94,0,0,1,.3177.0358c.0466.0147.0871.0371.08.092-.0071.0594-.0595.0687-.1034.06a4.4126,4.4126,0,0,0-.9577.0234c-.0571.0005-.1241.0131-.1343-.0635-.0115-.0863.0635-.1047.1236-.1034C3.24,15.2205,3.463,15.18,3.6878,15.1714Z" fill="#fbc926"/><path d="M26.47,14.6685a6.4237,6.4237,0,0,0-.7125.0018c-.0452.0093-.1152.02-.116-.0549-.0007-.0607.0583-.0818.1109-.08.2137.0066.4272.02.6409.0262.1408.0039.2817-.0015.4226-.0012.0413,0,.1044-.0232.1071.0431.0024.0567-.06.0623-.1029.0638C26.6965,14.6712,26.5726,14.6685,26.47,14.6685Z" fill="#fbc926"/><path d="M5.292,17.4308a.07.07,0,0,1,.0648.0483.08.08,0,0,1-.0262.0918,4.9483,4.9483,0,0,1-.8215.6693c-.0254.0121-.05.0266-.0761.0363-.0388.0143-.08.0215-.1017-.0257a.0673.0673,0,0,1,.0416-.0963,2.8442,2.8442,0,0,0,.779-.6384A.2631.2631,0,0,1,5.292,17.4308Z" fill="#fbc926"/><path d="M19.8954,9.9656c-.0108-.0608-.0139-.0934.0167-.1059.0425-.0174.0593.02.0747.0491a.8.8,0,0,1,.1007.32,2.55,2.55,0,0,0,.1121.7158c.0179.0484.0338.1067-.0294.131-.0664.0254-.0818-.0361-.1056-.08a1.1735,1.1735,0,0,1-.0842-.3947A2.2118,2.2118,0,0,0,19.8954,9.9656Z" fill="#fbc926"/><path d="M21.5088,20.7506a.3338.3338,0,0,1-.1335-.324c-.0056-.3258.0034-.6519.0072-.978,0-.0458.0021-.1011.0655-.0945.0563.0059.06.0621.06.1064.0017.2025.0006.4051.0006.6077Z" fill="#fbc926"/><path d="M8.6609,10.0186a3.1152,3.1152,0,0,1-.0237.4394c-.0111.046-.0047.1154-.0781.1056-.0559-.0074-.0575-.0659-.0522-.11a5.831,5.831,0,0,0,.0386-.9066c-.0013-.039.0041-.0853.0612-.0788a.0874.0874,0,0,1,.0726.0994C8.6777,9.7079,8.6685,9.8479,8.6609,10.0186Z" fill="#fbc926"/><path d="M23.7713,18.9815a.102.102,0,0,1,.0936.0783c.0829.2588.2561.4726.3583.7215.0159.0387.061.0852.0086.1184-.0428.0271-.0654-.0279-.091-.0544a3.0578,3.0578,0,0,1-.4215-.6837C23.6807,19.092,23.67,19.0085,23.7713,18.9815Z" fill="#fbc926"/><path d="M26.3186,17.9693c-.3041-.1711-.6005-.26-.8771-.3941A.3863.3863,0,0,1,25.37,17.53c-.0489-.0391-.1091-.0834-.0579-.1515.0448-.0595.1038-.0252.1479.0125a5.2379,5.2379,0,0,0,.6737.3457A.3275.3275,0,0,1,26.3186,17.9693Z" fill="#fbc926"/><path d="M3.7511,12.0173c.0532.0329.12.0732.1855.115.2316.1473.4945.2383.7183.4.0455.0328.11.0628.0775.1288-.0372.075-.0987.0269-.1441.0011-.2821-.1606-.5626-.3239-.8435-.4866-.0453-.0262-.0861-.0576-.0741-.1186C3.677,12.025,3.7025,12.0137,3.7511,12.0173Z" fill="#fbc926"/><path d="M22.435,11.087a2.3672,2.3672,0,0,1,.12-.442c.0606-.18.118-.3619.1783-.5425.0139-.0418.03-.1.0835-.0885.0694.0149.05.08.0363.1258-.0953.3284-.1941.6559-.291.9839-.0135.0457-.028.092-.0879.0752C22.4252,11.1852,22.4333,11.1389,22.435,11.087Z" fill="#fbc926"/><path d="M9.8881,20.13a.1941.1941,0,0,1-.1182-.1381c-.0874-.2646-.0463-.55-.1316-.8149a.0626.0626,0,0,1,.0465-.079c.0525-.0182.0842.01.1076.0549a.9356.9356,0,0,1,.05.3472,2.456,2.456,0,0,0,.0841.5146C9.942,20.06,9.9647,20.1146,9.8881,20.13Z" fill="#fbc926"/><path d="M17.6107,11.2026a.14.14,0,0,1,.095.0646q.3229.4224.6443.8462c.0351.0461.0772.106.0183.1475s-.099-.0213-.1333-.0669q-.3249-.432-.6507-.8633a.1018.1018,0,0,1-.0252-.0936A.0484.0484,0,0,1,17.6107,11.2026Z" fill="#fbc926"/><path d="M10.5362,11.0644a.1941.1941,0,0,1,.0115-.0459c.1421-.275.2842-.55.4285-.824.0241-.0457.063-.0918.1213-.063.0635.0313.0339.0894.0128.1328a2.6719,2.6719,0,0,1-.1377.252,3.5417,3.5417,0,0,0-.2673.5442c-.02.0482-.0513.091-.1139.0808C10.5525,11.1349,10.5363,11.106,10.5362,11.0644Z" fill="#fbc926"/><path d="M16.9916,15.73l-.8889-.0695c-.0393-.0031-.0906-.0025-.09-.0529s.0517-.0545.09-.0528c.1623.0069.3244.02.4868.0249s.3258,0,.4887.0031c.0517.001.1316-.02.1334.0607.0018.0769-.0719.0883-.1362.0911-.0281.0012-.0562,0-.0843,0Z" fill="#fbc926"/><path d="M12.34,18.6133c-.0186.08-.065.0735-.1143.0432a.6915.6915,0,0,1-.194-.1845c-.1327-.18-.2661-.36-.3978-.5411-.0318-.0438-.0476-.0942.003-.135.0458-.0368.085-.0108.1147.0279q.2815.3659.5613.7331A.287.287,0,0,1,12.34,18.6133Z" fill="#fbc926"/><path d="M13.9456,14.4067a.686.686,0,0,1-.37.06c-.2363-.0027-.4724-.03-.7084-.05-.0529-.0045-.1275-.003-.1159-.0869.0106-.0769.0816-.0705.1355-.0642a8.43,8.43,0,0,0,.96.0747A.09.09,0,0,1,13.9456,14.4067Z" fill="#fbc926"/><path d="M19.3706,19.01a1.1307,1.1307,0,0,1-.1434.3125c-.13.2244-.2681.4434-.4058.6629-.0205.0327-.0292.1057-.09.0719-.0431-.0239-.0234-.0827-.012-.1256a2.2816,2.2816,0,0,1,.2671-.4869c.0838-.1527.1741-.3015.2432-.4621.0151-.0351.03-.0814.08-.0733C19.3549,18.9165,19.3672,18.9575,19.3706,19.01Z" fill="#fbc926"/><path d="M17.8871,17.9474c-.0133.0216-.0258.0653-.0547.0854a5.8605,5.8605,0,0,1-.8568.5906c-.0325.0149-.0707.0577-.099.0039-.0193-.0364.0233-.0563.0466-.0794.2523-.25.5733-.4138.8288-.66a.0815.0815,0,0,1,.0927-.0222C17.8724,17.8781,17.8875,17.9007,17.8871,17.9474Z" fill="#fbc926"/><path d="M6.978,19.9432c.0581-.2434.1186-.512.1882-.7782a1.3907,1.3907,0,0,0,.0579-.21c.0041-.04.0185-.0843.0667-.0834.0623.0011.0648.0565.0629.1a.7534.7534,0,0,1-.0506.2813,2.4864,2.4864,0,0,0-.2023.7286c-.0057.0466-.0077.12-.0719.1143C6.9609,20.0891,6.9913,20.016,6.978,19.9432Z" fill="#fbc926"/><path d="M11.9607,12.2257c-.0413-.001-.0652-.0153-.0737-.0452a.0889.0889,0,0,1,.0453-.1007q.1692-.111.3427-.2157.2385-.1434.48-.281c.05-.0282.1179-.0535.152.004.0331.0557-.0355.0892-.0743.1136-.2716.17-.5455.3369-.8192.5039A.28.28,0,0,1,11.9607,12.2257Z" fill="#fbc926"/><path d="M16.3742,13.1511a1.3525,1.3525,0,0,1,.2123.0566,3.0328,3.0328,0,0,0,.6615.1991c.0676.0131.1492.03.1241.1222-.0214.0791-.0964.0651-.1568.0432q-.4447-.1616-.8879-.3269c-.0261-.01-.0583-.0249-.0508-.0573C16.2892,13.1336,16.3365,13.1506,16.3742,13.1511Z" fill="#fbc926"/><path d="M12.7327,16.2858a1.13,1.13,0,0,1,.163.0811c.2478.1755.5258.2993.7813.4614.0372.0236.088.0425.0646.1-.0119.0292-.0474.028-.0745.0174a5.1713,5.1713,0,0,1-.9365-.4849.1945.1945,0,0,1-.07-.0927C12.6408,16.3122,12.6729,16.2852,12.7327,16.2858Z" fill="#fbc926"/><path d="M24.3057,15.1765c.0675,0,.1351-.0011.2026,0,.0347.0008.0731.0079.0758.05.0027.04-.0306.06-.0653.0654q-.2839.04-.5686.0763a.0628.0628,0,0,1-.0778-.067.0928.0928,0,0,1,.08-.0943A1.595,1.595,0,0,1,24.3057,15.1765Z" fill="#fbc926"/><path d="M22.6912,17.3789a.0957.0957,0,0,1,.0954.0646q.1616.3229.3189.648c.0147.03.0227.0673-.018.0867-.0318.0152-.0558-.0081-.07-.0314-.129-.2166-.2593-.4326-.3816-.653A.0777.0777,0,0,1,22.6912,17.3789Z" fill="#fbc926"/></g></svg>